<?xml version="1.0"?>
<svg xmlns="http://www.w3.org/2000/svg" height="846" width="572" xmlns:xlink="http://www.w3.org/1999/xlink" viewBox="0 0 286 423">
<defs>
<clipPath id="cpSchild">
<path d="m3 3h260v185a130 130 0 0 1 -260 0z"/>
</clipPath>
</defs>
<title>Wappen des Bezirks Friedrichshain-Kreuzberg</title>
<desc>Das Wappen des Berliner Bezirks Friedrichshain-Kreuzberg</desc>
<g id="Turm" stroke="#000">
<path stroke-width="3" d="m1.5 1.5h15v12h15v-12h15v12h15v-12h15v22.5l-10 8.5v71h-55v-71h55-55l-10-8.5z" fill="#e62518"/>
<path stroke-width="2" d="m2 14h74v10h-74m19-10v10h18v-10h18v10m-42 0l6 8h12l-2-8h16l-2 8h12l6-8m-51 65h54v-14h-54v-14h54v-14h-54 27v14h-18v-14h9v-14h18v14h9v14h-9v14h9v14h-9v14h-18v-14h-9v-14h9v-14 14h9v14" fill="none"/>
<path d="m35 75h8v-17a4 4 0 0 0 -8 0z"/>
</g>
<g id="Mauer" stroke="#000">
<path stroke-width="3" d="m66.5 49.5h17v11h15v-11h17v54h-49z" fill="#e62518"/>
<path stroke-width="2" d="m67 61h48v14h-48v14h48m-24-28v14h10v14m-20-14v14h10v14" fill="none"/>
</g>
<use x="104" xlink:href="#Turm"/>
<use x="104" xlink:href="#Mauer"/>
<use x="208" xlink:href="#Turm"/>
<path stroke="#000" stroke-width="2" d="m122 41h42v35a21 21 0 1 1 -42 0z" fill="#fff"/>
<svg id="Baer" height="48.02" width="29" version="1.1" y="44" x="127" viewBox="0 0 2500 4140">
<path d="m1522 109l-244 9c-12 1-21 7-21 21 1 88 18 145 81 191-8 49-3 74 48 115 5-40 21-58 46-75 2 1 4 1 5 2-3 18-3 37 1 48 10 28 59 29 72 9 12 29 37 30 57 30 21 0 31-15 38-29 12 10 24 21 35 35 35 48 41 110 41 169l-33 3v-24c-1-34-80-40-98-11-20-22-82-18-82 17v11c-14-18-25-37-34-56-25 16-40 28-36 85-11 1-22 2-32 3 1 66 30 84 266 79 6 66-60 103-109 134-128 73-263 153-336 287-61 106-76 232-69 354l70-31 8 38c-126 60-356 182-507 252-37 17-133 41-153 7-69-119-124-209-204-300-143 63-209 121-263 254 113 173 300 421 610 423 321 2 600-116 661-134l13 41c-41 18-77 31-120 45 56 220 121 306 272 440l-31 23c-27-16-73-67-98-91-321 152-441 304-518 461-85 189-69 404-33 603 7 33-29 49-56 39-74-17-115-91-186-118-32-14-71-27-106-22-82 117-72 176-61 323 108 53 224 66 344 128 79 32 155 84 245 70 51-5 102-40 107-94 45-194 108-400 256-540 71-70 163-126 254-169-36-138-63-276-60-420l44-2c32 548 178 663 435 918 26 26 24 75-14 90-50 25-109 27-166 29-10 142 23 281 75 338 158-3 322-128 417-249 40-50 88-100 126-149 47-61-4-132-18-188-39-160-57-620-59-684l56 1 8-116c-167-207-140-531-209-740-27-85-57-173-57-263 0-122 138-351 135-555-1-86-49-198-48-249 1-148 86-116 84-424-1-85-11-148-33-235 149-157-56-314-174-216-95-25-107-50-293-50-159 0-250 43-349 109zm-288 917c-292-86-499-125-615-213-117-89-69-280-206-389-127-4-203 53-257 124 219 337-73 419 918 985-4-313 55-378 160-507zm605-727c-15 0-42-8-50-19-87-133-109-85-122-39-11 41-59 42-45-13 35-135 130-116 248 71zm277-135c24-32 61-63 101-76 59-20 83 28 36 44-39 14-72 41-100 69zm-767 173c15 9 36 20 67 29-17 14-33 34-38 56-27-19-38-54-29-85zm160 53c0 13-3 26-7 32-10 16-47 15-55-7-3-9-3-25 1-40 20 5 41 9 61 15zm12 3c27 8 53 17 76 32-5 12-14 24-32 24-16 0-34-1-44-20-5-10-3-24 0-36zm-54 260l-59 5c-3-28 0-52 22-68 11 20 23 39 37 56zm10-0.5v-31.5c0-33 70-31 71 0v25zm80-7.5v-28c0-33 81-31 81-1v22z"/>
<g fill="#e62518">
<path d="m1178 378c1 256 379 130 499 191-2-16-5-32-10-48-61-22-148-7-241-22-187-30-210-83-210-122-1-41-38-43-38 1"/>
<g id="Krallen">
<path id="Kralle" d="m329 3474s35-13 110 26c36 18 58-51 28-60-92-29-138 34-138 34"/>
<use xlink:href="#Kralle" transform="translate(-25,63)"/>
<use xlink:href="#Kralle" transform="translate(-44,128)"/>
<use xlink:href="#Kralle" transform="translate(-46,197)"/>
<use xlink:href="#Kralle" transform="translate(-37,267)"/>
</g>
<use xlink:href="#Krallen" transform="matrix(.9858 -.3627 .3627 .9858 152.9 556.3)"/>
<use xlink:href="#Krallen" transform="matrix(.6627 .9484 -.7177 .8958 2492 -2040)"/>
<use xlink:href="#Krallen" transform="matrix(.5009 .7395 -.7395 .5009 2724 -1656)"/>
</g>
</svg>
<svg id="Wappenschild" height="321" width="266" version="1.1" y="102" x="10">
<path stroke="#000" stroke-width="3" d="m1.5 1.5h263v186.5a131.5 131.5 0 0 1 -263 0z" fill="#fff"/>
<path id="Bogen" stroke="#000" stroke-width="2" fill="#e62518" d="m90.5 129h5v4h5v-4h5v4h5v-4h5v4h5v-4h5v4h5v-4h5v4h5v-4h5v4h5v-4h5v4h5v-4h5v4h5v-4h5v61.5a45 38 0 0 0 -85 0zm0 9h85v19h-85"/>
<g clip-path="url(#cpSchild)">
<use x="-129.5" xlink:href="#Bogen"/>
<use x="129.5" xlink:href="#Bogen"/>
</g>
<g id="BTurm">
<g stroke="#000" stroke-width="2" fill="#e62518">
<path d="m46 209v-82h46v82l5 19h-56l5-19 23-12 23 12zm8-19v-33a15 15 0 0 1 30 0v33zm-8-63a9 9 0 0 0 -6 -7.5v-27l-2-1.5 14-7h34l14 7-2 1.5v27a9 9 0 0 0 -6 7.5zm-6-34.5h58v24h-58m12-32.5v-25l17-44 17 44v25zm-2 37.5h37"/>
<path d="m49.5 59v-13h7v4h5v-4h5v4h5v-4h5v4h5v-4h7v13zm5.5 68v-10.5a3 3 0 0 1 6 0v10.5zm11 0v-10.5a3 3 0 0 1 6 0v10.5zm11 0v-10.5a3 3 0 0 1 6 0v10.5z"/>
<path d="m59 50v9h2v25l-11 8.5v34.5a4 9 0 0 1 -4 9m33-86v9h-2v25l11 8.5v34.5a4 9 0 0 0 4 9" fill="none"/>
<circle cy="15" cx="69" r="5.25"/>
</g>
<path d="m58 165v-11.5a2.5 2.5 0 0 1 5 0v11.5zm8 0v-15a3 3 0 0 1 6 0v15zm9 0v-11.5a2.5 2.5 0 0 1 5 0v11.5z"/>
<circle cy="103" cx="58" r="4"/>
<circle cy="103" cx="69" r="4"/>
<circle cy="103" cx="80" r="4"/>
</g>
<use x="128" xlink:href="#BTurm"/>
<g clip-path="url(#cpSchild)">
<g id="Welle">
<path stroke="#000" stroke-width="2" d="m-7 222.5c7.5 0 10-7 17.5-7s10 7 17.5 7 10-7 17.5-7 10 7 17.5 7 10-7 17.5-7 10 7 17.5 7 10-7 17.5-7 10 7 17.5 7 10-7 17.5-7 10 7 17.5 7 10-7 17.5-7 10 7 17.5 7 10-7 17.5-7 10 7 17.5 7 10-7 17.5-7 10 7 17.5 7v16.5c-7.5 0-10-7-17.5-7s-10 7-17.5 7-10-7-17.5-7-10 7-17.5 7-10-7-17.5-7-10 7-17.5 7-10-7-17.5-7-10 7-17.5 7-10-7-17.5-7-10 7-17.5 7-10-7-17.5-7-10 7-17.5 7-10-7-17.5-7-10 7-17.5 7-10-7-17.5-7-10 7-17.5 7z" fill="#0056ad"/>
</g>
<use y="1" xlink:href="#Welle"/>
<use y="22" xlink:href="#Welle"/>
<use y="43" xlink:href="#Welle"/>
<use y="64" xlink:href="#Welle"/>
<g transform="translate(0,85)">
<path d="m63 222.5c7.5 0 10-7 17.5-7s10 7 17.5 7 10-7 17.5-7 10 7 17.5 7 10-7 17.5-7 10 7 17.5 7 10-7 17.5-7 10 7 17.5 7l-70.7 23.5z" stroke="#000" stroke-width="2" fill="#0056ad"/>
</g>
</g>
</svg>
</svg>
