<?xml version="1.0" encoding="ISO-8859-1" standalone="no"?>
<!DOCTYPE svg PUBLIC "-//W3C//DTD SVG 1.1//EN" "http://www.w3.org/Graphics/SVG/1.1/DTD/svg11.dtd">
<svg
   xmlns:svg="http://www.w3.org/2000/svg"
   xmlns="http://www.w3.org/2000/svg"
   xmlns:xlink="http://www.w3.org/1999/xlink"
   version="1.1"
   width="572" height="846"
   viewBox="0 0 286 423">
  <title>Wappen des Bezirks Neukölln</title>
  <desc>Das Wappen des Berliner Bezirks Neukölln</desc>
  <g id="Turm" stroke="black" >
    <path d="M 1.5,1.5 h 15 v 12 h 15 v -12 h 15 v 12 h 15 v -12 h 15 V 24 l -10,8.5 v 71 h -55 v -71 h 55 h -55 l -10,-8.5 z"
          stroke-width="3" fill="#e62518" />
    <path d="M 2,14 H 76 V 24 H 2 M 21,14 V 24 H 39 V 14 H 57 V 24 M 15,24 l 6,8 H 33 L 31,24 H 47 l -2,8 H 57 l 6,-8 M 12,89 H 66 V 75 H 12 V 61 H 66 V 47 H 12 H 39 V 61 H 21 V 47 h 9 V 33 H 48 V 47 h 9 V 61 H 48 V 75 h 9 V 89 H 48 V 103 H 30 V 89 H 21 V 75 h 9 V 61 V 75 h 9 V 89"
          stroke-width="2" fill="none" />
    <path d="M 35,75 h 8 V 58 A 4 4 0 0 0 35,58 z" />
  </g>
  <g id="Mauer" stroke="black" >
    <path d="M 66.5,49.5 h 17 v 11 h 15 v -11 h 17 v 54 h -49 z"
          stroke-width="3" fill="#e62518" />
    <path d="M 67,61 h 48 v 14 h -48 v 14 h 48 M 91,61 v 14 h 10 v 14 M 81,75 v 14 h 10 v 14"
          stroke-width="2" fill="none" />
  </g>
  <use x="104" xlink:href="#Turm" />
  <use x="104" xlink:href="#Mauer" />
  <use x="208" xlink:href="#Turm" />
  <path d="M 122,41 h 42 v 35 A 21 21 0 1 1 122,76 z"
        stroke="black" stroke-width="2" fill="white" />
  <svg id="Baer" x="127" y="44" width="29" height="48.024" viewBox="0 0 2500 4140">
    <path d="M 1522,109 L 1278,118 C 1266,119 1257,125 1257,139 1258,227 1275,284 1338,330 1330,379 1335,404 1386,445 1391,405 1407,387 1432,370 1434,371 1436,371 1437,372 1434,390 1434,409 1438,420 1448,448 1497,449 1510,429 1522,458 1547,459 1567,459 1588,459 1598,444 1605,430 1617,440 1629,451 1640,465 1675,513 1681,575 1681,634 1670,635 1659,636 1648,637 L 1648,613 C 1647,579 1568,573 1550,602 1530,580 1468,584 1468,619 L 1468,630 C 1454,612 1443,593 1434,574 1409,590 1394,602 1398,659 1387,660 1376,661 1366,662 1367,728 1396,746 1632,741 1638,807 1572,844 1523,875 1395,948 1260,1028 1187,1162 1126,1268 1111,1394 1118,1516 L 1188,1485 1196,1523 C 1070,1583 840,1705 689,1775 652,1792 556,1816 536,1782 467,1663 412,1573 332,1482 189,1545 123,1603 69,1736 182,1909 369,2157 679,2159 1000,2161 1279,2043 1340,2025 L 1353,2066 C 1312,2084 1276,2097 1233,2111 1289,2331 1354,2417 1505,2551 L 1474,2574 C 1447,2558 1401,2507 1376,2483 1055,2635 935,2787 858,2944 773,3133 789,3348 825,3547 832,3580 796,3596 769,3586 695,3569 654,3495 583,3468 551,3454 512,3441 477,3446 395,3563 405,3622 416,3769 524,3822 640,3835 760,3897 839,3929 915,3981 1005,3967 1056,3962 1107,3927 1112,3873 1157,3679 1220,3473 1368,3333 1439,3263 1531,3207 1622,3164 1586,3026 1559,2888 1562,2744 L 1606,2742 C 1638,3290 1784,3405 2041,3660 2067,3686 2065,3735 2027,3750 1977,3775 1918,3777 1861,3779 1851,3921 1884,4060 1936,4117 2094,4114 2258,3989 2353,3868 2393,3818 2441,3768 2479,3719 2526,3658 2475,3587 2461,3531 2422,3371 2404,2911 2402,2847 L 2458,2848 2466,2732 C 2299,2525 2326,2201 2257,1992 2230,1907 2200,1819 2200,1729 2200,1607 2338,1378 2335,1174 2334,1088 2286,976 2287,925 2288,777 2373,809 2371,501 2370,416 2360,353 2338,266 2487,109 2282,-48 2164,50 2069,25 2057,0 1871,0 1712,0 1621,43 1522,109 z M 1234,1026 C 942,940 735,901 619,813 502,724 550,533 413,424 286,420 210,477 156,548 375,885 83,967 1074,1533 1070,1220 1129,1155 1234,1026 z M 1839,299 C 1824,299 1797,291 1789,280 1702,147 1680,195 1667,241 1656,282 1608,283 1622,228 1657,93 1752,112 1870,299 z M 2116,164 C 2140,132 2177,101 2217,88 2276,68 2300,116 2253,132 2214,146 2181,173 2153,201 z M 1349,337 C 1364,346 1385,357 1416,366 1399,380 1383,400 1378,422 1351,403 1340,368 1349,337 z M 1509,390 C 1509,403 1506,416 1502,422 1492,438 1455,437 1447,415 1444,406 1444,390 1448,375 1468,380 1489,384 1509,390 z M 1521,393 C 1548,401 1574,410 1597,425 1592,437 1583,449 1565,449 1549,449 1531,448 1521,429 1516,419 1518,405 1521,393 z M 1467,653 L 1408,658 C 1405,630 1408,606 1430,590 1441,610 1453,629 1467,646 z M 1477,652.5 V 621 C 1477,588 1547,590 1548,621 V 646 z M 1557,645 V 617 C 1557,584 1638,586 1638,616 V 638 z" />
    <g fill="#e62518">
      <path d="M 1178,378 c 1,256 379,130 499,191 -2,-16 -5,-32 -10,-48 -61,-22 -148,-7 -241,-22 -187,-30 -210,-83 -210,-122 -1,-41 -38,-43 -38,1" />
      <g id="Krallen">
        <path d="M 329,3474 s 35,-13 110,26 c 36,18 58,-51 28,-60 -92,-29 -138,34 -138,34"
              id="Kralle" />
        <use xlink:href="#Kralle" transform="translate(-25,63)" />
        <use xlink:href="#Kralle" transform="translate(-44,128)" />
        <use xlink:href="#Kralle" transform="translate(-46,197)" />
        <use xlink:href="#Kralle" transform="translate(-37,267)" />
      </g>
      <use xlink:href="#Krallen" transform="matrix(0.98585,-0.362747,0.362747,0.98585,152.8742,556.3228)" />
      <use xlink:href="#Krallen" transform="matrix(0.662705,0.948407,-0.717713,0.895796,2492.198,-2039.701)" />
      <use xlink:href="#Krallen" transform="matrix(0.500922,0.739494,-0.739494,0.500922,2724.41,-1655.876)" />
    </g>
  </svg>
  <svg id="Wappenschild" x="10" y="102" width="266" height="321">
    <g stroke="black" stroke-width="3" >
      <path d="M 1.5,1.5 h 263 V 188 A 131.5 131.5 0 0 1 1.5,188 z"
            fill="#e62518" />
      <path d="M 133,1.5 H 264.5 v 159 H 133 z"
            fill="white" />
    </g>
    <rect width="133" height="162" />
    <path d="M 30,7.5 h 73 L 80,75.5 a 1 1.7 0 0 1 0,3.4 1.5 1.8 0 0 1 0,3.6 1 1.5 0 0 1 0,3 c -7,0 -8,10 -8,15 0,34 15,44 24,48 8,4 11,2 11,6 H 26 c 0,-4 3,-2 11,-6 9,-4 24,-14 24,-48 0,-5 -1,-15 -8,-15 a 1 1.5 0 0 1 0,-3 1.5 1.8 0 0 1 0,-3.6 1 1.7 0 0 1 0,-3.4 z"
          fill="white" />
    <path d="M 135,237 l 71,-28.5 -29,30.5 29,30.5 -71,-28.5 28.5,71 -30.5,-29 -30.5,29 28.5,-71 -71,28.5 29,-30.5 -29,-30.5 71,28.5 -28.5,-71 30.5,29 30.5,-29 z"
          stroke="black" stroke-width="1" fill="white" />
    <svg width="266" height="321" viewBox="0 0 26600 32100">
      <g stroke="black" stroke-width="100" fill="#fec728" >
        <path d="M 17790,10894 c -445,581 -1073,1362 -1692,1527 -448,120 -1165,-685 -1507,-671 -296,13 -442,432 -299,687 47,-165 147,-364 284,-392 -22,92 -96,318 41,381 168,78 254,-142 330,-113 71,26 -57,245 114,278 176,35 175,-87 263,-170 100,103 189,155 315,201 -240,87 -607,118 -910,118 -379,0 -548,139 -612,269 -62,127 -148,405 185,661 -56,-342 0,-437 181,-599 8,96 -12,291 162,293 180,3 190,-296 297,-293 114,4 79,280 263,258 207,-23 140,-208 247,-287 100,-74 196,-92 318,-111 -471,855 -751,613 -993,896 -198,232 -209,606 315,834 -126,-284 -192,-459 -112,-621 112,117 297,130 378,91 167,-81 80,-314 158,-386 83,-79 306,71 427,-91 123,-163 56,-310 57,-392 2,-329 351,-384 529,-263 109,74 8,255 183,301 200,54 201,-158 346,-134 144,25 13,192 196,208 153,14 200,-132 295,-244 213,157 189,380 49,500 255,-12 389,-93 396,-364 11,-434 -756,-436 -1488,-685 530,-260 1498,-873 1919,-1419 z"
              id="Fang" />
        <use xlink:href="#Fang" transform="matrix(-1,0,0,1,39750,0)" />
        <path d="M 15362,2416 c -631,276 -1368,358 -1650,131 -63,287 -109,683 129,812 326,178 763,195 1240,79 -38,121 -51,234 -43,371 -576,297 -1019,477 -1341,388 -46,421 7,711 297,794 337,96 645,-43 1072,-229 l 65,219 c -475,419 -974,925 -1334,922 -25,353 73,620 441,631 409,13 898,-369 1256,-737 l 94,100 c -1093,1618 -1466,1818 -1776,1764 -26,403 340,624 554,635 615,30 1190,-826 1806,-1872 l 128,112 c -1031,2283 -1803,3401 -2506,3628 108,251 376,456 725,394 674,-120 1415,-674 2365,-3669 l 128,66 c -652,2717 -1081,3702 -1531,4394 318,160 718,78 994,-178 283,-263 761,-1416 1259,-3960 l 175,66 c -42,788 -135,1315 -278,2028 293,6 503,-114 591,-325 154,-369 325,-1098 362,-1628 113,663 325,918 291,1222 -58,518 -847,791 -1025,1125 -330,619 -229,1257 -934,1728 399,148 694,164 1184,-141 -171,238 -270,493 -112,713 260,-706 549,-413 753,-675 220,-284 170,-744 618,-1141 77,460 110,898 122,1328 10,329 -79,946 -422,966 -316,18 -285,-202 -228,-422 -632,171 -811,722 -431,1019 301,235 664,171 1106,-263 -176,1213 -1001,1682 -1481,1694 -731,18 -1003,-694 -1813,-634 -456,33 -796,1008 13,1312 -115,-343 -169,-638 72,-675 683,-105 1019,1061 1690,1060 737,-2 1144,-347 1382,-772 60,320 231,605 509,784 278,-179 449,-464 509,-784 238,425 645,770 1382,772 671,1 1007,-1165 1690,-1060 241,37 187,332 72,675 809,-304 469,-1279 13,-1312 -813,-60 -1085,652 -1816,634 -480,-12 -1305,-481 -1481,-1694 442,434 805,498 1106,263 280,-297 201,-848 -431,-1019 57,220 88,440 -228,422 -346,-20 -432,-637 -422,-966 12,-430 45,-868 122,-1328 448,397 398,857 618,1141 204,262 493,-31 753,675 158,-220 59,-475 -112,-713 490,305 845,289 1184,141 -705,-471 -604,-1109 -934,-1728 -178,-334 -967,-607 -1025,-1125 -34,-304 178,-559 291,-1222 37 530 208,1259 362,1628 88,211 298,331 591,325 -143,-713 -236,-1240 -278,-2028 l 175,-66 c 498,2544 976,3697 1259,3960 276,256 676,338 994,178 -450,-692 -879,-1677 -1531,-4394 l 128,-66 c 950,2995 1691,3549 2365,3669 349,62 617,-143 725,-394 -702,-227 -1475,-1345 -2506,-3628 l 128,-112 c 616,1046 1191,1902 1806,1872 214,-11 580,-228 554,-635 -309,84 -683,-116 -1776,-1734 l 94,-100 c 358,368 847,750 1256,737 368,-11 466,-278 441,-631 -360,3 -859,-503 -1334,-922 l 65,-219 c 427,186 735,325 1072,229 290,-83 343,-373 297,-794 -322,89 -765,-91 -1341,-388 8,-137 -5,-250 -43,-371 477,116 914,99 1240,-79 238,-129 192,-525 129,-812 -282,227 -1019,145 -1650,-131 l -116,-250 c 417,121 1201,-15 1447,-350 156,-214 159,-501 37,-816 -473,305 -1200,311 -1865,100 -771,-245 -1573,-94 -1716,631 -203,1029 959,985 850,1628 -84,496 -622,86 -769,672 -149,596 630,790 6,1400 -182,178 -626,218 -862,191 -84,-459 -260,-692 -612,-713 l 63,-127 c 104,55 245,44 337,-40 -189,-71 -275,-200 -277,-558 -1,-164 82,-436 159,-669 132,58 294,-10 408,-132 -178,-18 -316,-69 -282,-218 66,-294 35,-572 -5,-930 180,54 272,-72 253,-293 -107,34 -266,99 -321,-61 -73,-209 -146,-421 -333,-599 188,-1 280,-159 203,-365 -118,136 -316,179 -426,113 -308,-185 -591,-369 -1037,-396 -142,-9 -376,57 -401,231 l 1107,1342 c -222,-142 -400,-184 -674,-202 -267,-17 -694,139 -986,95 -263,-40 -412,-314 -537,-642 -99,430 18,829 462,931 393,89 745,-180 1110,-179 196,0 448,122 573,184 -167,590 -590,941 -772,958 -105,9 -193,12 -235,-82 -72,81 -85,202 -18,241 101,59 211,38 344,-25 l 26,53 c -157,173 -511,250 -689,441 -98,104 -40,323 -430,554 147,19 236,-18 374,-86 93,-46 146,-236 321,-255 -79,250 -123,475 -143,716 -352,21 -528,254 -612,713 -236,27 -680,-13 -862,-191 -624,-610 155,-804 6,-1400 -147,-586 -685,-176 -769,-672 -109,-643 1053,-599 850,-1628 -143,-725 -945,-876 -1716,-631 -665,211 -1392,205 -1865,-100 -122,315 -119,602 37,816 246,335 1030,471 1447,350 z"
              fill="#e62518" />
        <path d="M 18630,1452 c -48,-340 61,-650 541,-620 97,127 231,228 386,250 15,118 91,324 208,365 554,195 668,732 548,944 -56,100 147,161 75,278 -84,138 -246,4 -357,-29 -341,-101 -791,-57 -1068,29 112,-170 373,-285 598,-286 161,-2 457,82 495,0 100,-218 -268,-680 -511,-707 -87,-9 -232,15 -320,108 -54,-162 -143,-309 -246,-386 -106,-81 -259,-35 -349,54 z" />
        <path d="M 18475,6543 c -3042,154 -3979,-3153 -2248,-4576 -712,-260 187,-988 379,-370 260,-713 1092,116 329,341 632,303 -270,957 -406,314 -1513,1156 -656,4025 1888,3885 z"
              id="Klee" />
        <use xlink:href="#Klee" transform="matrix(-1,0,0,1,39750,0)" />
        <path d="M 19534,886 c 349,4 680,168 900,362 -207,-39 -332,80 -573,0 -190,-63 -194,-275 -327,-362 z"
              fill="white" />
        <path d="M 19852,1001 c -52,105 -63,221 84,247 163,28 181,-130 145,-247 -68,168 -200,157 -229,0 z"
              stroke="none" fill="black" />
      </g>
    </svg>
  </svg>
</svg>
