<?xml version="1.0" encoding="ISO-8859-1" standalone="no"?>
<!DOCTYPE svg PUBLIC "-//W3C//DTD SVG 1.1//EN" "http://www.w3.org/Graphics/SVG/1.1/DTD/svg11.dtd">
<svg
   xmlns:svg="http://www.w3.org/2000/svg"
   xmlns="http://www.w3.org/2000/svg"
   xmlns:xlink="http://www.w3.org/1999/xlink"
   version="1.1"
   width="572" height="846"
   viewBox="0 0 286 423">
  <title>Wappen des Bezirks Pankow</title>
  <desc>Das Wappen des Berliner Bezirks Pankow</desc>
  <g id="Turm" stroke="black" >
    <path d="M 1.5,1.5 h 15 v 12 h 15 v -12 h 15 v 12 h 15 v -12 h 15 V 24 l -10,8.5 v 71 h -55 v -71 h 55 h -55 l -10,-8.5 z"
          stroke-width="3" fill="#e62518" />
    <path d="M 2,14 H 76 V 24 H 2 M 21,14 V 24 H 39 V 14 H 57 V 24 M 15,24 l 6,8 H 33 L 31,24 H 47 l -2,8 H 57 l 6,-8 M 12,89 H 66 V 75 H 12 V 61 H 66 V 47 H 12 H 39 V 61 H 21 V 47 h 9 V 33 H 48 V 47 h 9 V 61 H 48 V 75 h 9 V 89 H 48 V 103 H 30 V 89 H 21 V 75 h 9 V 61 V 75 h 9 V 89"
          stroke-width="2" fill="none" />
    <path d="M 35,75 h 8 V 58 A 4 4 0 0 0 35,58 z" />
  </g>
  <g id="Mauer" stroke="black" >
    <path d="M 66.5,49.5 h 17 v 11 h 15 v -11 h 17 v 54 h -49 z"
          stroke-width="3" fill="#e62518" />
    <path d="M 67,61 h 48 v 14 h -48 v 14 h 48 M 91,61 v 14 h 10 v 14 M 81,75 v 14 h 10 v 14"
          stroke-width="2" fill="none" />
  </g>
  <use x="104" xlink:href="#Turm" />
  <use x="104" xlink:href="#Mauer" />
  <use x="208" xlink:href="#Turm" />
  <path d="M 122,41 h 42 v 35 A 21 21 0 1 1 122,76 z"
        stroke="black" stroke-width="2" fill="white" />
  <svg id="Baer" x="127" y="44" width="29" height="48.024" viewBox="0 0 2500 4140">
    <path d="M 1522,109 L 1278,118 C 1266,119 1257,125 1257,139 1258,227 1275,284 1338,330 1330,379 1335,404 1386,445 1391,405 1407,387 1432,370 1434,371 1436,371 1437,372 1434,390 1434,409 1438,420 1448,448 1497,449 1510,429 1522,458 1547,459 1567,459 1588,459 1598,444 1605,430 1617,440 1629,451 1640,465 1675,513 1681,575 1681,634 1670,635 1659,636 1648,637 L 1648,613 C 1647,579 1568,573 1550,602 1530,580 1468,584 1468,619 L 1468,630 C 1454,612 1443,593 1434,574 1409,590 1394,602 1398,659 1387,660 1376,661 1366,662 1367,728 1396,746 1632,741 1638,807 1572,844 1523,875 1395,948 1260,1028 1187,1162 1126,1268 1111,1394 1118,1516 L 1188,1485 1196,1523 C 1070,1583 840,1705 689,1775 652,1792 556,1816 536,1782 467,1663 412,1573 332,1482 189,1545 123,1603 69,1736 182,1909 369,2157 679,2159 1000,2161 1279,2043 1340,2025 L 1353,2066 C 1312,2084 1276,2097 1233,2111 1289,2331 1354,2417 1505,2551 L 1474,2574 C 1447,2558 1401,2507 1376,2483 1055,2635 935,2787 858,2944 773,3133 789,3348 825,3547 832,3580 796,3596 769,3586 695,3569 654,3495 583,3468 551,3454 512,3441 477,3446 395,3563 405,3622 416,3769 524,3822 640,3835 760,3897 839,3929 915,3981 1005,3967 1056,3962 1107,3927 1112,3873 1157,3679 1220,3473 1368,3333 1439,3263 1531,3207 1622,3164 1586,3026 1559,2888 1562,2744 L 1606,2742 C 1638,3290 1784,3405 2041,3660 2067,3686 2065,3735 2027,3750 1977,3775 1918,3777 1861,3779 1851,3921 1884,4060 1936,4117 2094,4114 2258,3989 2353,3868 2393,3818 2441,3768 2479,3719 2526,3658 2475,3587 2461,3531 2422,3371 2404,2911 2402,2847 L 2458,2848 2466,2732 C 2299,2525 2326,2201 2257,1992 2230,1907 2200,1819 2200,1729 2200,1607 2338,1378 2335,1174 2334,1088 2286,976 2287,925 2288,777 2373,809 2371,501 2370,416 2360,353 2338,266 2487,109 2282,-48 2164,50 2069,25 2057,0 1871,0 1712,0 1621,43 1522,109 z M 1234,1026 C 942,940 735,901 619,813 502,724 550,533 413,424 286,420 210,477 156,548 375,885 83,967 1074,1533 1070,1220 1129,1155 1234,1026 z M 1839,299 C 1824,299 1797,291 1789,280 1702,147 1680,195 1667,241 1656,282 1608,283 1622,228 1657,93 1752,112 1870,299 z M 2116,164 C 2140,132 2177,101 2217,88 2276,68 2300,116 2253,132 2214,146 2181,173 2153,201 z M 1349,337 C 1364,346 1385,357 1416,366 1399,380 1383,400 1378,422 1351,403 1340,368 1349,337 z M 1509,390 C 1509,403 1506,416 1502,422 1492,438 1455,437 1447,415 1444,406 1444,390 1448,375 1468,380 1489,384 1509,390 z M 1521,393 C 1548,401 1574,410 1597,425 1592,437 1583,449 1565,449 1549,449 1531,448 1521,429 1516,419 1518,405 1521,393 z M 1467,653 L 1408,658 C 1405,630 1408,606 1430,590 1441,610 1453,629 1467,646 z M 1477,652.5 V 621 C 1477,588 1547,590 1548,621 V 646 z M 1557,645 V 617 C 1557,584 1638,586 1638,616 V 638 z" />
    <g fill="#e62518">
      <path d="M 1178,378 c 1,256 379,130 499,191 -2,-16 -5,-32 -10,-48 -61,-22 -148,-7 -241,-22 -187,-30 -210,-83 -210,-122 -1,-41 -38,-43 -38,1" />
      <g id="Krallen">
        <path d="M 329,3474 s 35,-13 110,26 c 36,18 58,-51 28,-60 -92,-29 -138,34 -138,34"
              id="Kralle" />
        <use xlink:href="#Kralle" transform="translate(-25,63)" />
        <use xlink:href="#Kralle" transform="translate(-44,128)" />
        <use xlink:href="#Kralle" transform="translate(-46,197)" />
        <use xlink:href="#Kralle" transform="translate(-37,267)" />
      </g>
      <use xlink:href="#Krallen" transform="matrix(0.98585,-0.362747,0.362747,0.98585,152.8742,556.3228)" />
      <use xlink:href="#Krallen" transform="matrix(0.662705,0.948407,-0.717713,0.895796,2492.198,-2039.701)" />
      <use xlink:href="#Krallen" transform="matrix(0.500922,0.739494,-0.739494,0.500922,2724.41,-1655.876)" />
    </g>
  </svg>
  <svg id="Wappenschild" x="10" y="102" width="266" height="321" viewBox="0,0 26600,32100">
    <path d="M 150,150 h 26300 V 18800 A 13150,13150 0 0,1 150,18800 z" stroke="black" stroke-width="300" fill="white" />
    <g stroke="black" stroke-width="100" fill="#e62518">
      <path d="M 250,300 V 16800 H 2100 V 11600 a 2750,3300 0 0,1 5500,0 v 5200 H 9200 V 7200 a 4100,4100 0 0,1 8200,0 v 9600 h 1600 V 11600 a 2750,3300 0 0,1 5500,0 v 5200 h 1850 V 250" stroke-width="200" />
      <circle cx="13300" cy="25000" r="6200" stroke-width="200" />
      <circle cx="13300" cy="25000" r="5700" />
      <circle cx="13300" cy="25000" r="4600" fill="white" />
      <g id="speiche">
        <path d="M 9000,24600 h 8600 v 800 H 9000" />
        <path d="M 9150,24600 c -50,270 -50,530 0,800 90,370 -280,370 -320,200 -80,-410 -80,-790 0,-1200 40,-170 410,-170 320,200 z M 17450,24600 c 50,270 50,530 0,800 -90,370 280,370 320,200 80,-410 80,-790 0,-1200 -40,-170 -410,-170 -320,200 z" />
      </g>
      <use xlink:href="#speiche" transform="rotate(45,13300,25000)" />
      <use xlink:href="#speiche" transform="rotate(90,13300,25000)" />
      <use xlink:href="#speiche" transform="rotate(135,13300,25000)" />
      <circle cx="13300" cy="25000" r="1300" />
      <circle cx="13300" cy="25000" r="800" />
      <circle cx="13300" cy="25000" r="500" fill="white" />
      <g id="hopfen" stroke-linecap="round" fill="#00901e">
        <path d="M 4984,17856 c 127,-420 431,-846 1185,-1587 211,-207 432,58 283,231 -493,572 -1164,1195 -1117,1483 M 4880,23592 c -313,586 -7,1217 402,887 247,382 162,155 477,104 128,-21 556,296 603,-1110" />
        <path d="M 4604,23004 c -261,996 76,1043 328,1162 372,177 94,-412 313,-529 32,571 251,636 492,97 204,258 385,263 656,-97 -178,343 -222,436 -168,446 233,43 666,-480 779,-1385" />
        <path d="M 4403,22318 c -214,668 -202,1379 142,1378 245,0 225,-357 417,-499 132,-97 350,-30 402,-291 40,551 802,507 1036,-134 -223,815 440,564 469,767 258,-479 412,-1376 149,-1930" />
        <path d="M 4276,21737 c -176,293 -234,1265 30,1259 221,-5 253,-662 335,-656 75,6 -138,416 179,440 318,24 517,-568 872,-596 186,-14 279,260 402,261 128,1 140,-263 261,-253 128,10 89,259 253,253 216,-7 292,-303 395,-305 77,-2 104,174 209,223 2,-846 -282,-889 -291,-1229 -2,-69 213,50 201,-7 -80,-389 -591,-641 -916,-730" />
        <path d="M 3330,20888 c 0,0 458,1603 1125,1237 327,-180 135,-623 425,-708 409,-120 841,366 1192,320 264,-34 250,-363 410,-492 84,-67 199,-27 283,-119 60,-74 -611,-1214 -1252,-1289" />
        <path d="M 5180,17829 c -97,-417 -545,-893 -788,-907 -149,-8 -119,117 -182,121 -102,5 -213,-137 -316,-137 -98,0 -166,126 -231,128 -106,2 -105,-109 -277,-114 -74,-2 -112,113 -181,140 -156,61 -438,25 -600,204 -91,100 33,341 -51,447 -101,127 -380,80 -496,194 -62,60 -85,176 -147,239 -109,111 -345,112 -423,309 -23,58 79,81 76,144 -7,127 -245,181 -271,336 -11,68 119,92 110,160 -16,118 -191,161 -172,279 11,69 64,56 86,122 41,121 -305,358 -150,545 81,97 145,-142 215,-166 87,-30 178,55 247,-5 79,-69 20,-275 108,-330 69,-43 204,89 268,38 100,-79 -15,-174 64,-243 51,-44 128,59 210,21
 265,-121 536,-610 608,-532 58,62 -126,217 -339,395 -217,181 -508,358 -605,473 -120,142 83,184 51,255 -54,118 -336,114 -339,250 -1,74 144,60 160,133 31,139 -196,263 -243,409 -33,103 167,73 157,163 -13,116 -218,199 -182,310 27,83 117,2 140,77 26,80 -83,136 -81,174 5,81 156,113 170,193 18,108 -84,265 -40,365 34,77 156,72 169,155 35,225 -218,373 -50,519 283,247 480,-281 687,-219 76,23 117,174 196,182 103,11 135,-203 239,-195 87,7 -9,166 85,168 95,2 127,-182 219,-206 112,-28 200,134 306,89 114,-49 79,-312 198,-346 82,-24 170,167 252,129 109,-51 3,-323 116,-363 74,-26 148,161 222,135 105,-37 17,-319 118,-367 47,-22 161,60 203,29 105,-77 -94,-337 0,-427 61,-58 200,88 266,35 103,-83 -23,-370 91,-442 36,-23 111,101 170,33 80,-92 -73,-427 38,-549 31,-34 98,-1 124,-40 138,-212 -158,-690 -66,-718 87,-26 222,479 167,684 -22,81 -110,94 -123,177 -9,61 91,103 80,164 -11,59 -118,61 -124,120 -7,73 109,127 94,199 -15,72 -136,62 -165,130 -30,69 -6,214 64,243 91,37 162,-166 259,-151 62,9 108,114 170,109 141,-12 92,-367 233,-359 60,3 29,120 89,120 178,-2 71,-442 248,-462 73,-8 110,162 212,155 196,-13 21,-342 142,-407 72,-39 180,43 253,7 38,-19 26,-80 51,-118 24,-37 85,-51 92,-93 12,-77 -101,-209 -38,-255 65,-48 162,154 228,108 88,-62 -136,-259 -53,-328 50,-41 133,106 175,56 75,-89 -139,-256 -105,-367 19,-62 167,-84 184,-147 21,-78 -128,-101 -140,-185 -16,-110 162,-194 107,-288 -37,-63 -168,-6 -220,-57 -112,-110 38,-276 -49,-359 -139,-134 -524,-7 -661,-143 -93,-93 59,-334 -177,-368 -245,-35 -323,-227 -497,-229 -262,-2 -394,39 -635,255 z" />
      <path d="M 5066,18050 c -671,929 -1304,1847 -1855,2823 -68,120 -245,205 -343,358 -87,136 -57,443 -164,611 -78,122 -299,141 -544,544 M 4932,17990 c -459,-472 -2223,129 -3121,1050 M 4008,17238 c 228,127 360,291 454,477 M 3546,17215 l 320,82 M 3114,17469 c 397,-45 683,30 998,209 M 2615,17990 c 288,5 494,-214 805,-97 M 3300,18772 c 442,-19 564,-239 976,-194 M 4097,19115 c -631,243 -1373,308 -1788,842 M 3665,19793 c -497,-30 -589,285 -857,462 -274,181 -633,283 -767,611 M 2250,20292 l 492,-30 M 3278,20635 c -365,-5 -670,266 -1043,380 M 2540,21328 c -79,248 -204,296 -507,410 M 5066,18333 c 148,176 226,390 156,685 M 4678,18735 c 225,370 138,698 261,1058 M 4358,19294 c -14,586 449,643 559,1281 M 3971,19994 c 207,358 -2,538 201,894 147,257 13,497 52,745 M 4261,21164 l 253,82 M 3412,20746 c 140,300 197,714 119,1311 M 3650,21350 l 268,328 M 2972,21558 c 19,223 55,445 -82,648 M 5468,18005 c 905,1240 907,2202 164,2965 M 5990,19204 c -22,899 -313,495 -253,931 M 5520,17990 c 580,59 889,456 1363,581 M 5684,18258 l 484,-134 M 6273,18526 c 252,66 413,207 566,372 M 5990,18675 c 187,25 450,452 760,536 M 6161,19137 c 306,172 604,349 618,715 M 6243,20061 c 69,97 62,166 52,283" />
      </g>
      <use xlink:href="#hopfen" transform="matrix(-1,0,0,1,26600,0)" />
    </g>
  </svg>
</svg>
