<?xml version="1.0" encoding="UTF-8" standalone="no"?>
<!DOCTYPE svg PUBLIC "-//W3C//DTD SVG 1.1//EN" "http://www.w3.org/Graphics/SVG/1.1/DTD/svg11.dtd">
<svg
   xmlns:svg="http://www.w3.org/2000/svg"
   xmlns="http://www.w3.org/2000/svg"
   xmlns:xlink="http://www.w3.org/1999/xlink"
   version="1.1"
   width="572" height="846"
   viewBox="0 0 286 423">
  <title>Wappen des Bezirks Spandau</title>
  <desc>Das Wappen des Berliner Bezirks Spandau</desc>
  <g id="Turm" stroke="black" >
    <path d="M 1.5,1.5 h 15 v 12 h 15 v -12 h 15 v 12 h 15 v -12 h 15 V 24 l -10,8.5 v 71 h -55 v -71 h 55 h -55 l -10,-8.5 z"
          stroke-width="3" fill="#e62518" />
    <path d="M 2,14 H 76 V 24 H 2 M 21,14 V 24 H 39 V 14 H 57 V 24 M 15,24 l 6,8 H 33 L 31,24 H 47 l -2,8 H 57 l 6,-8 M 12,89 H 66 V 75 H 12 V 61 H 66 V 47 H 12 H 39 V 61 H 21 V 47 h 9 V 33 H 48 V 47 h 9 V 61 H 48 V 75 h 9 V 89 H 48 V 103 H 30 V 89 H 21 V 75 h 9 V 61 V 75 h 9 V 89"
          stroke-width="2" fill="none" />
    <path d="M 35,75 h 8 V 58 A 4 4 0 0 0 35,58 z" />
  </g>
  <g id="Mauer" stroke="black" >
    <path d="M 66.5,49.5 h 17 v 11 h 15 v -11 h 17 v 54 h -49 z"
          stroke-width="3" fill="#e62518" />
    <path d="M 67,61 h 48 v 14 h -48 v 14 h 48 M 91,61 v 14 h 10 v 14 M 81,75 v 14 h 10 v 14"
          stroke-width="2" fill="none" />
  </g>
  <use x="104" xlink:href="#Turm" />
  <use x="104" xlink:href="#Mauer" />
  <use x="208" xlink:href="#Turm" />
  <path d="M 122,41 h 42 v 35 A 21 21 0 1 1 122,76 z"
        stroke="black" stroke-width="2" fill="white" />
  <svg id="Baer" x="127" y="44" width="29" height="48.024" viewBox="0 0 2500 4140">
    <path d="M 1522,109 L 1278,118 C 1266,119 1257,125 1257,139 1258,227 1275,284 1338,330 1330,379 1335,404 1386,445 1391,405 1407,387 1432,370 1434,371 1436,371 1437,372 1434,390 1434,409 1438,420 1448,448 1497,449 1510,429 1522,458 1547,459 1567,459 1588,459 1598,444 1605,430 1617,440 1629,451 1640,465 1675,513 1681,575 1681,634 1670,635 1659,636 1648,637 L 1648,613 C 1647,579 1568,573 1550,602 1530,580 1468,584 1468,619 L 1468,630 C 1454,612 1443,593 1434,574 1409,590 1394,602 1398,659 1387,660 1376,661 1366,662 1367,728 1396,746 1632,741 1638,807 1572,844 1523,875 1395,948 1260,1028 1187,1162 1126,1268 1111,1394 1118,1516 L 1188,1485 1196,1523 C 1070,1583 840,1705 689,1775 652,1792 556,1816 536,1782 467,1663 412,1573 332,1482 189,1545 123,1603 69,1736 182,1909 369,2157 679,2159 1000,2161 1279,2043 1340,2025 L 1353,2066 C 1312,2084 1276,2097 1233,2111 1289,2331 1354,2417 1505,2551 L 1474,2574 C 1447,2558 1401,2507 1376,2483 1055,2635 935,2787 858,2944 773,3133 789,3348 825,3547 832,3580 796,3596 769,3586 695,3569 654,3495 583,3468 551,3454 512,3441 477,3446 395,3563 405,3622 416,3769 524,3822 640,3835 760,3897 839,3929 915,3981 1005,3967 1056,3962 1107,3927 1112,3873 1157,3679 1220,3473 1368,3333 1439,3263 1531,3207 1622,3164 1586,3026 1559,2888 1562,2744 L 1606,2742 C 1638,3290 1784,3405 2041,3660 2067,3686 2065,3735 2027,3750 1977,3775 1918,3777 1861,3779 1851,3921 1884,4060 1936,4117 2094,4114 2258,3989 2353,3868 2393,3818 2441,3768 2479,3719 2526,3658 2475,3587 2461,3531 2422,3371 2404,2911 2402,2847 L 2458,2848 2466,2732 C 2299,2525 2326,2201 2257,1992 2230,1907 2200,1819 2200,1729 2200,1607 2338,1378 2335,1174 2334,1088 2286,976 2287,925 2288,777 2373,809 2371,501 2370,416 2360,353 2338,266 2487,109 2282,-48 2164,50 2069,25 2057,0 1871,0 1712,0 1621,43 1522,109 z M 1234,1026 C 942,940 735,901 619,813 502,724 550,533 413,424 286,420 210,477 156,548 375,885 83,967 1074,1533 1070,1220 1129,1155 1234,1026 z M 1839,299 C 1824,299 1797,291 1789,280 1702,147 1680,195 1667,241 1656,282 1608,283 1622,228 1657,93 1752,112 1870,299 z M 2116,164 C 2140,132 2177,101 2217,88 2276,68 2300,116 2253,132 2214,146 2181,173 2153,201 z M 1349,337 C 1364,346 1385,357 1416,366 1399,380 1383,400 1378,422 1351,403 1340,368 1349,337 z M 1509,390 C 1509,403 1506,416 1502,422 1492,438 1455,437 1447,415 1444,406 1444,390 1448,375 1468,380 1489,384 1509,390 z M 1521,393 C 1548,401 1574,410 1597,425 1592,437 1583,449 1565,449 1549,449 1531,448 1521,429 1516,419 1518,405 1521,393 z M 1467,653 L 1408,658 C 1405,630 1408,606 1430,590 1441,610 1453,629 1467,646 z M 1477,652.5 V 621 C 1477,588 1547,590 1548,621 V 646 z M 1557,645 V 617 C 1557,584 1638,586 1638,616 V 638 z" />
    <g fill="#e62518">
      <path d="M 1178,378 c 1,256 379,130 499,191 -2,-16 -5,-32 -10,-48 -61,-22 -148,-7 -241,-22 -187,-30 -210,-83 -210,-122 -1,-41 -38,-43 -38,1" />
      <g id="Krallen">
        <path d="M 329,3474 s 35,-13 110,26 c 36,18 58,-51 28,-60 -92,-29 -138,34 -138,34"
              id="Kralle" />
        <use xlink:href="#Kralle" transform="translate(-25,63)" />
        <use xlink:href="#Kralle" transform="translate(-44,128)" />
        <use xlink:href="#Kralle" transform="translate(-46,197)" />
        <use xlink:href="#Kralle" transform="translate(-37,267)" />
      </g>
      <use xlink:href="#Krallen" transform="matrix(0.98585,-0.362747,0.362747,0.98585,152.8742,556.3228)" />
      <use xlink:href="#Krallen" transform="matrix(0.662705,0.948407,-0.717713,0.895796,2492.198,-2039.701)" />
      <use xlink:href="#Krallen" transform="matrix(0.500922,0.739494,-0.739494,0.500922,2724.41,-1655.876)" />
    </g>
  </svg>
  <svg id="Wappenschild" x="10" y="102" width="266" height="321">
    <defs>
      <clipPath id="cpSchild">
        <path d="M 3,3 H 263 V 188 A 130 130 0 0 1 3,188 z" />
      </clipPath>
    </defs>
    <path d="M 1.5,1.5 h 263 V 188 A 131.5 131.5 0 0 1 1.5,188 z"
          stroke="black" stroke-width="3" fill="white" />
    <g id="rechts" stroke="black" stroke-width="1" fill="#e62518" clip-path="url(#cpSchild)">
      <path d="M 14,110 H 58 V 230 H 14 z M 24,163 A 25,25 0 0 1 36,146 25,25 0 0 1 48,163 V 182 H 24 z M 21,97 H 51 l 10,13 H 11 z M 27,84 H 45 l 8,13 H 19 z M 31,72 H 41 l 6,12 H 25 z M 36,54 l 7,18 H 29 z M 36,72 v 12 M 36,97 v 13 H 24 L 28,97 h 2 L 33,84 h 6 l 3,13 h 2 l 4,13" />
      <path d="M 28,169 a 6,6 0 0 1 3,-5 6,6 0 0 1 3,5 v 9 h -6 z M 38,169 a 6,6 0 0 1 3,-5 6,6 0 0 1 3,5 v 9 h -6 z M 22,115 h 8 v 15 h -8 z M 42,115 h 8 v 15 h -8 z"
            stroke="none" fill="black" />
      <path d="M 0,196 h 11 v -18 h 17 v 18 h 16 v -18 h 17 v 18 h 16 v -46 h 17 v 150 H 0"
            transform="skewY(28)" />
      <path d="M 0,203 H 94 v 12 H 0 v 12 H 94 v 12 H 0 v 12 h 77 v -12 h 8 v -12 h -8 v -12 h 8 v -12 H 69 v 12 h -8 v 12 h 8 v 12 h -8 v 12 h -8 v 12 H 36 v -12 h 9 v -12 h 8 v -12 h -8 v -12 h 8 v -12 H 36 v 12 h -8 v 12 h 8 v 12 h -8 v 12 H 11 v -12 h 8 v -12 h -8 v -12 h 8 v -12"
            transform="skewY(28)" />
      <circle cx="36" cy="52" r="8" fill="#fec728" />
    </g>
    <use xlink:href="#rechts" transform="matrix(-1,0,0,1,266,0)" />
    <g clip-path="url(#cpSchild)">
      <path d="M 41,282 a 30,30 0 0 0 36,0 20,20 0 0 0 28,0 20,20 0 0 0 28,0 20,20 0 0 0 28,0 20,20 0 0 0 28,0 30,30 0 0 0 36,0 v 12 a 30,30 0 0 1 -36,0 20,20 0 0 1 -28,0 20,20 0 0 1 -28,0 20,20 0 0 1 -28,0 20,20 0 0 1 -28,0 30,30 0 0 1 -36,0"
            id="Welle" stroke="black" stroke-width="1" fill="#0056ad" />
      <use y="12" xlink:href="#Welle" />
      <use y="24" xlink:href="#Welle" />
    </g>
    <path d="M 67,136 V 110 h 12 v 15 h 12 V 110 h 12 v 15 h 12 V 110 h 12 v 15 h 12 V 110 h 12 v 15 h 12 V 110 h 12 v 15 h 12 V 110 h 12 v 26 H 67 H 77 v 17 H 189 V 136"
          stroke="black" stroke-width="1" fill="#e62518" />
    <path d="M 84,136 v 9 h 6 v -9 h 7 v 9 h 6 v -9 h 7 v 9 h 6 v -9 h 7 v 9 h 6 v -9 h 7 v 9 h 6 v -9 h 7 v 9 h 6 v -9 h 7 v 9 h 6 v -9 h 7 v 9 h 6 v -9" />
    <path d="M 67,153 c 0,75 49,127 66,142 17,-15 66,-67 66,-142 z"
          stroke="black" stroke-width="1" fill="white" />
    <svg width="266" height="321" viewBox="0 0 26600 32100">
      <g id="AdlerRechts" stroke="black" stroke-width="100" stroke-linecap="round" stroke-linejoin="round" fill="#e62518">
        <path d="M 12005,19624 a 510,526 0 0 0 -902,-115 480,560 20 0 0 -814,-365 590,460 -40 0 0 -528,-518 590,520 0 0 0 -101,-790 1110,1050 0 1 0 -1178,-1400 c -500,1360 -34,2580 -902,2644 326,622 792,809 1242,-380 -308,516 142,2573 -521,2724 821,506 960,-154 1190,-1812 -61,1133 61,3130 -409,3365 705,324 1023,-213 1293,-2759 -38,1289 129,2917 -242,3175 768,308 993,-583 1003,-2844 l 256,292 c 9,1063 -5,1616 -168,1852 587,196 814,-318 778,-1976 l 150,0 M 8533,18625 c -112,206 -209,398 -427,559 177,-177 256,-351 357,-606 M 9040,19568 c -14,654 -24,1153 -90,1380 57,-229 129,-746 145,-1376 M 9870,20348 c -6,767 -13,1347 -182,1950 163,-578 219,-1091 277,-1950 M 10711,20770 c 0,878 11,1304 -50,1916 85,-609 124,-1033 125,-1916 M 11695,20979 c 8,574 4,981 -46,1140" />
        <path d="M 8564,17992 a 460,460 0 0 0 360,820 400,400 0 0 0 520,912 320,320 0 0 0 780,552 370,320 0 0 0 930,325 420,400 0 0 0 987,59" />
        <g fill="#fec728">
          <path d="M 10535,23962 c -154,-243 -735,21 -414,380 46,-263 221,-291 342,-178 M 10142,24666 c -161,68 -315,349 38,585 -16,-191 2,-400 99,-431 M 10630,25330 c -154,34 -280,513 256,544 -142,-154 -162,-342 -99,-427 M 11870,25240 c 109,120 -38,260 -168,311 515,44 605,-246 370,-417" />
          <path d="M 12148,20378 a 3200,2350 0 0 1 -3056,-3200 365,365 0 1 1 129,-688 400,385 0 1 1 609,250 395,395 0 1 1 -480,600 2919,2069 0 0 0 2798,2757 M 12108,23534 l -902,927 -445,-366 a 190,160 0 1 0 -157,154 l 386,301 -590,0 a 180,160 0 1 0 100,198 l 521,0 -301,380 a 200,170 20 1 0 240,72 l 372,-438 349,335 a 190,160 0 1 0 157,-157 l -407,-390 872,-883" />
        </g>
      </g>
      <use xlink:href="#AdlerRechts" transform="matrix(-1,0,0,1,26600,0)" />
      <g stroke="black" stroke-width="100" stroke-linecap="round" stroke-linejoin="round" fill="#e62518">
        <path d="M 12000,19940 c 0,1028 505,1352 505,1901 0,417 -140,771 -195,1159 l 770,0 0,1864 c -763,1425 -1457,1407 -1652,1115 -258,347 -56,755 239,755 251,0 1092,-395 1382,-1784 -290,1389 -641,2221 -1218,2144 60,208 156,463 408,463 671,0 891,-1366 981,-2607 -89,1241 -294,2567 -554,3100 l 384,-380 250,830 250,-830 384,380 c -260,-533 -465,-1859 -554,-3100 90,1241 310,2607 981,2607 270,0 348,-255 408,-463 -649,77 -928,-755 -1218,-2144 290,1389 1131,1784 1382,1784 295,0 497,-408 239,-755 -195,292 -889,310 -1652,-1115 l 0,-1864 770,0 c -55,-388 -195,-742 -195,-1159 0,-549 505,-873 505,-1901" />
        <path d="M 12922,24517 a 268,268 0 0 0 0,537 h 756 a 268,268 0 0 0 0,-537 z m 378,-1905 l -403,-532 -1325,1074 614,-5 -846,498 815,0 195,580 451,-1044 188,822 311,-523 311,523 188,-822 451,1044 195,-580 815,0 -846,-498 614,5 -1325,-1074 z M 11996,19875 c -14,1307 363,1191 383,1761 l 472,-656 449,656 449,-656 472,656 c 20,-570 397,-454 383,-1761" />
        <path d="M 12526,18712 c -529,716 -672,955 -558,1707 l 527,-568 417,568 388,-568 388,568 417,-568 527,568 c 114,-752 -29,-991 -558,-1707" />
        <path d="M 13073,17649 l -591,987 c -72,196 -322,439 -429,704 256,-224 471,-374 792,-509 189,212 317,390 456,616 139,-226 267,-404 456,-616 320,135 536,284 792,509 -108,-266 -358,-508 -430,-705 l -591,-987" />
        <path d="M 12965,17395 c -323,-262 -513,-703 -759,-899 -315,-251 -299,-326 -269,-481 301,19 513,226 685,503 -172,-277 -384,-484 -685,-503 -105,0 -202,0 -303,0 258,-674 819,0 1219,31 h 250"
              fill="#fec728" />
        <path d="M 12430,18674 c 253,-427 388,-734 441,-1325 149,-68 100,-419 17,-687 -73,-236 -151,-417 -158,-643 77,-130 174,-203 284,-204 411,-4 1029,685 1032,1016 3,356 -237,368 -249,800 -9,350 108,747 368,1042 -265,-296 -478,-597 -870,-874 -392,277 -605,578 -870,874 M 13770,17471 c -222,-42 -328,-139 -404,-392 77,254 188,418 400,495 M 13837,16750 l -245,227 -174,-396" />
        <path d="M 13063,16500 c 2,124 22,238 120,240 291,7 359,-466 -129,-712 z"
              fill="white" />
      </g>
      <circle cx="13207" cy="16550" r="180" />
    </svg>
    <path d="M 115,110 c 17,-5 24,-7 41.5,-3 l 4.5,-28.5 -2,-19.5 -42,-3 -9.5,22 z"
          fill="#8ca6a6" />
    <g stroke="black" stroke-width="1" stroke-linecap="round" stroke-linejoin="round" fill="#fec728">
      <path d="M 156.5,107 l 4.5,-28.5 -2,-19.5 h -12.5 v 41 -21.5 h 14.5 M 148.5,64.5 h 3.5 m 0,2 h -3.5 m 0,2 h 3.5 m 0,2 h -3.5 m 0,2 h 3.5 m 0,2 h -3.5 m 0,2 h 3.5 m 0,4 h -3.5 m 0,2 h 3.5 m 0,2 h -3.5 m 0,2 h 3.5 m 0,2 h -3.5 m 0,2 h 3.5 m 0,2 h -3.5 m 0,2 h 3.5 m 0,2 h -3.5 m 0,2 h 3.5 m 0,2 h -3.5"
            fill="none" />
      <path d="M 110,74 h 29.5 v 8 h -29.5" />
      <path d="M 110,76.5 h 26.5 v 3 h -26.5 m 29.5,-2 h 7 v 1.5 h -7"
            fill="black" />
      <path d="M 117,56 l -9.5,22 7.5,32 3.5,-1.5 c -4,-9 5,-1 2.5,-10.5 -1,2 -2,2 -4,2 l -6,-22 4.5,-9 c 2,-4 4.5,-3 5.5,0 3,-11 -7,-1 -2,-11" />
      <path d="M 115,110 c 17,-5 24,-7 41.5,-3 -3.5,-5 -11.5,-7 -16.5,-7 -8,0 -16,5 -25,10" />
    </g>
    <circle cx="143" cy="65.5" r="1.4" />
    <circle cx="143" cy="69.5" r="1.4" />
    <circle cx="143" cy="73.5" r="1.4" />
    <circle cx="143" cy="83" r="1.4" />
    <circle cx="143" cy="87.5" r="1.4" />
    <circle cx="143" cy="92" r="1.4" />
    <circle cx="143" cy="96.5" r="1.4" />
    <g id="Loch" >
      <circle cx="122" cy="87" r="2.2" />
      <path d="M 123.7,86.6 A 3,3 0 0 0 121.5,88.6 A 1.7,1.7 0 0 0 123.7,86.6"
            fill="#8ca6a6" />
    </g>
    <use x="6.5" y="-0.5" xlink:href="#Loch" />
    <use x="13" y="-1" xlink:href="#Loch" />
    <use x="3.5" y="5" xlink:href="#Loch" />
    <use x="10" y="4.5" xlink:href="#Loch" />
    <use x="7" y="10" xlink:href="#Loch" />
    <path d="M 100.5,41 c -7.5,-8 -16.5,-15 -26,-8.5 10.5,9.5 21.5,21.5 34.5,25.5 16,5 30,3 45,6 19,5 16,11 22,12 4,0 6,-2 9,-4 2,-1 5,-5 4,-8 -0.5,-1.5 -1.5,-3 -3,-5 2,1 3,2 4,4 5,-6 7,-16 -2.5,-20 0.5,4 0.5,7 -1.5,11 1,-14 -4,-21 -9.5,-20 1.5,4.5 2.5,8.5 1,13 -1.5,-11 -4.5,-21 -11.5,-21 2,5 3,8 0.5,14 -0.5,-11 -4.5,-21 -13.5,-20 3,5 4,10 4,15 -4,-11 -11,-24 -18.5,-18 3.5,3 5.5,8 5.5,13 -5,-10 -13,-20 -21.5,-17.5 4.5,4.5 7.5,9.5 8.5,14.5 -7,-10 -14,-22 -23,-16.5 4,3.5 8,7.5 8.5,13.5 -6.5,-9 -16.5,-19 -25.5,-14.5 6,4.5 11,8.5 12,14.5 -10,-12 -24,-20 -30,-14 6,5 13,9 14,15 -14,-12 -23,-20 -35.5,-11 9.5,4 16.5,9 22.5,16.5 9,-4.5 18,-1.5 26.5,10.5" />
    <path d="M 69.5,17.5 c 6,4.5 7.5,8.5 8.5,7.5 0.5,-0.5 0,-2.5 -8.5,-7.5 M 86,15.2 c 6,4.8 7.3,8.6 8.3,7.6 0.5,-0.5 0.2,-2.3 -8.3,-7.6 M 101.9,14.5 c 5.6,4.9 6.8,9 7.9,8.1 0.5,-0.4 0.2,-2.5 -7.9,-8.1 M 117.9,16.1 c 4.4,5.3 4.9,9.2 6,8.5 0.6,-0.3 0.5,-2.2 -6,-8.5 M 132.9,18.9 c 3.2,5.5 2.9,9 4.1,8.6 0.6,-0.2 0.9,-1.9 -4.1,-8.6 M 147.5,23 c 2,5.7 1.2,9 2.3,8.8 0.5,-0.1 1.1,-1.7 -2.3,-8.8 M 160.5,29 c 1.2,4.9 0.3,7.6 1.2,7.5 0.5,-0.1 1,-1.3 -1.2,-7.5 M 171.5,34.2 c 0.9,5.6 -0.6,8.5 0.5,8.6 0.6,0 1.4,-1.4 -0.5,-8.6 M 181.9,43.4 c 0.8,4.6 -0.3,7.1 0.6,7.1 0.4,-0.1 1,-1.2 -0.6,-7.1 M 190.5,50.9 c -0.3,3.8 -1.6,5.6 -0.9,5.7 0.3,0.1 1,-0.7 0.9,-5.7 M 87,37.1 c 6,3.6 7.2,7.3 8.4,6.4 0.9,-0.7 -3.3,-4.4 -8.4,-6.4 M 100.2,33.9 c 4.3,3.2 5,6.3 6,5.6 0.7,-0.5 -2.3,-3.7 -6,-5.6 M 113.4,33.4 c 3.9,3 4.4,5.7 5.3,5.2 0.7,-0.5 -1.9,-3.4 -5.3,-5.2 M 126.5,33.9 c 3.2,3.6 3.2,6.3 4.2,6 0.7,-0.4 -1.3,-3.7 -4.2,-6 M 139.7,36.3 c 2.4,3.9 1.9,6.4 2.9,6.3 0.8,-0.3 -0.5,-3.7 -2.9,-6.3 M 151.1,40.3 c 2.4,3.4 1.9,5.6 2.9,5.5 0.7,-0.3 -0.6,-3.3 -2.9,-5.5 M 161.2,44.4 c 1.9,3.4 1.3,5.5 2.2,5.5 0.7,-0.2 -0.2,-3.2 -2.2,-5.5 M 170.5,49.5 c 1.8,3.2 1,5.1 2,5.2 0.7,-0.2 -0.1,-3 -2,-5.2 M 179.2,54.8 c 1.2,2.9 0.4,4.5 1.2,4.7 0.6,-0.1 0.1,-2.6 -1.2,-4.7 M 91.6,28.8 c 10.1,-1.2 13.8,3.4 19.7,9.8 -4.6,-8 -11.4,-13.1 -19.7,-9.8 M 106.3,28.5 c 10.2,-0.9 11.3,1.9 18,10.1 -4.6,-9.8 -9.8,-13.2 -18,-10.1 M 122.2,28.4 c 8,1.2 10.7,5.3 13.2,11.5 -1.1,-7.9 -6.5,-12.6 -13.2,-11.5 M 134.5,31.8 c 7.1,-0.2 9.4,2.3 13.5,11.6 -1.4,-8.8 -6.9,-14.5 -13.5,-11.6 M 148.9,35.9 c 6,2.3 6.9,5.3 9.3,11.5 -0.3,-7.9 -4.6,-11.2 -9.3,-11.5 M 159.5,40.3 c 4.9,2.4 6.2,4.8 7.6,10.6 0.3,-7.1 -3.6,-9.9 -7.6,-10.6 M 170.2,46.3 c 4,2.2 4.8,4.1 5.9,9.6 0.4,-5.6 -1.5,-8.3 -5.9,-9.6 M 178.7,51.8 c 3.4,1.9 4.1,3.5 5,8.3 0.4,-4.9 -1.2,-7.2 -5,-8.3"
          fill="white" />
    <path d="M 109.4,44.9 c 1.4,0.5 2.7,1.2 3.9,2.2 -2.1,1 -2.9,2.7 -1.3,4.2 2.9,2.6 4,-1.4 7.6,0.6 -2.2,-3.4 1.2,-5.4 -1.5,-7.2 -1.4,-1 -2.9,-0.3 -3.9,1.6 l -3.4,-2.7 z"
          id="Kleeblatt" fill="#fec728" />
    <use x="12.5" y="1.8" xlink:href="#Kleeblatt" />
    <use x="25" y="3.6" xlink:href="#Kleeblatt" />
    <use x="37.5" y="6" xlink:href="#Kleeblatt" />
    <use xlink:href="#Kleeblatt" transform="matrix(0.95,0,0,0.95,54.5,12.5)" />
    <use xlink:href="#Kleeblatt" transform="matrix(0.88,0,0,0.88,73.5,22)" />
  </svg>
</svg>
