<?xml version="1.0" encoding="ISO-8859-1" standalone="no"?>
<!DOCTYPE svg PUBLIC "-//W3C//DTD SVG 1.1//EN" "http://www.w3.org/Graphics/SVG/1.1/DTD/svg11.dtd">
<svg
   xmlns:svg="http://www.w3.org/2000/svg"
   xmlns="http://www.w3.org/2000/svg"
   xmlns:xlink="http://www.w3.org/1999/xlink"
   version="1.1"
   width="572" height="846"
   viewBox="0 0 286 423">
  <title>Wappen des Bezirks Tempelhof-Schöneberg</title>
  <desc>Das Wappen des Berliner Bezirks Tempelhof-Schöneberg</desc>
  <g id="Turm" stroke="black" >
    <path d="M 1.5,1.5 h 15 v 12 h 15 v -12 h 15 v 12 h 15 v -12 h 15 V 24 l -10,8.5 v 71 h -55 v -71 h 55 h -55 l -10,-8.5 z"
          stroke-width="3" fill="#e62518" />
    <path d="M 2,14 H 76 V 24 H 2 M 21,14 V 24 H 39 V 14 H 57 V 24 M 15,24 l 6,8 H 33 L 31,24 H 47 l -2,8 H 57 l 6,-8 M 12,89 H 66 V 75 H 12 V 61 H 66 V 47 H 12 H 39 V 61 H 21 V 47 h 9 V 33 H 48 V 47 h 9 V 61 H 48 V 75 h 9 V 89 H 48 V 103 H 30 V 89 H 21 V 75 h 9 V 61 V 75 h 9 V 89"
          stroke-width="2" fill="none" />
    <path d="M 35,75 h 8 V 58 A 4 4 0 0 0 35,58 z" />
  </g>
  <g id="Mauer" stroke="black" >
    <path d="M 66.5,49.5 h 17 v 11 h 15 v -11 h 17 v 54 h -49 z"
          stroke-width="3" fill="#e62518" />
    <path d="M 67,61 h 48 v 14 h -48 v 14 h 48 M 91,61 v 14 h 10 v 14 M 81,75 v 14 h 10 v 14"
          stroke-width="2" fill="none" />
  </g>
  <use x="104" xlink:href="#Turm" />
  <use x="104" xlink:href="#Mauer" />
  <use x="208" xlink:href="#Turm" />
  <path d="M 122,41 h 42 v 35 A 21 21 0 1 1 122,76 z"
        stroke="black" stroke-width="2" fill="white" />
  <svg id="Baer" x="127" y="44" width="29" height="48.024" viewBox="0 0 2500 4140">
    <path d="M 1522,109 L 1278,118 C 1266,119 1257,125 1257,139 1258,227 1275,284 1338,330 1330,379 1335,404 1386,445 1391,405 1407,387 1432,370 1434,371 1436,371 1437,372 1434,390 1434,409 1438,420 1448,448 1497,449 1510,429 1522,458 1547,459 1567,459 1588,459 1598,444 1605,430 1617,440 1629,451 1640,465 1675,513 1681,575 1681,634 1670,635 1659,636 1648,637 L 1648,613 C 1647,579 1568,573 1550,602 1530,580 1468,584 1468,619 L 1468,630 C 1454,612 1443,593 1434,574 1409,590 1394,602 1398,659 1387,660 1376,661 1366,662 1367,728 1396,746 1632,741 1638,807 1572,844 1523,875 1395,948 1260,1028 1187,1162 1126,1268 1111,1394 1118,1516 L 1188,1485 1196,1523 C 1070,1583 840,1705 689,1775 652,1792 556,1816 536,1782 467,1663 412,1573 332,1482 189,1545 123,1603 69,1736 182,1909 369,2157 679,2159 1000,2161 1279,2043 1340,2025 L 1353,2066 C 1312,2084 1276,2097 1233,2111 1289,2331 1354,2417 1505,2551 L 1474,2574 C 1447,2558 1401,2507 1376,2483 1055,2635 935,2787 858,2944 773,3133 789,3348 825,3547 832,3580 796,3596 769,3586 695,3569 654,3495 583,3468 551,3454 512,3441 477,3446 395,3563 405,3622 416,3769 524,3822 640,3835 760,3897 839,3929 915,3981 1005,3967 1056,3962 1107,3927 1112,3873 1157,3679 1220,3473 1368,3333 1439,3263 1531,3207 1622,3164 1586,3026 1559,2888 1562,2744 L 1606,2742 C 1638,3290 1784,3405 2041,3660 2067,3686 2065,3735 2027,3750 1977,3775 1918,3777 1861,3779 1851,3921 1884,4060 1936,4117 2094,4114 2258,3989 2353,3868 2393,3818 2441,3768 2479,3719 2526,3658 2475,3587 2461,3531 2422,3371 2404,2911 2402,2847 L 2458,2848 2466,2732 C 2299,2525 2326,2201 2257,1992 2230,1907 2200,1819 2200,1729 2200,1607 2338,1378 2335,1174 2334,1088 2286,976 2287,925 2288,777 2373,809 2371,501 2370,416 2360,353 2338,266 2487,109 2282,-48 2164,50 2069,25 2057,0 1871,0 1712,0 1621,43 1522,109 z M 1234,1026 C 942,940 735,901 619,813 502,724 550,533 413,424 286,420 210,477 156,548 375,885 83,967 1074,1533 1070,1220 1129,1155 1234,1026 z M 1839,299 C 1824,299 1797,291 1789,280 1702,147 1680,195 1667,241 1656,282 1608,283 1622,228 1657,93 1752,112 1870,299 z M 2116,164 C 2140,132 2177,101 2217,88 2276,68 2300,116 2253,132 2214,146 2181,173 2153,201 z M 1349,337 C 1364,346 1385,357 1416,366 1399,380 1383,400 1378,422 1351,403 1340,368 1349,337 z M 1509,390 C 1509,403 1506,416 1502,422 1492,438 1455,437 1447,415 1444,406 1444,390 1448,375 1468,380 1489,384 1509,390 z M 1521,393 C 1548,401 1574,410 1597,425 1592,437 1583,449 1565,449 1549,449 1531,448 1521,429 1516,419 1518,405 1521,393 z M 1467,653 L 1408,658 C 1405,630 1408,606 1430,590 1441,610 1453,629 1467,646 z M 1477,652.5 V 621 C 1477,588 1547,590 1548,621 V 646 z M 1557,645 V 617 C 1557,584 1638,586 1638,616 V 638 z" />
    <g fill="#e62518">
      <path d="M 1178,378 c 1,256 379,130 499,191 -2,-16 -5,-32 -10,-48 -61,-22 -148,-7 -241,-22 -187,-30 -210,-83 -210,-122 -1,-41 -38,-43 -38,1" />
      <g id="Krallen">
        <path d="M 329,3474 s 35,-13 110,26 c 36,18 58,-51 28,-60 -92,-29 -138,34 -138,34"
              id="Kralle" />
        <use xlink:href="#Kralle" transform="translate(-25,63)" />
        <use xlink:href="#Kralle" transform="translate(-44,128)" />
        <use xlink:href="#Kralle" transform="translate(-46,197)" />
        <use xlink:href="#Kralle" transform="translate(-37,267)" />
      </g>
      <use xlink:href="#Krallen" transform="matrix(0.98585,-0.362747,0.362747,0.98585,152.8742,556.3228)" />
      <use xlink:href="#Krallen" transform="matrix(0.662705,0.948407,-0.717713,0.895796,2492.198,-2039.701)" />
      <use xlink:href="#Krallen" transform="matrix(0.500922,0.739494,-0.739494,0.500922,2724.41,-1655.876)" />
    </g>
  </svg>
  <svg id="Wappenschild" x="10" y="102" width="266" height="321">
    <defs>
      <clipPath id="cpSchild">
        <path d="M 3,3 H 263 V 188 A 130 130 0 0 1 3,188 z" />
      </clipPath>
    </defs>
    <path d="M 1.5,1.5 h 263 V 188 a 131.5,131.5 0 0 1 -263,0 z"
          stroke="black" stroke-width="3" fill="#fec728" />
    <g clip-path="url(#cpSchild)">
      <rect width="133" height="321" fill="white" />
      <rect x="127" width="13" height="321" stroke="black" stroke-width="1" fill="#00901e" />
      <path d="M -54,428 A 187,187 0 0 1 100.5,244 a 34.5,34.5 0 0 1 65,0 A 187,187 0 0 1 320,428"
            stroke="black" stroke-width="1" fill="#00901e" />
    </g>
    <g stroke="black" stroke-width="1" fill="#e62518" >
      <path d="M 48.75,22 c 4,8 4,8 4,19 l 0,49 -25,0 c -11,0 -11,0 -19,-4 l 0,32 c 8,-4 8,-4 19,-4 l 25,0 0,99 c 0,11 0,11 -4,19 l 32,0 c -4,-8 -4,-8 -4,-19 l 0,-99 25,0 c 11,0 11,0 19,4 l 0,-32 c -8,4 -8,4 -19,4 l -25,0 0,-49 c 0,-11 0,-11 4,-19 z" />
      <svg width="266" height="321" viewBox="0 0 26600 32100">
        <g stroke-width="100" stroke-linecap="round" stroke-linejoin="round" fill-rule="nonzero" >
          <path d="M 16338,13771 c -346,-402 -987,-1362 -1353,-1362 -613,0 -664,885 -664,2480 0,996 84,2200 279,2759 l 743,-786 c -190,-396 -452,-906 -454,-1257 -2,-177 292,-37 427,-18 -99,-410 -288,-708 -288,-1222 0,-501 2,-792 184,-786 180,6 224,934 506,1100 m -854,2687 c -130,-213 -214,-457 -255,-721 m 6514,3312 c 266,970 588,1645 1210,2112 924,693 930,1308 924,1985 -12,1351 -930,1252 -1454,2070 363,170 608,310 913,509 345,-476 623,-1213 879,-1213 136,1 183,38 314,115 282,-651 61,-803 78,-1482 26,-992 334,-1047 331,-1368 -4,-496 -533,-18 -700,-637 -338,-1254 32,-1163 8,-1942 -17,-548 -95,-1468 -497,-1572 m -922,7793 c 122,-230 257,-398 391,-516 M 18660,5560 c -169,-1 -195,176 -184,483 15,725 1101,1548 1289,1545 300,-4 592,-1099 1866,-2217 1333,-1169 2461,-2668 2497,-3682 16,-459 27,-959 -247,-959 -395,1 -23,1802 -611,1807 -559,5 -178,-1223 -371,-1220 -248,4 -381,351 -373,639 22,783 516,1165 179,1576 -336,409 -507,143 -674,-179 -256,-491 69,-885 -129,-995 -146,-81 -422,266 -414,776 11,693 641,847 82,1375 -341,323 -449,28 -568,-360 -125,-405 36,-710 -190,-795 -226,-86 -317,235 -326,712 -13,720 564,1077 70,1421 -186,129 -333,44 -539,-221 -381,-491 0,-984 -305,-1000 -261,-14 -396,407 -386,846 17,789 722,830 411,1212 -250,307 -372,254 -623,-35 -280,-323 -278,-728 -454,-729 z" />
          <path d="M 18646,9655 c -452,214 -917,554 -1242,907 l 556,-21 c -546,53 -1261,574 -1580,1104 l 719,-242 c -860,296 -964,806 -1210,1372 l 543,-190 c -622,224 -636,701 -716,1180 l 557,-255 c -627,291 -640,817 -694,1472 l 529,-570 c -607,632 -316,1098 -130,1593 l 284,-745 c -192,470 -174,1007 0,1149 360,295 1501,329 2119,701 520,312 1078,662 1336,1192 88,-247 178,-368 206,-614 -28,246 -118,367 -206,614 -223,624 -726,1227 -718,1608 12,544 504,1161 500,1670 -5,586 -426,1116 -849,1652 -258,326 -1141,297 -1721,1217 l 1094,255 c 133,-299 354,-702 599,-736 141,-20 285,146 388,250 266,-404 472,-697 684,-1033 316,-501 845,-511 974,-815 134,-313 -143,-878 128,-1328 395,-658 809,-724 1246,-927 287,-133 644,-305 617,-1156 12,433 58,779 44,1125 458,-202 904,-628 909,-1164 14,-1711 -2831,-3289 -2843,-4845 -9,-1339 195,-2049 189,-3092 -5,-907 -169,-3029 -433,-3414 -128,-186 -872,-133 -1447,-117 -957,19 -1343,431 -1609,624 -830,603 -1093,297 -1078,1157 360,-11 979,-34 979,109 1,309 -692,214 -688,421 4,205 97,232 623,178 230,-24 211,-373 765,-400 516,-26 1032,520 1737,-177 M 17204,24482 c 164,-223 346,-375 550,-535 M 18981,8227 c -177,-226 -525,-226 -702,0 z " />
          <path d="M 17133,15371 c -918,1663 -1207,4699 -1420,5119 -334,657 -880,652 -1568,1705 315,81 604,205 868,350 246,-408 738,-1141 915,-1165 121,-16 265,53 411,145 105,-1381 538,-2155 794,-2765 808,-1923 1159,-1495 1529,-2619 m -4167,6160 c 138,-245 284,-468 480,-685 m -480,685 c 138,-245 284,-468 480,-685 M 20281,8048 c 667,-274 1114,-302 1925,641 -893,536 -1360,667 -2078,0 m 854,11 c -486,0 -531,-400 6,-400 M 20221,5325 c -418,59 -512,860 -222,2182 220,20 317,65 482,147 556,-31 2514,-582 3390,-1390 1322,-1219 1468,-1512 1868,-3143 109,-446 35,-1331 -177,-1309 -313,32 56,1556 -345,1584 -477,33 -207,-980 -372,-1000 -246,-31 -372,529 -319,796 118,595 292,1289 80,1540 -341,405 -502,196 -575,-159 -69,-333 129,-624 -44,-770 -128,-107 -451,156 -416,664 46,692 449,951 0,1212 -406,236 -438,-67 -523,-424 -105,-444 228,-693 27,-850 -204,-159 -590,421 -478,885 167,694 152,852 -266,1080 -252,138 -395,-39 -567,-417 -236,-519 98,-1036 -75,-1115 -211,-96 -618,658 -500,1054 138,461 355,735 -238,1053 -222,119 -489,-76 -602,-442 -197,-638 155,-1198 -128,-1178 z" />
        </g>
      </svg>
    </g>
  </svg>
</svg>
