<svg width="1134" height="756" viewBox="0 0 1134 756" fill="none" xmlns="http://www.w3.org/2000/svg">
<g clip-path="url(#clip0_1_472)">
<path d="M0.0032959 0V755.906H1133.85V0H0.0032959ZM7.56328 7.55999H755.909V370.399H7.56328V7.55999ZM1126.29 748.346H7.56328V377.946H1126.29V748.346ZM1126.29 370.399H763.469V7.55999H1126.29V370.399Z" fill="#1D1D1B"/>
<path d="M647.402 128V211.253C647.402 212.333 646.682 212.693 646.136 211.613L598.669 127.293C598.38 126.85 597.985 126.486 597.519 126.234C597.053 125.983 596.532 125.852 596.002 125.853H575.602C575.317 125.842 575.032 125.89 574.766 125.994C574.5 126.097 574.258 126.255 574.055 126.456C573.852 126.658 573.693 126.899 573.588 127.164C573.483 127.43 573.433 127.714 573.442 128V249.546C573.431 249.833 573.479 250.119 573.584 250.386C573.689 250.653 573.847 250.896 574.05 251.099C574.253 251.302 574.496 251.46 574.763 251.565C575.03 251.669 575.316 251.717 575.602 251.706H593.229C593.516 251.717 593.802 251.669 594.069 251.565C594.336 251.46 594.579 251.302 594.782 251.099C594.984 250.896 595.143 250.653 595.248 250.386C595.352 250.119 595.4 249.833 595.389 249.546V166.48C595.389 165.4 596.109 165.04 596.656 166.12L644.162 250.266C644.451 250.71 644.847 251.074 645.313 251.325C645.778 251.577 646.3 251.708 646.829 251.706H667.202C667.488 251.716 667.774 251.666 668.04 251.561C668.306 251.455 668.548 251.297 668.75 251.094C668.953 250.892 669.112 250.65 669.217 250.384C669.322 250.117 669.372 249.832 669.362 249.546V128C669.372 127.714 669.322 127.429 669.217 127.162C669.112 126.896 668.953 126.654 668.75 126.452C668.548 126.249 668.306 126.091 668.04 125.985C667.774 125.88 667.488 125.83 667.202 125.84H649.562C649.276 125.829 648.99 125.877 648.723 125.981C648.455 126.086 648.213 126.245 648.01 126.447C647.807 126.65 647.648 126.893 647.544 127.16C647.439 127.427 647.391 127.713 647.402 128ZM520.256 251.706H538.069C538.356 251.717 538.642 251.669 538.909 251.565C539.176 251.46 539.419 251.302 539.622 251.099C539.824 250.896 539.983 250.653 540.088 250.386C540.192 250.119 540.24 249.833 540.229 249.546V128C540.24 127.713 540.192 127.427 540.088 127.16C539.983 126.893 539.824 126.65 539.622 126.447C539.419 126.245 539.176 126.086 538.909 125.981C538.642 125.877 538.356 125.829 538.069 125.84H520.256C519.97 125.83 519.685 125.88 519.418 125.985C519.152 126.091 518.91 126.249 518.708 126.452C518.505 126.654 518.347 126.896 518.241 127.162C518.136 127.429 518.087 127.714 518.096 128V249.546C518.087 249.832 518.136 250.117 518.241 250.384C518.347 250.65 518.505 250.892 518.708 251.094C518.91 251.297 519.152 251.455 519.418 251.561C519.685 251.666 519.97 251.716 520.256 251.706ZM449.216 229.773V128C449.225 127.714 449.176 127.429 449.07 127.162C448.965 126.896 448.806 126.654 448.604 126.452C448.402 126.249 448.16 126.091 447.893 125.985C447.627 125.88 447.342 125.83 447.056 125.84H429.243C428.956 125.829 428.67 125.877 428.403 125.981C428.136 126.086 427.893 126.245 427.69 126.447C427.487 126.65 427.329 126.893 427.224 127.16C427.12 127.427 427.071 127.713 427.083 128V249.546C427.071 249.833 427.12 250.119 427.224 250.386C427.329 250.653 427.487 250.896 427.69 251.099C427.893 251.302 428.136 251.46 428.403 251.565C428.67 251.669 428.956 251.717 429.243 251.706H490.576C490.863 251.717 491.148 251.669 491.416 251.565C491.683 251.46 491.925 251.302 492.128 251.099C492.331 250.896 492.49 250.653 492.594 250.386C492.699 250.119 492.747 249.833 492.736 249.546V233.013C492.747 232.726 492.699 232.44 492.594 232.173C492.49 231.906 492.331 231.663 492.128 231.461C491.925 231.258 491.683 231.099 491.416 230.994C491.148 230.89 490.863 230.842 490.576 230.853H450.296C450.153 230.86 450.011 230.838 449.877 230.787C449.744 230.737 449.622 230.659 449.52 230.558C449.419 230.458 449.339 230.337 449.287 230.204C449.234 230.071 449.21 229.929 449.216 229.786M332.816 146.666H349.203C363.776 146.666 375.469 154.4 375.469 170.4C375.469 186.4 363.776 194.133 349.016 194.133H332.816C332.674 194.137 332.532 194.111 332.4 194.058C332.268 194.005 332.149 193.925 332.049 193.824C331.949 193.723 331.871 193.602 331.819 193.47C331.768 193.337 331.744 193.195 331.749 193.053V147.72C331.73 147.575 331.743 147.428 331.79 147.289C331.837 147.151 331.915 147.025 332.018 146.922C332.121 146.818 332.247 146.74 332.386 146.694C332.524 146.647 332.671 146.633 332.816 146.653M374.576 251.653H397.243C399.043 251.653 399.589 250.386 398.509 248.986L371.509 212.493C371.407 212.371 371.333 212.226 371.295 212.071C371.257 211.915 371.256 211.753 371.29 211.597C371.325 211.441 371.396 211.295 371.496 211.171C371.596 211.046 371.724 210.947 371.869 210.88C387.869 204.4 398.536 190.2 398.536 170.426C398.536 142.426 377.296 125.826 350.309 125.826H311.763C311.476 125.817 311.189 125.867 310.922 125.973C310.655 126.079 310.413 126.239 310.21 126.443C310.007 126.647 309.849 126.89 309.744 127.158C309.64 127.426 309.592 127.713 309.603 128V249.546C309.594 249.832 309.643 250.117 309.748 250.384C309.854 250.65 310.012 250.892 310.215 251.094C310.417 251.297 310.659 251.455 310.925 251.561C311.192 251.666 311.477 251.716 311.763 251.706H329.589C329.876 251.716 330.161 251.666 330.427 251.561C330.693 251.455 330.935 251.297 331.137 251.094C331.34 250.892 331.499 250.65 331.604 250.384C331.709 250.117 331.759 249.832 331.749 249.546V216.12C331.742 215.977 331.764 215.834 331.815 215.701C331.866 215.567 331.944 215.446 332.044 215.344C332.145 215.242 332.265 215.163 332.398 215.11C332.531 215.058 332.673 215.034 332.816 215.04H346.496C347.049 215.09 347.564 215.347 347.936 215.76L372.003 250.28C372.258 250.721 372.625 251.087 373.068 251.34C373.511 251.593 374.013 251.724 374.523 251.72M276.843 144.56V128C276.852 127.714 276.803 127.429 276.697 127.162C276.592 126.896 276.433 126.654 276.231 126.452C276.028 126.249 275.787 126.091 275.52 125.985C275.254 125.88 274.969 125.83 274.683 125.84H209.23C208.944 125.83 208.658 125.88 208.392 125.985C208.126 126.091 207.884 126.249 207.682 126.452C207.479 126.654 207.32 126.896 207.215 127.162C207.11 127.429 207.06 127.714 207.07 128V249.546C207.06 249.832 207.11 250.117 207.215 250.384C207.32 250.65 207.479 250.892 207.682 251.094C207.884 251.297 208.126 251.455 208.392 251.561C208.658 251.666 208.944 251.716 209.23 251.706H274.736C275.022 251.716 275.307 251.666 275.574 251.561C275.84 251.455 276.082 251.297 276.284 251.094C276.487 250.892 276.645 250.65 276.751 250.384C276.856 250.117 276.906 249.832 276.896 249.546V233.013C276.906 232.727 276.856 232.442 276.751 232.176C276.645 231.909 276.487 231.667 276.284 231.465C276.082 231.263 275.84 231.104 275.574 230.998C275.307 230.893 275.022 230.844 274.736 230.853H230.11C229.967 230.86 229.824 230.838 229.691 230.787C229.557 230.737 229.436 230.659 229.334 230.558C229.232 230.458 229.153 230.337 229.1 230.204C229.048 230.071 229.024 229.929 229.03 229.786V199.573C229.024 199.43 229.048 199.287 229.1 199.153C229.153 199.02 229.232 198.898 229.333 198.797C229.435 198.695 229.556 198.616 229.69 198.564C229.823 198.511 229.966 198.487 230.11 198.493H274.736C275.023 198.504 275.309 198.456 275.576 198.352C275.843 198.247 276.086 198.088 276.289 197.885C276.491 197.683 276.65 197.44 276.755 197.173C276.859 196.906 276.907 196.62 276.896 196.333V180C276.906 179.714 276.856 179.429 276.751 179.162C276.645 178.896 276.487 178.654 276.284 178.452C276.082 178.249 275.84 178.09 275.574 177.985C275.307 177.88 275.022 177.83 274.736 177.84H230.11C229.964 177.862 229.815 177.85 229.675 177.804C229.535 177.759 229.407 177.681 229.302 177.577C229.197 177.474 229.118 177.347 229.071 177.207C229.023 177.068 229.009 176.919 229.03 176.773V147.786C229.024 147.644 229.048 147.501 229.1 147.368C229.153 147.235 229.232 147.115 229.334 147.015C229.436 146.914 229.557 146.836 229.691 146.785C229.824 146.735 229.967 146.712 230.11 146.72H274.736C275.022 146.729 275.307 146.679 275.574 146.574C275.84 146.469 276.082 146.31 276.284 146.108C276.487 145.905 276.645 145.663 276.751 145.397C276.856 145.131 276.906 144.846 276.896 144.56M136.603 230.853H117.523C117.38 230.86 117.238 230.838 117.104 230.787C116.971 230.737 116.849 230.659 116.748 230.558C116.646 230.458 116.566 230.337 116.514 230.204C116.461 230.071 116.437 229.929 116.443 229.786V199.573C116.423 199.426 116.438 199.277 116.485 199.137C116.532 198.997 116.611 198.87 116.716 198.766C116.82 198.661 116.947 198.582 117.088 198.535C117.228 198.487 117.377 198.473 117.523 198.493H136.603C148.296 198.493 154.776 205.16 154.776 214.68C154.776 224.2 148.296 230.853 136.603 230.853ZM134.803 146.666C146.136 146.666 152.43 152.773 152.43 162.12C152.43 171.466 146.136 177.76 134.803 177.76H117.47C117.324 177.782 117.175 177.77 117.035 177.724C116.895 177.679 116.767 177.601 116.662 177.497C116.557 177.394 116.478 177.267 116.431 177.127C116.383 176.988 116.369 176.839 116.39 176.693V147.786C116.369 147.64 116.383 147.492 116.431 147.352C116.478 147.212 116.557 147.086 116.662 146.982C116.767 146.878 116.895 146.801 117.035 146.755C117.175 146.71 117.324 146.698 117.47 146.72L134.803 146.666ZM161.07 186.213C165.578 183.46 169.283 179.568 171.81 174.929C174.338 170.29 175.6 165.068 175.47 159.786C175.47 140.546 162.136 125.8 137.683 125.8H96.6432C96.3541 125.79 96.0661 125.841 95.7977 125.948C95.5293 126.056 95.2863 126.219 95.0843 126.426C94.8822 126.633 94.7256 126.88 94.6244 127.151C94.5232 127.422 94.4797 127.711 94.4965 128V249.546C94.4854 249.832 94.5332 250.116 94.6369 250.383C94.7407 250.649 94.8982 250.891 95.0996 251.094C95.301 251.296 95.542 251.455 95.8076 251.561C96.0732 251.666 96.3576 251.716 96.6432 251.706H139.31C164.51 251.706 177.816 236.413 177.816 216.28C177.816 203.16 171.523 193.266 161.083 187.693C160.363 187.16 160.363 186.613 161.083 186.253" fill="#1D1D1B"/>
<path d="M1000.42 296.213C1000.42 296.213 993.815 252.386 990.682 233.906L992.015 233.626C992.645 233.491 993.233 233.208 993.732 232.801C994.232 232.394 994.628 231.875 994.888 231.286C995.148 230.697 995.265 230.054 995.229 229.411C995.193 228.768 995.006 228.143 994.682 227.586C987.268 214.666 984.588 198.666 984.588 182.666C984.604 173.134 986.208 163.671 989.335 154.666C989.508 154.16 989.682 153.666 989.869 153.16L990.242 152.08C993.72 144.282 995.969 135.993 996.908 127.506C997.903 115.992 996.024 104.41 991.442 93.7998C991.242 93.4398 991.042 93.0799 990.828 92.7332C992.177 91.335 993.022 89.5277 993.229 87.5963C993.437 85.6649 992.996 83.7194 991.975 82.0665C989.535 77.8532 984.522 76.1732 980.775 78.3332C980.389 78.5599 979.442 79.2132 979.042 79.5199C978.362 79.0132 977.962 78.7599 977.962 78.7599C977.962 78.7599 976.908 78.0665 976.002 77.5999C976.002 77.5999 975.655 77.4265 975.655 77.4132C971.721 75.6755 967.463 74.7894 963.162 74.8132C961.012 74.8125 958.867 75.0314 956.762 75.4665C952.372 76.3817 948.232 78.2377 944.629 80.9065C943.379 81.2889 942.091 81.5348 940.789 81.6399L935.722 81.8799C933.335 81.9732 930.615 81.8799 930.615 81.8799C930.047 81.8763 929.5 82.0968 929.093 82.4936C928.686 82.8905 928.452 83.4316 928.442 83.9999C928.442 84.1065 929.229 91.0665 929.229 91.0932C929.275 91.9485 929.513 92.7823 929.927 93.5326C930.34 94.2829 930.917 94.9303 931.615 95.4265L931.789 95.5465C932.135 95.7324 932.414 96.0213 932.589 96.3732C933.067 97.7424 933.916 98.9519 935.042 99.8665C935.389 100.08 935.935 99.9732 936.029 99.5865C937.002 95.7865 939.269 99.8798 943.575 97.5465C944.682 96.9465 945.269 99.6398 944.802 100.813L944.402 101.827C943.964 102.94 943.241 103.918 942.305 104.663C941.368 105.407 940.252 105.891 939.069 106.066C937.162 106.346 936.069 106.533 936.095 106.8C936.322 108.946 936.095 110.8 938.255 112.133C938.556 112.302 938.874 112.44 939.202 112.546C942.549 113.426 952.322 117.173 939.895 131.826C939.156 132.679 938.462 133.569 937.815 134.493C937.55 134.866 937.323 135.263 937.135 135.68L936.869 136.2L899.535 122.24C898.245 121.637 897.126 120.72 896.282 119.573L892.602 113.253C891.744 111.833 890.536 110.657 889.093 109.838C887.65 109.018 886.021 108.583 884.362 108.573C882.631 108.437 880.893 108.437 879.162 108.573C878.055 108.573 877.415 108.893 877.175 109.546C876.871 111.154 877.16 112.816 877.989 114.226L881.189 120.106C881.469 120.52 885.509 129.56 885.509 129.56C885.917 130.671 886.612 131.656 887.522 132.413L925.815 161.333L885.429 181.48C884.852 181.792 884.22 181.987 883.567 182.054C882.915 182.12 882.256 182.056 881.629 181.866L878.015 180.773C871.349 177.826 866.429 179.88 863.509 182.32L862.375 183.4C862.134 183.616 861.952 183.891 861.846 184.197C861.74 184.503 861.712 184.831 861.767 185.15C861.822 185.47 861.956 185.77 862.158 186.024C862.36 186.277 862.623 186.475 862.922 186.6C862.922 186.6 869.295 190.346 870.709 191.306L880.629 197.186C882.172 198.079 883.989 198.373 885.735 198.013L924.949 190.106C925.573 199.409 927.155 208.622 929.669 217.6C919.296 227.775 912.313 240.899 909.669 255.186C907.775 265.773 908.335 275.36 911.282 286.64C905.802 286.946 900.522 287.746 896.135 290.8C891.749 293.853 891.095 298.88 891.069 301.466L921.735 301.533H924.322C925.247 301.482 926.132 301.14 926.85 300.556C927.569 299.972 928.084 299.175 928.322 298.28C928.595 297.238 928.787 296.177 928.895 295.106C929.865 286.916 932.299 278.968 936.082 271.64C939.372 265.495 943.476 259.822 948.282 254.773C957.625 267.648 969.403 278.565 982.949 286.906C978.517 287.208 974.187 288.372 970.202 290.333C968.258 291.503 966.652 293.158 965.539 295.135C964.427 297.112 963.846 299.344 963.855 301.613H995.575C996.6 301.615 997.601 301.296 998.435 300.7C999.27 300.105 999.897 299.263 1000.23 298.293C1000.29 298.092 1000.35 297.887 1000.39 297.68C1000.39 297.533 1000.39 297.373 1000.39 297.226C1000.44 296.891 1000.45 296.55 1000.42 296.213Z" fill="#1D1D1B"/>
<path d="M123.67 450.453C127.073 452.337 129.853 455.173 131.67 458.613C133.555 462.439 134.536 466.647 134.536 470.913C134.536 475.178 133.555 479.386 131.67 483.213C129.856 486.658 127.075 489.498 123.67 491.386C120.071 493.334 116.028 494.317 111.936 494.239H98.0032C97.9125 494.253 97.8199 494.245 97.7329 494.216C97.6459 494.187 97.5668 494.139 97.5019 494.074C97.4371 494.009 97.3884 493.93 97.3597 493.843C97.3309 493.756 97.323 493.663 97.3365 493.573V448.239C97.3258 448.149 97.3357 448.058 97.3654 447.972C97.3951 447.886 97.4439 447.808 97.508 447.744C97.5722 447.68 97.6501 447.631 97.7359 447.602C97.8217 447.572 97.913 447.562 98.0032 447.573H112.003C116.076 447.509 120.095 448.501 123.67 450.453ZM102.67 489.506H111.736C114.91 489.572 118.05 488.843 120.87 487.386C123.54 485.951 125.715 483.744 127.11 481.053C128.577 477.876 129.336 474.418 129.336 470.919C129.336 467.42 128.577 463.963 127.11 460.786C125.727 458.086 123.549 455.876 120.87 454.453C118.052 452.987 114.912 452.249 111.736 452.306H102.67C102.443 452.306 102.336 452.426 102.336 452.653V489.186C102.27 489.399 102.376 489.506 102.67 489.506Z" fill="#1D1D1B"/>
<path d="M148.443 492.986C146.072 491.664 144.135 489.681 142.87 487.279C141.563 484.643 140.883 481.741 140.883 478.799C140.883 475.857 141.563 472.955 142.87 470.319C144.095 467.956 145.968 465.99 148.27 464.653C150.612 463.341 153.252 462.652 155.936 462.652C158.621 462.652 161.261 463.341 163.603 464.653C165.849 465.963 167.693 467.862 168.936 470.146C170.249 472.567 170.915 475.286 170.87 478.039C170.875 478.551 170.853 479.063 170.803 479.573C170.78 479.73 170.699 479.874 170.576 479.975C170.452 480.076 170.296 480.128 170.136 480.119H146.67C146.136 480.119 145.936 480.399 146.07 480.973C146.267 483.634 147.428 486.133 149.336 487.999C151.32 489.765 153.909 490.696 156.563 490.599C158.22 490.597 159.857 490.246 161.369 489.568C162.881 488.89 164.233 487.901 165.336 486.666C165.83 486.173 166.203 486.079 166.47 486.399L168.67 488.786C168.741 488.833 168.8 488.898 168.84 488.973C168.881 489.049 168.902 489.133 168.902 489.219C168.902 489.305 168.881 489.39 168.84 489.465C168.8 489.541 168.741 489.605 168.67 489.653C167.119 491.31 165.251 492.639 163.176 493.559C160.839 494.552 158.309 495.01 155.772 494.902C153.235 494.794 150.754 494.121 148.51 492.933L148.443 492.986ZM165.67 475.453C165.321 473.094 164.156 470.933 162.376 469.346C160.591 467.805 158.294 466.987 155.936 467.053C153.549 466.999 151.228 467.841 149.43 469.413C147.636 470.983 146.468 473.146 146.136 475.506V475.853C146.136 476.119 146.363 476.239 146.803 476.239H165.07C165.603 476.239 165.803 475.999 165.67 475.453Z" fill="#1D1D1B"/>
<path d="M192.936 462.666C193.336 462.666 193.536 462.893 193.536 463.333V466.879C193.536 467.279 193.376 467.479 193.07 467.479C192.747 467.475 192.425 467.44 192.11 467.373C191.811 467.313 191.508 467.281 191.203 467.279C189.746 467.241 188.304 467.583 187.018 468.27C185.733 468.957 184.648 469.967 183.87 471.199C183.542 471.697 183.379 472.284 183.403 472.879V493.533C183.417 493.623 183.409 493.716 183.38 493.803C183.351 493.89 183.302 493.969 183.238 494.034C183.173 494.099 183.094 494.147 183.007 494.176C182.92 494.205 182.827 494.213 182.736 494.199H179.203C179.112 494.213 179.02 494.205 178.933 494.176C178.846 494.147 178.767 494.099 178.702 494.034C178.637 493.969 178.588 493.89 178.56 493.803C178.531 493.716 178.523 493.623 178.536 493.533V463.999C178.523 463.909 178.531 463.816 178.56 463.729C178.588 463.642 178.637 463.563 178.702 463.498C178.767 463.433 178.846 463.385 178.933 463.356C179.02 463.327 179.112 463.319 179.203 463.333H182.403C182.494 463.319 182.586 463.327 182.673 463.356C182.76 463.385 182.839 463.433 182.904 463.498C182.969 463.563 183.018 463.642 183.047 463.729C183.075 463.816 183.083 463.909 183.07 463.999V466.399C183.07 466.573 183.07 466.679 183.203 466.719C183.336 466.759 183.403 466.719 183.536 466.599C184.543 465.329 185.834 464.312 187.304 463.629C188.774 462.946 190.383 462.616 192.003 462.666C192.314 462.649 192.625 462.649 192.936 462.666Z" fill="#1D1D1B"/>
<path d="M220.87 494.239H217.336C217.246 494.253 217.153 494.245 217.066 494.216C216.979 494.187 216.9 494.139 216.835 494.074C216.77 494.009 216.722 493.93 216.693 493.843C216.664 493.756 216.656 493.663 216.67 493.573V448.239C216.659 448.149 216.669 448.058 216.699 447.972C216.728 447.886 216.777 447.808 216.841 447.744C216.905 447.68 216.983 447.631 217.069 447.602C217.155 447.572 217.246 447.562 217.336 447.573H230.336C233.313 447.525 236.259 448.178 238.936 449.479C241.408 450.694 243.481 452.591 244.91 454.946C246.394 457.501 247.142 460.418 247.07 463.373C247.209 466.842 246.113 470.249 243.976 472.986C241.795 475.577 238.873 477.438 235.603 478.319C235.11 478.439 235.03 478.693 235.336 479.053L246.936 493.453C246.986 493.506 247.024 493.569 247.047 493.638C247.07 493.707 247.077 493.78 247.07 493.853C247.07 494.119 246.896 494.239 246.536 494.239H241.87C241.652 494.249 241.435 494.218 241.23 494.146C241.036 494.041 240.868 493.896 240.736 493.719L229.67 479.573C229.544 479.401 229.385 479.256 229.203 479.146C229.012 479.072 228.807 479.04 228.603 479.053H221.936C221.71 479.053 221.603 479.159 221.603 479.373V493.573C221.62 493.67 221.612 493.77 221.58 493.864C221.548 493.957 221.493 494.041 221.42 494.108C221.347 494.174 221.258 494.221 221.162 494.244C221.065 494.267 220.965 494.265 220.87 494.239ZM221.536 452.653V473.986C221.536 474.213 221.643 474.333 221.87 474.333H229.803C232.921 474.454 235.985 473.488 238.47 471.599C240.736 469.768 241.87 467.013 241.87 463.333C241.87 459.653 240.736 456.893 238.47 455.053C235.976 453.188 232.913 452.245 229.803 452.386H221.87C221.643 452.306 221.536 452.426 221.536 452.653Z" fill="#1D1D1B"/>
<path d="M259.91 492.986C257.538 491.664 255.602 489.681 254.336 487.279C253.03 484.643 252.35 481.741 252.35 478.799C252.35 475.857 253.03 472.955 254.336 470.319C255.561 467.956 257.435 465.99 259.736 464.653C262.079 463.341 264.718 462.652 267.403 462.652C270.087 462.652 272.727 463.341 275.07 464.653C277.316 465.963 279.16 467.862 280.403 470.146C281.716 472.567 282.382 475.286 282.336 478.039C282.342 478.551 282.319 479.063 282.27 479.573C282.247 479.73 282.165 479.874 282.042 479.975C281.919 480.076 281.762 480.128 281.603 480.119H258.07C257.536 480.119 257.336 480.399 257.47 480.973C257.698 483.644 258.898 486.14 260.843 487.986C262.827 489.751 265.416 490.683 268.07 490.586C269.715 490.587 271.341 490.243 272.845 489.577C274.35 488.911 275.698 487.938 276.803 486.719C277.296 486.226 277.67 486.133 277.936 486.453L280.136 488.839C280.208 488.887 280.266 488.951 280.307 489.027C280.348 489.102 280.369 489.187 280.369 489.273C280.369 489.358 280.348 489.443 280.307 489.519C280.266 489.594 280.208 489.658 280.136 489.706C278.586 491.363 276.717 492.692 274.643 493.613C272.305 494.605 269.776 495.064 267.239 494.955C264.702 494.847 262.221 494.174 259.976 492.986H259.91ZM277.136 475.453C276.789 473.091 275.618 470.928 273.83 469.346C272.054 467.798 269.758 466.979 267.403 467.053C265.015 466.999 262.694 467.841 260.896 469.413C259.103 470.983 257.934 473.146 257.603 475.506V475.853C257.603 476.119 257.83 476.239 258.27 476.239H276.536C277.07 476.239 277.336 475.999 277.136 475.453Z" fill="#1D1D1B"/>
<path d="M296.003 506.666C294.034 505.805 292.264 504.548 290.803 502.973C290.739 502.913 290.688 502.84 290.654 502.76C290.619 502.68 290.601 502.593 290.601 502.506C290.601 502.418 290.619 502.332 290.654 502.252C290.688 502.171 290.739 502.099 290.803 502.039L293.07 499.573C293.118 499.493 293.187 499.426 293.269 499.381C293.35 499.335 293.442 499.311 293.536 499.311C293.63 499.311 293.722 499.335 293.804 499.381C293.886 499.426 293.954 499.493 294.003 499.573C296.072 501.759 298.852 503.137 301.846 503.459C304.839 503.782 307.849 503.028 310.336 501.333C311.242 500.511 311.948 499.492 312.399 498.355C312.849 497.217 313.033 495.992 312.936 494.773V490.159C312.946 490.091 312.931 490.021 312.894 489.963C312.858 489.904 312.802 489.861 312.736 489.839C312.603 489.839 312.443 489.839 312.27 490.039C310.983 491.234 309.472 492.161 307.824 492.765C306.176 493.37 304.423 493.64 302.67 493.559C300.034 493.591 297.436 492.928 295.136 491.639C292.881 490.353 291.033 488.459 289.803 486.173C288.475 483.666 287.81 480.862 287.87 478.026C287.821 475.23 288.511 472.47 289.87 470.026C291.145 467.748 293.029 465.869 295.31 464.599C297.638 463.296 300.268 462.629 302.936 462.666C304.72 462.571 306.503 462.854 308.169 463.498C309.835 464.141 311.346 465.13 312.603 466.399C312.79 466.573 312.923 466.639 313.043 466.599C313.163 466.559 313.203 466.413 313.203 466.199V463.999C313.202 463.912 313.219 463.825 313.253 463.745C313.288 463.664 313.339 463.592 313.403 463.533C313.461 463.467 313.533 463.415 313.614 463.381C313.695 463.346 313.782 463.33 313.87 463.333H317.136C317.227 463.319 317.319 463.327 317.406 463.356C317.494 463.384 317.573 463.433 317.637 463.498C317.702 463.563 317.751 463.642 317.78 463.729C317.808 463.816 317.816 463.909 317.803 463.999V495.199C317.898 496.982 317.577 498.762 316.864 500.398C316.151 502.034 315.066 503.482 313.696 504.626C310.65 506.972 306.871 508.163 303.03 507.986C300.62 508.052 298.224 507.602 296.003 506.666ZM309.003 487.906C310.501 487.113 311.766 485.94 312.67 484.506C312.894 484.146 313.01 483.73 313.003 483.306V472.973C313.022 472.543 312.906 472.118 312.67 471.759C311.758 470.331 310.496 469.16 309.003 468.359C307.336 467.496 305.479 467.065 303.603 467.106C302.167 467.05 300.734 467.292 299.396 467.818C298.058 468.344 296.844 469.141 295.83 470.159C293.904 472.38 292.845 475.22 292.845 478.159C292.845 481.098 293.904 483.939 295.83 486.159C296.841 487.182 298.055 487.983 299.393 488.511C300.732 489.039 302.165 489.283 303.603 489.226C305.49 489.23 307.347 488.757 309.003 487.853V487.906Z" fill="#1D1D1B"/>
<path d="M327.829 455.013C327.485 454.681 327.21 454.284 327.022 453.844C326.834 453.404 326.737 452.931 326.736 452.453C326.733 451.978 326.828 451.507 327.017 451.071C327.205 450.635 327.482 450.243 327.829 449.919C328.165 449.578 328.565 449.307 329.008 449.124C329.45 448.941 329.924 448.848 330.403 448.853C330.865 448.85 331.323 448.944 331.748 449.128C332.172 449.311 332.554 449.581 332.869 449.919C333.211 450.246 333.482 450.64 333.666 451.075C333.849 451.511 333.941 451.98 333.936 452.453C333.937 452.929 333.843 453.4 333.66 453.84C333.477 454.279 333.208 454.678 332.869 455.013C332.558 455.359 332.178 455.637 331.753 455.827C331.329 456.018 330.868 456.117 330.403 456.119C329.921 456.119 329.445 456.021 329.002 455.831C328.56 455.641 328.161 455.362 327.829 455.013ZM327.829 493.573V463.999C327.816 463.909 327.824 463.816 327.853 463.729C327.881 463.642 327.93 463.563 327.995 463.498C328.06 463.433 328.139 463.385 328.226 463.356C328.313 463.327 328.405 463.319 328.496 463.333H332.029C332.12 463.319 332.213 463.327 332.3 463.356C332.387 463.385 332.466 463.433 332.531 463.498C332.596 463.563 332.644 463.642 332.673 463.729C332.702 463.816 332.71 463.909 332.696 463.999V493.586C332.71 493.677 332.702 493.769 332.673 493.856C332.644 493.943 332.596 494.022 332.531 494.087C332.466 494.152 332.387 494.201 332.3 494.229C332.213 494.258 332.12 494.266 332.029 494.253H328.536C328.444 494.267 328.35 494.259 328.262 494.229C328.174 494.2 328.094 494.15 328.029 494.083C327.964 494.017 327.915 493.936 327.887 493.847C327.86 493.758 327.854 493.664 327.869 493.573H327.829Z" fill="#1D1D1B"/>
<path d="M348.243 492.986C345.871 491.664 343.935 489.681 342.669 487.279C341.363 484.643 340.683 481.741 340.683 478.799C340.683 475.857 341.363 472.955 342.669 470.319C343.877 467.965 345.726 466 348.003 464.653C350.345 463.341 352.985 462.652 355.669 462.652C358.354 462.652 360.994 463.341 363.336 464.653C365.585 465.959 367.43 467.859 368.669 470.146C369.982 472.567 370.648 475.286 370.603 478.039C370.615 478.551 370.593 479.064 370.536 479.573C370.513 479.73 370.432 479.874 370.309 479.975C370.185 480.076 370.029 480.128 369.869 480.119H346.403C345.869 480.119 345.669 480.399 345.803 480.973C346.031 483.644 347.232 486.14 349.176 487.986C351.16 489.751 353.749 490.683 356.403 490.586C358.048 490.587 359.675 490.243 361.179 489.577C362.683 488.911 364.031 487.938 365.136 486.719C365.629 486.226 366.003 486.133 366.269 486.453L368.469 488.839C368.541 488.887 368.6 488.951 368.64 489.027C368.681 489.102 368.702 489.187 368.702 489.273C368.702 489.358 368.681 489.443 368.64 489.519C368.6 489.594 368.541 489.658 368.469 489.706C366.919 491.363 365.051 492.692 362.976 493.613C360.902 494.511 358.663 494.966 356.403 494.946C353.559 495.013 350.746 494.337 348.243 492.986ZM365.469 475.453C365.121 473.094 363.956 470.933 362.176 469.346C360.391 467.805 358.094 466.987 355.736 467.053C353.349 466.999 351.027 467.841 349.229 469.413C347.436 470.983 346.267 473.146 345.936 475.506L345.869 475.853C345.869 476.119 346.096 476.239 346.536 476.239H364.869C365.403 476.239 365.603 475.999 365.469 475.453Z" fill="#1D1D1B"/>
<path d="M392.736 462.666C393.136 462.666 393.336 462.893 393.336 463.333V466.879C393.336 467.279 393.189 467.479 392.869 467.479C392.547 467.475 392.225 467.44 391.909 467.373C391.611 467.313 391.307 467.281 391.003 467.279C389.546 467.241 388.103 467.583 386.818 468.27C385.532 468.957 384.447 469.967 383.669 471.199C383.347 471.699 383.184 472.285 383.203 472.879V493.533C383.216 493.623 383.208 493.716 383.18 493.803C383.151 493.89 383.102 493.969 383.037 494.034C382.972 494.099 382.893 494.147 382.806 494.176C382.719 494.205 382.627 494.213 382.536 494.199H379.003C378.912 494.213 378.82 494.205 378.732 494.176C378.645 494.147 378.566 494.099 378.502 494.034C378.437 493.969 378.388 493.89 378.359 493.803C378.331 493.716 378.323 493.623 378.336 493.533V463.999C378.323 463.909 378.331 463.816 378.359 463.729C378.388 463.642 378.437 463.563 378.502 463.498C378.566 463.433 378.645 463.385 378.732 463.356C378.82 463.327 378.912 463.319 379.003 463.333H382.203C382.293 463.319 382.386 463.327 382.473 463.356C382.56 463.385 382.639 463.433 382.704 463.498C382.769 463.563 382.818 463.642 382.846 463.729C382.875 463.816 382.883 463.909 382.869 463.999V466.399C382.869 466.573 382.869 466.679 383.003 466.719C383.136 466.759 383.203 466.719 383.336 466.599C384.337 465.339 385.616 464.328 387.074 463.646C388.531 462.963 390.127 462.628 391.736 462.666C392.069 462.646 392.403 462.646 392.736 462.666Z" fill="#1D1D1B"/>
<path d="M403.763 492.986C401.398 491.659 399.467 489.678 398.203 487.279C396.896 484.643 396.216 481.741 396.216 478.799C396.216 475.857 396.896 472.955 398.203 470.319C399.412 467.966 401.261 466.002 403.536 464.653C405.881 463.341 408.523 462.653 411.209 462.653C413.896 462.653 416.538 463.341 418.883 464.653C421.132 465.959 422.977 467.859 424.216 470.146C425.529 472.567 426.195 475.286 426.149 478.039C426.177 478.55 426.177 479.062 426.149 479.573C426.126 479.73 426.045 479.874 425.922 479.975C425.799 480.076 425.642 480.128 425.483 480.119H401.936C401.403 480.119 401.203 480.399 401.336 480.973C401.565 483.644 402.765 486.139 404.709 487.986C406.693 489.751 409.282 490.683 411.936 490.586C413.581 490.587 415.208 490.244 416.712 489.578C418.217 488.912 419.565 487.938 420.669 486.719C421.163 486.226 421.536 486.133 421.803 486.453L424.003 488.839C424.077 488.884 424.139 488.948 424.182 489.024C424.224 489.1 424.247 489.185 424.247 489.273C424.247 489.36 424.224 489.445 424.182 489.521C424.139 489.597 424.077 489.661 424.003 489.706C422.455 491.366 420.586 492.695 418.509 493.613C416.435 494.51 414.196 494.964 411.936 494.946C409.088 495.011 406.272 494.336 403.763 492.986ZM421.003 475.453C420.654 473.094 419.489 470.933 417.709 469.346C415.882 467.851 413.591 467.039 411.231 467.052C408.87 467.064 406.587 467.899 404.776 469.413C402.979 470.981 401.805 473.144 401.469 475.506L401.403 475.853C401.403 476.119 401.629 476.239 402.069 476.239H420.403C420.936 476.239 421.136 475.999 421.003 475.453Z" fill="#1D1D1B"/>
<path d="M438.069 494.239H434.536C434.445 494.253 434.353 494.245 434.266 494.216C434.179 494.187 434.1 494.139 434.035 494.074C433.97 494.009 433.921 493.93 433.892 493.843C433.864 493.756 433.856 493.663 433.869 493.573V463.999C433.856 463.909 433.864 463.816 433.892 463.729C433.921 463.642 433.97 463.563 434.035 463.498C434.1 463.433 434.179 463.384 434.266 463.356C434.353 463.327 434.445 463.319 434.536 463.333H437.736C437.827 463.319 437.919 463.327 438.006 463.356C438.093 463.384 438.172 463.433 438.237 463.498C438.302 463.563 438.351 463.642 438.38 463.729C438.408 463.816 438.416 463.909 438.403 463.999V466.199C438.403 466.373 438.403 466.479 438.576 466.519C438.749 466.559 438.803 466.519 438.936 466.319C439.927 465.19 441.127 464.262 442.469 463.586C443.893 462.945 445.442 462.631 447.003 462.666C448.41 462.579 449.82 462.79 451.141 463.284C452.462 463.778 453.664 464.544 454.669 465.533C455.585 466.512 456.299 467.663 456.768 468.919C457.237 470.176 457.453 471.512 457.403 472.853V493.586C457.416 493.677 457.408 493.769 457.379 493.856C457.351 493.943 457.302 494.022 457.237 494.087C457.172 494.152 457.093 494.201 457.006 494.229C456.919 494.258 456.827 494.266 456.736 494.253H453.203C453.112 494.266 453.019 494.258 452.932 494.229C452.845 494.201 452.766 494.152 452.701 494.087C452.637 494.022 452.588 493.943 452.559 493.856C452.53 493.769 452.522 493.677 452.536 493.586V473.653C452.603 472.754 452.49 471.852 452.204 470.998C451.917 470.144 451.464 469.356 450.869 468.679C450.228 468.082 449.472 467.622 448.646 467.329C447.821 467.035 446.944 466.914 446.069 466.973C444.655 466.962 443.268 467.355 442.069 468.106C440.81 468.93 439.778 470.058 439.069 471.386C438.857 471.799 438.743 472.255 438.736 472.719V493.506C438.762 493.601 438.764 493.702 438.741 493.798C438.718 493.894 438.671 493.983 438.604 494.056C438.538 494.129 438.454 494.184 438.36 494.216C438.267 494.248 438.167 494.256 438.069 494.239Z" fill="#1D1D1B"/>
<path d="M491.069 445.986H494.669C494.76 445.972 494.852 445.98 494.939 446.009C495.027 446.038 495.106 446.087 495.17 446.151C495.235 446.216 495.284 446.295 495.313 446.382C495.341 446.469 495.349 446.562 495.336 446.653V493.573C495.349 493.663 495.341 493.756 495.313 493.843C495.284 493.93 495.235 494.009 495.17 494.074C495.106 494.139 495.027 494.187 494.939 494.216C494.852 494.245 494.76 494.253 494.669 494.239H491.336C491.245 494.253 491.153 494.245 491.066 494.216C490.979 494.187 490.899 494.139 490.835 494.074C490.77 494.009 490.721 493.93 490.692 493.843C490.664 493.756 490.656 493.663 490.669 493.573V491.253C490.669 491.026 490.669 490.906 490.496 490.879C490.323 490.853 490.256 490.879 490.069 491.106C487.803 493.653 484.509 494.906 480.203 494.906C477.489 494.943 474.816 494.243 472.469 492.879C470.158 491.52 468.267 489.55 467.003 487.186C465.688 484.579 465.002 481.699 465.002 478.779C465.002 475.859 465.688 472.98 467.003 470.373C468.267 468.009 470.158 466.039 472.469 464.679C474.816 463.316 477.489 462.615 480.203 462.653C481.957 462.575 483.71 462.847 485.358 463.454C487.006 464.06 488.517 464.989 489.803 466.186C489.976 466.359 490.123 466.426 490.229 466.386C490.336 466.346 490.403 466.199 490.403 465.986V446.666C490.387 446.574 490.393 446.48 490.421 446.391C490.448 446.303 490.497 446.222 490.562 446.155C490.627 446.089 490.707 446.039 490.795 446.009C490.883 445.98 490.977 445.972 491.069 445.986ZM486.403 489.186C487.948 488.344 489.238 487.1 490.136 485.586C490.312 485.253 490.403 484.882 490.403 484.506V473.039C490.401 472.667 490.31 472.301 490.136 471.973C489.241 470.46 487.95 469.22 486.403 468.386C484.726 467.476 482.843 467.017 480.936 467.053C479.449 466.989 477.966 467.243 476.587 467.8C475.207 468.356 473.962 469.202 472.936 470.279C470.97 472.676 469.895 475.679 469.895 478.779C469.895 481.879 470.97 484.883 472.936 487.279C473.959 488.361 475.203 489.211 476.583 489.77C477.964 490.329 479.448 490.584 480.936 490.519C482.842 490.548 484.724 490.089 486.403 489.186Z" fill="#1D1D1B"/>
<path d="M510.096 492.986C507.731 491.659 505.801 489.678 504.536 487.279C503.238 484.641 502.563 481.74 502.563 478.799C502.563 475.859 503.238 472.958 504.536 470.319C505.761 467.956 507.634 465.99 509.936 464.653C512.278 463.341 514.918 462.652 517.603 462.652C520.287 462.652 522.927 463.341 525.269 464.653C527.518 465.959 529.363 467.859 530.603 470.146C531.916 472.567 532.581 475.286 532.536 478.039C532.563 478.55 532.563 479.062 532.536 479.573C532.516 479.732 532.435 479.877 532.311 479.979C532.187 480.081 532.029 480.131 531.869 480.119H508.269C507.736 480.119 507.536 480.399 507.669 480.973C507.898 483.644 509.098 486.14 511.043 487.986C513.027 489.751 515.615 490.683 518.269 490.586C519.914 490.587 521.541 490.244 523.046 489.578C524.55 488.912 525.898 487.938 527.003 486.719C527.496 486.226 527.869 486.133 528.136 486.453L530.336 488.839C530.41 488.884 530.472 488.948 530.515 489.024C530.557 489.1 530.58 489.185 530.58 489.273C530.58 489.36 530.557 489.445 530.515 489.521C530.472 489.597 530.41 489.661 530.336 489.706C528.788 491.366 526.919 492.695 524.843 493.613C522.768 494.51 520.529 494.964 518.269 494.946C515.421 495.011 512.605 494.336 510.096 492.986ZM527.336 475.453C526.985 473.082 525.804 470.913 524.003 469.333C522.176 467.837 519.885 467.026 517.524 467.038C515.163 467.05 512.881 467.885 511.069 469.399C509.272 470.968 508.098 473.131 507.763 475.493L507.696 475.839C507.696 476.106 507.923 476.226 508.363 476.226H526.696C527.269 476.239 527.469 475.999 527.336 475.453Z" fill="#1D1D1B"/>
<path d="M580.002 449.173C581.93 450.168 583.528 451.701 584.602 453.586C585.662 455.527 586.199 457.709 586.162 459.919C586.185 461.964 585.655 463.977 584.629 465.746C583.645 467.461 582.217 468.88 580.496 469.853C580.056 470.106 580.056 470.359 580.496 470.573C582.518 471.576 584.216 473.129 585.395 475.053C586.574 476.978 587.187 479.196 587.162 481.453C587.22 483.16 586.918 484.861 586.275 486.444C585.632 488.027 584.662 489.456 583.429 490.639C580.936 493.053 577.429 494.239 572.896 494.239H559.429C559.339 494.253 559.246 494.245 559.159 494.216C559.072 494.187 558.993 494.139 558.928 494.074C558.863 494.009 558.814 493.93 558.786 493.843C558.757 493.756 558.749 493.663 558.763 493.573V448.239C558.752 448.149 558.762 448.058 558.791 447.972C558.821 447.886 558.87 447.808 558.934 447.744C558.998 447.68 559.076 447.631 559.162 447.602C559.248 447.572 559.339 447.562 559.429 447.573H572.762C575.27 447.513 577.754 448.062 580.002 449.173ZM563.696 452.653V467.786C563.696 467.999 563.802 468.106 564.029 468.106H572.162C574.545 468.279 576.904 467.541 578.762 466.039C579.536 465.293 580.139 464.389 580.531 463.387C580.922 462.386 581.092 461.312 581.029 460.239C581.088 459.163 580.916 458.086 580.525 457.081C580.134 456.076 579.533 455.167 578.762 454.413C576.914 452.89 574.551 452.135 572.162 452.306H564.002C563.776 452.306 563.669 452.426 563.669 452.653H563.696ZM563.696 473.186V489.186C563.696 489.399 563.802 489.506 564.029 489.506H572.429C575.009 489.697 577.568 488.917 579.602 487.319C581.16 485.654 582.027 483.459 582.027 481.179C582.027 478.899 581.16 476.704 579.602 475.039C577.567 473.442 575.01 472.658 572.429 472.839H564.002C563.776 472.839 563.669 472.959 563.669 473.186H563.696Z" fill="#1D1D1B"/>
<path d="M614.736 463.319H618.269C618.36 463.306 618.452 463.314 618.539 463.342C618.626 463.371 618.705 463.42 618.77 463.485C618.835 463.55 618.884 463.629 618.913 463.716C618.941 463.803 618.949 463.895 618.936 463.986V493.573C618.949 493.663 618.941 493.756 618.913 493.843C618.884 493.93 618.835 494.009 618.77 494.074C618.705 494.139 618.626 494.187 618.539 494.216C618.452 494.245 618.36 494.253 618.269 494.239H615.069C614.978 494.253 614.886 494.245 614.799 494.216C614.712 494.187 614.633 494.139 614.568 494.074C614.503 494.009 614.454 493.93 614.426 493.843C614.397 493.756 614.389 493.663 614.402 493.573V491.386C614.402 491.199 614.402 491.093 614.242 491.039C614.082 490.986 613.976 491.039 613.802 491.253C612.823 492.434 611.588 493.377 610.19 494.01C608.793 494.643 607.269 494.949 605.736 494.906C604.335 494.993 602.932 494.784 601.618 494.292C600.304 493.8 599.109 493.037 598.109 492.053C596.29 490.054 595.331 487.419 595.442 484.719V463.999C595.429 463.909 595.437 463.816 595.466 463.729C595.494 463.642 595.543 463.563 595.608 463.498C595.673 463.433 595.752 463.385 595.839 463.356C595.926 463.327 596.018 463.319 596.109 463.333H599.642C599.733 463.319 599.826 463.327 599.913 463.356C600 463.385 600.079 463.433 600.144 463.498C600.208 463.563 600.257 463.642 600.286 463.729C600.315 463.816 600.323 463.909 600.309 463.999V483.919C600.245 484.817 600.36 485.719 600.646 486.572C600.932 487.426 601.384 488.214 601.976 488.893C602.617 489.49 603.373 489.949 604.199 490.243C605.025 490.537 605.901 490.658 606.776 490.599C608.19 490.61 609.577 490.217 610.776 489.466C612.032 488.643 613.063 487.521 613.776 486.199C613.997 485.761 614.111 485.277 614.109 484.786V463.999C614.095 463.911 614.1 463.821 614.126 463.736C614.151 463.65 614.196 463.572 614.257 463.506C614.317 463.441 614.391 463.39 614.474 463.358C614.558 463.325 614.647 463.312 614.736 463.319ZM598.136 455.013C597.797 454.678 597.528 454.279 597.345 453.84C597.162 453.4 597.068 452.929 597.069 452.453C597.069 451.498 597.448 450.582 598.123 449.907C598.799 449.232 599.714 448.853 600.669 448.853C601.624 448.853 602.539 449.232 603.215 449.907C603.89 450.582 604.269 451.498 604.269 452.453C604.27 452.929 604.176 453.4 603.993 453.84C603.81 454.279 603.541 454.678 603.202 455.013C602.879 455.362 602.487 455.64 602.051 455.83C601.615 456.021 601.145 456.119 600.669 456.119C600.193 456.119 599.723 456.021 599.287 455.83C598.851 455.64 598.459 455.362 598.136 455.013ZM611.269 455.013C610.93 454.678 610.661 454.279 610.478 453.84C610.295 453.4 610.201 452.929 610.202 452.453C610.201 451.741 610.411 451.046 610.806 450.454C611.201 449.862 611.762 449.401 612.42 449.13C613.077 448.858 613.801 448.788 614.498 448.929C615.195 449.07 615.835 449.414 616.336 449.919C616.68 450.244 616.953 450.637 617.136 451.073C617.32 451.51 617.411 451.979 617.402 452.453C617.406 452.929 617.314 453.402 617.131 453.842C616.947 454.282 616.677 454.68 616.336 455.013C616.012 455.362 615.621 455.64 615.185 455.83C614.749 456.021 614.278 456.119 613.802 456.119C613.327 456.119 612.856 456.021 612.42 455.83C611.984 455.64 611.592 455.362 611.269 455.013Z" fill="#1D1D1B"/>
<path d="M643.469 462.666C643.869 462.666 644.069 462.893 644.069 463.333V466.879C644.069 467.279 643.909 467.479 643.602 467.479C643.28 467.476 642.958 467.44 642.642 467.373C642.344 467.312 642.04 467.281 641.736 467.279C640.278 467.241 638.836 467.583 637.551 468.27C636.265 468.957 635.18 469.967 634.402 471.199C634.08 471.699 633.917 472.285 633.936 472.879V493.533C633.949 493.623 633.941 493.716 633.913 493.803C633.884 493.89 633.835 493.969 633.77 494.034C633.705 494.099 633.626 494.147 633.539 494.176C633.452 494.205 633.36 494.213 633.269 494.199H629.736C629.645 494.213 629.552 494.205 629.465 494.176C629.378 494.147 629.299 494.099 629.234 494.034C629.17 493.969 629.121 493.89 629.092 493.803C629.063 493.716 629.056 493.623 629.069 493.533V463.999C629.056 463.909 629.063 463.816 629.092 463.729C629.121 463.642 629.17 463.563 629.234 463.498C629.299 463.433 629.378 463.384 629.465 463.356C629.552 463.327 629.645 463.319 629.736 463.333H632.936C633.026 463.319 633.119 463.327 633.206 463.356C633.293 463.384 633.372 463.433 633.437 463.498C633.502 463.563 633.55 463.642 633.579 463.729C633.608 463.816 633.616 463.909 633.602 463.999V466.399C633.602 466.573 633.602 466.679 633.736 466.719C633.869 466.759 633.936 466.719 634.069 466.599C635.069 465.338 636.349 464.327 637.806 463.644C639.264 462.962 640.86 462.627 642.469 462.666C642.802 462.647 643.136 462.647 643.469 462.666Z" fill="#1D1D1B"/>
<path d="M655.269 506.666C653.3 505.805 651.53 504.548 650.069 502.973C650.005 502.913 649.954 502.84 649.92 502.76C649.885 502.68 649.867 502.593 649.867 502.506C649.867 502.418 649.885 502.332 649.92 502.252C649.954 502.171 650.005 502.099 650.069 502.039L652.336 499.573C652.384 499.493 652.453 499.426 652.535 499.381C652.616 499.335 652.709 499.311 652.802 499.311C652.896 499.311 652.988 499.335 653.07 499.381C653.152 499.426 653.22 499.493 653.269 499.573C655.338 501.759 658.119 503.137 661.112 503.459C664.105 503.782 667.115 503.028 669.602 501.333C670.508 500.511 671.214 499.492 671.665 498.355C672.115 497.217 672.299 495.992 672.202 494.773V490.159C672.212 490.091 672.197 490.021 672.161 489.963C672.124 489.904 672.068 489.861 672.002 489.839C671.869 489.839 671.709 489.839 671.536 490.039C670.25 491.234 668.738 492.161 667.09 492.765C665.442 493.37 663.689 493.64 661.936 493.559C659.3 493.589 656.702 492.927 654.402 491.639C652.147 490.353 650.299 488.459 649.069 486.173C647.741 483.666 647.076 480.862 647.136 478.026C647.088 475.23 647.777 472.47 649.136 470.026C650.411 467.748 652.295 465.869 654.576 464.599C656.905 463.298 659.535 462.631 662.202 462.666C663.986 462.571 665.769 462.854 667.435 463.498C669.101 464.141 670.612 465.13 671.869 466.399C672.056 466.573 672.189 466.639 672.309 466.599C672.429 466.559 672.469 466.413 672.469 466.199V463.999C672.468 463.912 672.485 463.825 672.52 463.745C672.554 463.664 672.605 463.592 672.669 463.533C672.727 463.467 672.799 463.415 672.88 463.381C672.961 463.346 673.048 463.33 673.136 463.333H676.402C676.493 463.319 676.586 463.327 676.673 463.356C676.76 463.384 676.839 463.433 676.904 463.498C676.968 463.563 677.017 463.642 677.046 463.729C677.075 463.816 677.082 463.909 677.069 463.999V495.199C677.164 496.98 676.844 498.759 676.133 500.395C675.423 502.031 674.342 503.479 672.976 504.626C669.927 506.968 666.149 508.158 662.309 507.986C659.895 508.054 657.494 507.604 655.269 506.666ZM668.269 487.906C669.768 487.113 671.032 485.94 671.936 484.506C672.16 484.146 672.276 483.73 672.269 483.306V472.973C672.288 472.543 672.172 472.118 671.936 471.759C671.024 470.331 669.762 469.16 668.269 468.359C666.602 467.496 664.745 467.065 662.869 467.106C661.433 467.05 660 467.292 658.662 467.818C657.324 468.344 656.11 469.141 655.096 470.159C653.171 472.38 652.111 475.22 652.111 478.159C652.111 481.098 653.171 483.939 655.096 486.159C656.107 487.182 657.321 487.983 658.659 488.511C659.998 489.039 661.431 489.283 662.869 489.226C664.756 489.23 666.613 488.757 668.269 487.853V487.906Z" fill="#1D1D1B"/>
<path d="M692.496 492.986C690.131 491.659 688.2 489.678 686.936 487.279C685.633 484.642 684.955 481.74 684.955 478.799C684.955 475.858 685.633 472.956 686.936 470.319C688.169 467.961 690.04 465.998 692.336 464.653C694.68 463.341 697.322 462.653 700.009 462.653C702.696 462.653 705.337 463.341 707.682 464.653C709.931 465.959 711.777 467.859 713.016 470.146C714.329 472.567 714.995 475.286 714.949 478.039C714.954 478.551 714.932 479.063 714.882 479.573C714.859 479.73 714.778 479.874 714.655 479.975C714.531 480.076 714.375 480.128 714.216 480.119H690.669C690.136 480.119 689.936 480.399 690.069 480.973C690.299 483.641 691.493 486.134 693.429 487.986C695.42 489.748 698.012 490.679 700.669 490.586C702.314 490.587 703.941 490.244 705.445 489.578C706.95 488.912 708.297 487.938 709.402 486.719C709.896 486.226 710.269 486.133 710.536 486.453L712.736 488.839C712.81 488.884 712.872 488.948 712.914 489.024C712.957 489.1 712.98 489.185 712.98 489.273C712.98 489.36 712.957 489.445 712.914 489.521C712.872 489.597 712.81 489.661 712.736 489.706C711.187 491.366 709.319 492.695 707.242 493.613C705.168 494.51 702.929 494.964 700.669 494.946C697.821 495.011 695.004 494.336 692.496 492.986ZM709.736 475.453C709.387 473.094 708.222 470.933 706.442 469.346C704.615 467.851 702.324 467.039 699.964 467.052C697.603 467.064 695.32 467.899 693.509 469.413C691.712 470.981 690.538 473.144 690.202 475.506V475.853C690.202 476.119 690.429 476.239 690.869 476.239H709.202C709.669 476.239 709.869 475.999 709.736 475.453Z" fill="#1D1D1B"/>
<path d="M737.002 462.666C737.402 462.666 737.602 462.893 737.602 463.333V466.879C737.602 467.279 737.442 467.479 737.135 467.479C736.813 467.475 736.491 467.44 736.176 467.373C735.877 467.312 735.573 467.281 735.269 467.279C733.812 467.243 732.37 467.585 731.085 468.272C729.8 468.959 728.715 469.968 727.936 471.199C727.613 471.699 727.451 472.285 727.469 472.879V493.533C727.482 493.623 727.474 493.716 727.446 493.803C727.417 493.89 727.368 493.969 727.303 494.034C727.239 494.099 727.16 494.147 727.073 494.176C726.985 494.205 726.893 494.213 726.802 494.199H723.269C723.178 494.213 723.086 494.205 722.999 494.176C722.912 494.147 722.832 494.099 722.768 494.034C722.703 493.969 722.654 493.89 722.625 493.803C722.597 493.716 722.589 493.623 722.602 493.533V463.999C722.589 463.909 722.597 463.816 722.625 463.729C722.654 463.642 722.703 463.563 722.768 463.498C722.832 463.433 722.912 463.385 722.999 463.356C723.086 463.327 723.178 463.319 723.269 463.333H726.469C726.56 463.319 726.652 463.327 726.739 463.356C726.826 463.385 726.905 463.433 726.97 463.498C727.035 463.563 727.084 463.642 727.112 463.729C727.141 463.816 727.149 463.909 727.136 463.999V466.399C727.136 466.573 727.136 466.679 727.269 466.719C727.402 466.759 727.469 466.719 727.602 466.599C728.603 465.339 729.883 464.328 731.34 463.646C732.798 462.963 734.393 462.628 736.002 462.666C736.335 462.646 736.669 462.646 737.002 462.666Z" fill="#1D1D1B"/>
<path d="M748.002 494.239H744.469C744.378 494.253 744.286 494.245 744.199 494.216C744.111 494.187 744.032 494.139 743.968 494.074C743.903 494.009 743.854 493.93 743.825 493.843C743.797 493.756 743.789 493.663 743.802 493.573V463.999C743.789 463.909 743.797 463.816 743.825 463.729C743.854 463.642 743.903 463.563 743.968 463.498C744.032 463.433 744.111 463.384 744.199 463.356C744.286 463.327 744.378 463.319 744.469 463.333H747.669C747.759 463.319 747.852 463.327 747.939 463.356C748.026 463.384 748.105 463.433 748.17 463.498C748.235 463.563 748.284 463.642 748.312 463.729C748.341 463.816 748.349 463.909 748.335 463.999V466.199C748.335 466.373 748.335 466.479 748.509 466.519C748.682 466.559 748.735 466.519 748.869 466.319C749.849 465.139 751.085 464.198 752.482 463.565C753.879 462.932 755.402 462.625 756.935 462.666C758.849 462.609 760.745 463.046 762.442 463.933C763.939 464.744 765.191 465.941 766.069 467.399C766.255 467.706 766.469 467.706 766.735 467.399C767.858 466.009 769.211 464.823 770.735 463.893C772.259 463.034 773.988 462.61 775.735 462.666C777.139 462.577 778.546 462.787 779.862 463.281C781.179 463.775 782.377 464.542 783.375 465.533C785.188 467.53 786.145 470.158 786.042 472.853V493.586C786.056 493.677 786.048 493.769 786.019 493.856C785.99 493.943 785.941 494.022 785.877 494.087C785.812 494.152 785.733 494.201 785.646 494.229C785.559 494.258 785.466 494.266 785.375 494.253H781.842C781.751 494.266 781.659 494.258 781.572 494.229C781.485 494.201 781.406 494.152 781.341 494.087C781.276 494.022 781.227 493.943 781.199 493.856C781.17 493.769 781.162 493.677 781.175 493.586V473.653C781.245 472.752 781.13 471.847 780.839 470.992C780.548 470.137 780.086 469.35 779.482 468.679C778.834 468.085 778.072 467.627 777.243 467.333C776.413 467.04 775.533 466.917 774.655 466.973C773.224 466.966 771.819 467.363 770.603 468.118C769.386 468.872 768.406 469.954 767.775 471.239C767.5 471.727 767.362 472.28 767.375 472.839V493.573C767.389 493.663 767.381 493.756 767.352 493.843C767.324 493.93 767.275 494.009 767.21 494.074C767.145 494.139 767.066 494.187 766.979 494.216C766.892 494.245 766.799 494.253 766.709 494.239H763.175C763.085 494.253 762.992 494.245 762.905 494.216C762.818 494.187 762.739 494.139 762.674 494.074C762.609 494.009 762.561 493.93 762.532 493.843C762.503 493.756 762.495 493.663 762.509 493.573V473.653C762.576 472.754 762.463 471.852 762.176 470.998C761.89 470.144 761.437 469.356 760.842 468.679C760.201 468.082 759.444 467.622 758.619 467.329C757.793 467.035 756.916 466.914 756.042 466.973C754.628 466.962 753.24 467.355 752.042 468.106C750.783 468.93 749.751 470.058 749.042 471.386C748.816 471.837 748.702 472.335 748.709 472.839V493.573C748.724 493.667 748.716 493.764 748.685 493.855C748.655 493.946 748.602 494.028 748.532 494.093C748.463 494.159 748.378 494.207 748.285 494.232C748.193 494.258 748.096 494.26 748.002 494.239Z" fill="#1D1D1B"/>
<path d="M801.109 492.986C798.737 491.664 796.801 489.681 795.536 487.279C794.175 484.658 793.492 481.738 793.549 478.786C793.479 475.844 794.153 472.932 795.509 470.319C796.716 467.965 798.565 466 800.842 464.653C803.185 463.341 805.824 462.652 808.509 462.652C811.193 462.652 813.833 463.341 816.175 464.653C818.424 465.959 820.27 467.859 821.509 470.146C822.822 472.567 823.488 475.286 823.442 478.039C823.47 478.55 823.47 479.062 823.442 479.573C823.422 479.729 823.344 479.873 823.223 479.974C823.102 480.075 822.947 480.127 822.789 480.119H799.269C798.736 480.119 798.536 480.399 798.669 480.973C798.897 483.644 800.098 486.14 802.042 487.986C804.026 489.751 806.615 490.683 809.269 490.586C810.914 490.587 812.541 490.244 814.045 489.578C815.549 488.912 816.897 487.938 818.002 486.719C818.495 486.226 818.869 486.133 819.135 486.453L821.335 488.839C821.41 488.884 821.472 488.948 821.514 489.024C821.557 489.1 821.58 489.185 821.58 489.273C821.58 489.36 821.557 489.445 821.514 489.521C821.472 489.597 821.41 489.661 821.335 489.706C819.787 491.366 817.919 492.695 815.842 493.613C813.505 494.605 810.975 495.064 808.438 494.955C805.901 494.847 803.42 494.174 801.176 492.986H801.109ZM818.335 475.453C817.993 473.092 816.826 470.929 815.042 469.346C813.215 467.851 810.924 467.039 808.564 467.052C806.203 467.064 803.92 467.899 802.109 469.413C800.312 470.981 799.138 473.144 798.802 475.506L798.735 475.853C798.735 476.119 798.962 476.239 799.402 476.239H817.735C818.269 476.239 818.469 475.999 818.335 475.453Z" fill="#1D1D1B"/>
<path d="M831.175 455.013C830.826 454.684 830.548 454.287 830.358 453.847C830.167 453.407 830.069 452.932 830.069 452.453C830.065 451.976 830.162 451.505 830.353 451.068C830.544 450.632 830.824 450.241 831.175 449.919C831.508 449.578 831.906 449.308 832.346 449.124C832.786 448.941 833.259 448.849 833.735 448.853C834.198 448.85 834.656 448.944 835.081 449.128C835.505 449.311 835.887 449.581 836.202 449.919C836.546 450.244 836.819 450.637 837.003 451.073C837.186 451.51 837.277 451.979 837.269 452.453C837.273 452.929 837.18 453.402 836.997 453.842C836.814 454.282 836.543 454.68 836.202 455.013C835.891 455.359 835.511 455.637 835.086 455.827C834.661 456.018 834.201 456.117 833.735 456.119C833.256 456.119 832.781 456.021 832.341 455.83C831.901 455.64 831.504 455.362 831.175 455.013ZM831.175 493.573V463.999C831.162 463.909 831.17 463.816 831.199 463.729C831.227 463.642 831.276 463.563 831.341 463.498C831.406 463.433 831.485 463.385 831.572 463.356C831.659 463.327 831.751 463.319 831.842 463.333H835.375C835.466 463.319 835.559 463.327 835.646 463.356C835.733 463.385 835.812 463.433 835.877 463.498C835.941 463.563 835.99 463.642 836.019 463.729C836.048 463.816 836.056 463.909 836.042 463.999V493.586C836.056 493.677 836.048 493.769 836.019 493.856C835.99 493.943 835.941 494.022 835.877 494.087C835.812 494.152 835.733 494.201 835.646 494.229C835.559 494.258 835.466 494.266 835.375 494.253H831.869C831.777 494.267 831.683 494.259 831.595 494.229C831.506 494.2 831.426 494.15 831.361 494.083C831.296 494.017 831.248 493.936 831.22 493.847C831.192 493.758 831.186 493.664 831.202 493.573H831.175Z" fill="#1D1D1B"/>
<path d="M847.842 492.986C846.049 491.655 844.727 489.787 844.069 487.652V487.386C844.064 487.256 844.108 487.13 844.192 487.031C844.276 486.933 844.394 486.869 844.522 486.853L847.722 485.706H847.989C848.255 485.706 848.455 485.893 848.589 486.253C848.944 487.596 849.761 488.771 850.895 489.573C851.943 490.355 853.214 490.78 854.522 490.786C856.063 490.909 857.592 490.431 858.789 489.453C859.272 489.011 859.655 488.471 859.91 487.868C860.166 487.265 860.288 486.614 860.269 485.959C860.296 485.329 860.181 484.701 859.932 484.121C859.682 483.541 859.305 483.026 858.829 482.613C857.658 481.729 856.281 481.16 854.829 480.959L852.162 480.413C850.064 480.065 848.153 478.994 846.762 477.386C845.424 475.795 844.713 473.771 844.762 471.693C844.764 470.085 845.227 468.512 846.095 467.159C846.948 465.761 848.183 464.636 849.655 463.919C851.259 463.13 853.028 462.732 854.815 462.759C857.046 462.691 859.238 463.356 861.055 464.653C862.823 466.011 864.078 467.929 864.615 470.093L864.682 470.359C864.682 470.626 864.509 470.826 864.149 470.946L861.015 471.759H860.762C860.482 471.759 860.309 471.586 860.215 471.239C859.931 470.021 859.268 468.924 858.322 468.106C857.325 467.323 856.082 466.922 854.815 466.973C853.447 466.906 852.104 467.359 851.055 468.239C850.588 468.628 850.215 469.118 849.966 469.673C849.716 470.227 849.596 470.831 849.615 471.439C849.58 471.999 849.662 472.56 849.857 473.086C850.052 473.612 850.356 474.092 850.749 474.493C851.718 475.309 852.895 475.84 854.149 476.026L856.815 476.573C859.101 476.95 861.213 478.031 862.855 479.666C863.634 480.501 864.238 481.483 864.631 482.555C865.025 483.626 865.201 484.765 865.149 485.906C865.184 487.139 864.949 488.365 864.461 489.499C863.973 490.632 863.243 491.644 862.322 492.466C860.172 494.27 857.418 495.19 854.615 495.039C852.191 495.133 849.806 494.41 847.842 492.986Z" fill="#1D1D1B"/>
<path d="M874.735 451.239L878.335 449.319C878.439 449.268 878.554 449.245 878.669 449.253C878.989 449.253 879.135 449.426 879.135 449.786V462.986C879.131 463.031 879.137 463.076 879.152 463.118C879.168 463.161 879.192 463.199 879.224 463.231C879.256 463.263 879.294 463.287 879.336 463.302C879.379 463.318 879.424 463.323 879.469 463.319H883.135C883.226 463.306 883.319 463.314 883.406 463.342C883.493 463.371 883.572 463.42 883.637 463.485C883.701 463.55 883.75 463.629 883.779 463.716C883.808 463.803 883.815 463.895 883.802 463.986V466.853C883.815 466.943 883.808 467.036 883.779 467.123C883.75 467.21 883.701 467.289 883.637 467.354C883.572 467.419 883.493 467.467 883.406 467.496C883.319 467.525 883.226 467.533 883.135 467.519H879.469C879.425 467.513 879.38 467.517 879.337 467.53C879.295 467.544 879.256 467.567 879.224 467.598C879.192 467.629 879.167 467.667 879.152 467.708C879.136 467.75 879.131 467.795 879.135 467.839V493.573C879.149 493.663 879.141 493.756 879.112 493.843C879.083 493.93 879.035 494.009 878.97 494.074C878.905 494.139 878.826 494.187 878.739 494.216C878.652 494.245 878.559 494.253 878.469 494.239H874.935C874.845 494.253 874.752 494.245 874.665 494.216C874.578 494.187 874.499 494.139 874.434 494.074C874.369 494.009 874.32 493.93 874.292 493.843C874.263 493.756 874.255 493.663 874.269 493.573V467.839C874.269 467.626 874.162 467.519 873.935 467.519H870.269C870.178 467.533 870.085 467.525 869.998 467.496C869.911 467.467 869.832 467.419 869.767 467.354C869.703 467.289 869.654 467.21 869.625 467.123C869.596 467.036 869.588 466.943 869.602 466.853V463.999C869.588 463.909 869.596 463.816 869.625 463.729C869.654 463.642 869.703 463.563 869.767 463.498C869.832 463.433 869.911 463.384 869.998 463.356C870.085 463.327 870.178 463.319 870.269 463.333H873.935C873.981 463.339 874.027 463.335 874.07 463.321C874.114 463.307 874.153 463.282 874.186 463.25C874.218 463.217 874.243 463.178 874.257 463.134C874.271 463.091 874.275 463.045 874.269 462.999V451.999C874.264 451.841 874.306 451.685 874.389 451.55C874.471 451.415 874.592 451.307 874.735 451.239Z" fill="#1D1D1B"/>
<path d="M895.829 492.986C893.464 491.659 891.533 489.678 890.269 487.279C888.966 484.642 888.288 481.741 888.288 478.799C888.288 475.858 888.966 472.956 890.269 470.319C891.502 467.961 893.373 465.998 895.669 464.653C898.012 463.307 900.674 462.616 903.375 462.653C906.051 462.619 908.687 463.31 911.002 464.653C913.253 465.956 915.099 467.858 916.335 470.146C917.648 472.567 918.314 475.286 918.269 478.039C918.274 478.551 918.252 479.063 918.202 479.573C918.179 479.73 918.098 479.874 917.974 479.975C917.851 480.076 917.695 480.128 917.535 480.119H894.002C893.469 480.119 893.269 480.399 893.402 480.973C893.632 483.641 894.826 486.134 896.762 487.986C898.753 489.748 901.345 490.679 904.002 490.586C905.647 490.586 907.274 490.243 908.778 489.577C910.282 488.911 911.63 487.938 912.735 486.719C913.229 486.226 913.602 486.133 913.869 486.453L916.069 488.839C916.143 488.884 916.205 488.948 916.247 489.024C916.29 489.1 916.313 489.185 916.313 489.273C916.313 489.36 916.29 489.445 916.247 489.521C916.205 489.597 916.143 489.661 916.069 489.706C914.52 491.366 912.652 492.695 910.575 493.613C908.501 494.509 906.262 494.963 904.002 494.946C901.154 495.011 898.337 494.336 895.829 492.986ZM913.069 475.453C912.715 473.096 911.55 470.936 909.775 469.346C907.948 467.851 905.657 467.039 903.297 467.052C900.936 467.064 898.653 467.899 896.842 469.413C895.045 470.981 893.871 473.144 893.535 475.506V475.853C893.535 476.119 893.749 476.239 894.202 476.239H912.535C913.002 476.239 913.202 475.999 913.069 475.453Z" fill="#1D1D1B"/>
<path d="M940.335 462.666C940.735 462.666 940.935 462.893 940.935 463.333V466.879C940.935 467.279 940.775 467.479 940.468 467.479C940.146 467.475 939.824 467.44 939.509 467.373C939.21 467.312 938.906 467.281 938.602 467.279C937.145 467.243 935.703 467.585 934.418 468.272C933.133 468.959 932.048 469.968 931.269 471.199C930.946 471.699 930.784 472.285 930.802 472.879V493.533C930.815 493.623 930.807 493.716 930.779 493.803C930.75 493.89 930.701 493.969 930.636 494.034C930.572 494.099 930.493 494.147 930.406 494.176C930.318 494.205 930.226 494.213 930.135 494.199H926.669C926.578 494.213 926.485 494.205 926.398 494.176C926.311 494.147 926.232 494.099 926.167 494.034C926.103 493.969 926.054 493.89 926.025 493.803C925.996 493.716 925.988 493.623 926.002 493.533V463.999C925.988 463.909 925.996 463.816 926.025 463.729C926.054 463.642 926.103 463.563 926.167 463.498C926.232 463.433 926.311 463.385 926.398 463.356C926.485 463.327 926.578 463.319 926.669 463.333H929.869C929.959 463.319 930.052 463.327 930.139 463.356C930.226 463.385 930.305 463.433 930.37 463.498C930.435 463.563 930.483 463.642 930.512 463.729C930.541 463.816 930.549 463.909 930.535 463.999V466.399C930.535 466.573 930.535 466.679 930.669 466.719C930.802 466.759 930.869 466.719 931.002 466.599C932.002 465.338 933.281 464.327 934.739 463.644C936.197 462.962 937.793 462.627 939.402 462.666C939.713 462.649 940.024 462.649 940.335 462.666Z" fill="#1D1D1B"/>
<path d="M114.87 549.586H118.67C119.163 549.586 119.336 549.839 119.203 550.319L109.336 579.999C109.272 580.172 109.152 580.318 108.995 580.415C108.838 580.512 108.653 580.553 108.47 580.532H103.336C103.153 580.553 102.968 580.512 102.811 580.415C102.654 580.318 102.534 580.172 102.47 579.999L92.6698 550.319V550.053C92.6698 549.746 92.8698 549.586 93.2698 549.586H97.0032C97.1767 549.574 97.3494 549.62 97.4941 549.716C97.6389 549.813 97.7475 549.954 97.8032 550.119L105.803 574.719C105.813 574.776 105.842 574.827 105.886 574.864C105.93 574.9 105.986 574.92 106.043 574.919C106.15 574.919 106.216 574.853 106.27 574.719L114.27 550.119C114.313 549.985 114.391 549.864 114.497 549.77C114.602 549.676 114.731 549.613 114.87 549.586Z" fill="#1D1D1B"/>
<path d="M130.963 579.012C128.605 577.593 126.672 575.567 125.363 573.146C124.033 570.653 123.336 567.871 123.336 565.046C123.336 562.22 124.033 559.438 125.363 556.946C126.679 554.53 128.611 552.506 130.963 551.079C133.389 549.655 136.15 548.904 138.963 548.904C141.776 548.904 144.538 549.655 146.963 551.079C149.315 552.506 151.247 554.53 152.563 556.946C153.894 559.438 154.59 562.22 154.59 565.046C154.59 567.871 153.894 570.653 152.563 573.146C151.255 575.567 149.321 577.593 146.963 579.012C144.541 580.446 141.778 581.203 138.963 581.203C136.148 581.203 133.385 580.446 130.963 579.012ZM144.443 575.159C146.059 574.103 147.369 572.641 148.243 570.919C149.138 569.093 149.603 567.086 149.603 565.053C149.603 563.019 149.138 561.012 148.243 559.186C147.369 557.464 146.059 556.002 144.443 554.946C142.788 553.925 140.881 553.385 138.936 553.385C136.992 553.385 135.085 553.925 133.43 554.946C131.814 556.002 130.503 557.464 129.63 559.186C128.735 561.012 128.27 563.019 128.27 565.053C128.27 567.086 128.735 569.093 129.63 570.919C130.503 572.641 131.814 574.103 133.43 575.159C135.085 576.18 136.992 576.72 138.936 576.72C140.881 576.72 142.788 576.18 144.443 575.159Z" fill="#1D1D1B"/>
<path d="M166.67 580.519H163.136C163.046 580.533 162.953 580.525 162.866 580.496C162.779 580.467 162.7 580.418 162.635 580.354C162.57 580.289 162.522 580.21 162.493 580.123C162.464 580.036 162.456 579.943 162.47 579.852V550.252C162.456 550.162 162.464 550.069 162.493 549.982C162.522 549.895 162.57 549.816 162.635 549.751C162.7 549.686 162.779 549.638 162.866 549.609C162.953 549.58 163.046 549.572 163.136 549.586H166.336C166.427 549.572 166.52 549.58 166.607 549.609C166.694 549.638 166.773 549.686 166.838 549.751C166.902 549.816 166.951 549.895 166.98 549.982C167.009 550.069 167.017 550.162 167.003 550.252V552.452C167.003 552.626 167.003 552.746 167.176 552.786C167.35 552.826 167.403 552.786 167.536 552.586C168.524 551.452 169.725 550.524 171.07 549.853C172.49 549.2 174.041 548.881 175.603 548.919C176.98 548.808 178.365 548.993 179.664 549.464C180.962 549.934 182.145 550.678 183.131 551.645C184.117 552.613 184.884 553.781 185.38 555.07C185.875 556.359 186.088 557.74 186.003 559.119V579.852C186.017 579.943 186.009 580.036 185.98 580.123C185.951 580.21 185.902 580.289 185.838 580.354C185.773 580.418 185.694 580.467 185.607 580.496C185.52 580.525 185.427 580.533 185.336 580.519H181.803C181.712 580.533 181.62 580.525 181.533 580.496C181.446 580.467 181.367 580.418 181.302 580.354C181.237 580.289 181.188 580.21 181.16 580.123C181.131 580.036 181.123 579.943 181.136 579.852V559.919C181.201 559.021 181.087 558.119 180.801 557.266C180.515 556.412 180.062 555.624 179.47 554.946C178.828 554.35 178.071 553.893 177.245 553.601C176.42 553.31 175.543 553.191 174.67 553.252C173.256 553.242 171.868 553.635 170.67 554.386C169.411 555.205 168.379 556.328 167.67 557.652C167.45 558.086 167.336 558.566 167.336 559.052V579.852C167.35 579.943 167.342 580.036 167.313 580.123C167.284 580.21 167.236 580.289 167.171 580.354C167.106 580.418 167.027 580.467 166.94 580.496C166.853 580.525 166.76 580.533 166.67 580.519Z" fill="#1D1D1B"/>
<path d="M235.576 535.453C237.506 536.439 239.105 537.969 240.176 539.853C241.236 541.793 241.773 543.975 241.736 546.186C241.756 548.23 241.226 550.242 240.203 552.013C239.227 553.734 237.797 555.154 236.07 556.119C235.63 556.386 235.63 556.626 236.07 556.853C238.069 557.839 239.754 559.362 240.936 561.253C242.145 563.191 242.77 565.436 242.736 567.719C242.793 569.429 242.49 571.131 241.847 572.716C241.204 574.3 240.235 575.733 239.003 576.919C236.505 579.319 232.994 580.519 228.47 580.519H215.003C214.912 580.533 214.82 580.525 214.733 580.496C214.646 580.467 214.567 580.419 214.502 580.354C214.437 580.289 214.388 580.21 214.36 580.123C214.331 580.036 214.323 579.943 214.336 579.853V534.519C214.323 534.429 214.331 534.336 214.36 534.249C214.388 534.162 214.437 534.083 214.502 534.018C214.567 533.953 214.646 533.904 214.733 533.876C214.82 533.847 214.912 533.839 215.003 533.853H228.336C230.844 533.786 233.33 534.335 235.576 535.453ZM219.27 538.919V554.053C219.263 554.098 219.267 554.144 219.281 554.188C219.296 554.231 219.32 554.271 219.352 554.303C219.385 554.336 219.424 554.36 219.468 554.374C219.511 554.389 219.558 554.393 219.603 554.386H227.736C230.118 554.55 232.474 553.812 234.336 552.319C235.11 551.573 235.713 550.668 236.104 549.667C236.496 548.666 236.666 547.592 236.603 546.519C236.664 545.442 236.494 544.365 236.103 543.36C235.712 542.354 235.109 541.445 234.336 540.693C232.488 539.17 230.125 538.415 227.736 538.586H219.603C219.558 538.579 219.511 538.583 219.468 538.597C219.424 538.612 219.385 538.636 219.352 538.669C219.32 538.701 219.296 538.741 219.281 538.784C219.267 538.828 219.263 538.874 219.27 538.919ZM219.27 559.453V575.453C219.263 575.498 219.267 575.544 219.281 575.588C219.296 575.631 219.32 575.671 219.352 575.703C219.385 575.736 219.424 575.76 219.468 575.774C219.511 575.789 219.558 575.793 219.603 575.786H228.003C230.585 575.973 233.143 575.189 235.176 573.586C236.736 571.925 237.605 569.731 237.605 567.453C237.605 565.174 236.736 562.98 235.176 561.319C233.143 559.716 230.585 558.932 228.003 559.119H219.603C219.558 559.112 219.511 559.116 219.468 559.131C219.424 559.145 219.385 559.17 219.352 559.202C219.32 559.234 219.296 559.274 219.281 559.317C219.267 559.361 219.263 559.407 219.27 559.453Z" fill="#1D1D1B"/>
<path d="M257.23 579.253C254.865 577.931 252.934 575.954 251.67 573.559C250.367 570.92 249.689 568.016 249.689 565.073C249.689 562.129 250.367 559.225 251.67 556.586C252.898 554.225 254.771 552.26 257.07 550.919C259.412 549.572 262.074 548.881 264.776 548.919C267.452 548.888 270.087 549.579 272.403 550.919C274.651 552.232 276.496 554.137 277.736 556.426C279.045 558.848 279.711 561.566 279.67 564.319C279.675 564.831 279.653 565.343 279.603 565.853C279.577 566.008 279.494 566.148 279.371 566.247C279.248 566.345 279.093 566.395 278.936 566.386H255.403C254.87 566.386 254.67 566.679 254.803 567.253C255.026 569.919 256.222 572.41 258.163 574.253C260.15 576.021 262.744 576.953 265.403 576.853C267.048 576.853 268.675 576.509 270.179 575.843C271.683 575.178 273.031 574.204 274.136 572.986C274.63 572.506 275.003 572.413 275.27 572.719L277.47 575.119C277.541 575.167 277.6 575.231 277.64 575.307C277.681 575.382 277.702 575.467 277.702 575.553C277.702 575.638 277.681 575.723 277.64 575.798C277.6 575.874 277.541 575.938 277.47 575.986C275.917 577.646 274.043 578.975 271.963 579.893C269.893 580.79 267.659 581.245 265.403 581.226C262.554 581.287 259.737 580.607 257.23 579.253ZM274.47 561.719C274.116 559.362 272.951 557.203 271.176 555.613C269.347 554.116 267.052 553.305 264.688 553.319C262.325 553.334 260.04 554.173 258.23 555.693C256.436 557.263 255.267 559.425 254.936 561.786V562.119C254.936 562.386 255.15 562.519 255.603 562.519H273.87C274.403 562.519 274.603 562.253 274.47 561.719Z" fill="#1D1D1B"/>
<path d="M301.736 548.986C302.136 548.986 302.336 549.212 302.336 549.652V553.186C302.336 553.586 302.176 553.786 301.87 553.786C301.547 553.788 301.225 553.757 300.91 553.692C300.611 553.629 300.308 553.593 300.003 553.586C298.544 553.547 297.1 553.889 295.814 554.579C294.528 555.269 293.444 556.282 292.67 557.519C292.339 558.01 292.176 558.595 292.203 559.186V579.852C292.216 579.943 292.208 580.036 292.18 580.123C292.151 580.21 292.102 580.289 292.037 580.354C291.973 580.418 291.894 580.467 291.806 580.496C291.719 580.525 291.627 580.533 291.536 580.519H288.003C287.912 580.533 287.82 580.525 287.733 580.496C287.646 580.467 287.566 580.418 287.502 580.354C287.437 580.289 287.388 580.21 287.359 580.123C287.331 580.036 287.323 579.943 287.336 579.852V550.252C287.323 550.162 287.331 550.069 287.359 549.982C287.388 549.895 287.437 549.816 287.502 549.751C287.566 549.686 287.646 549.638 287.733 549.609C287.82 549.58 287.912 549.572 288.003 549.586H291.203C291.294 549.572 291.386 549.58 291.473 549.609C291.56 549.638 291.639 549.686 291.704 549.751C291.769 549.816 291.818 549.895 291.846 549.982C291.875 550.069 291.883 550.162 291.87 550.252V552.652C291.87 552.826 291.87 552.946 292.003 552.986C292.136 553.026 292.203 552.986 292.336 552.852C293.339 551.594 294.618 550.584 296.075 549.902C297.533 549.219 299.128 548.883 300.736 548.919C301.071 548.914 301.405 548.936 301.736 548.986Z" fill="#1D1D1B"/>
<path d="M316.803 577.119V580.119C316.816 580.21 316.808 580.302 316.78 580.389C316.751 580.476 316.702 580.555 316.637 580.62C316.573 580.685 316.493 580.734 316.406 580.763C316.319 580.791 316.227 580.799 316.136 580.786H314.936C313.186 580.9 311.455 580.368 310.07 579.292C309.456 578.695 308.982 577.969 308.683 577.167C308.383 576.365 308.265 575.506 308.336 574.652V532.919C308.323 532.828 308.331 532.736 308.359 532.649C308.388 532.562 308.437 532.483 308.502 532.418C308.566 532.353 308.646 532.304 308.733 532.276C308.82 532.247 308.912 532.239 309.003 532.252H312.536C312.627 532.239 312.719 532.247 312.806 532.276C312.893 532.304 312.973 532.353 313.037 532.418C313.102 532.483 313.151 532.562 313.18 532.649C313.208 532.736 313.216 532.828 313.203 532.919V574.052C313.203 575.652 313.869 576.452 315.203 576.452H316.136C316.227 576.439 316.319 576.447 316.406 576.476C316.493 576.504 316.573 576.553 316.637 576.618C316.702 576.683 316.751 576.762 316.78 576.849C316.808 576.936 316.816 577.028 316.803 577.119Z" fill="#1D1D1B"/>
<path d="M324.363 541.333C324.016 541 323.741 540.6 323.553 540.158C323.365 539.715 323.269 539.24 323.27 538.759C323.269 538.285 323.366 537.815 323.554 537.38C323.742 536.944 324.018 536.551 324.363 536.226C324.7 535.887 325.101 535.618 325.543 535.435C325.984 535.251 326.458 535.158 326.936 535.159C327.398 535.16 327.855 535.255 328.279 535.438C328.703 535.622 329.086 535.89 329.403 536.226C329.743 536.554 330.012 536.948 330.196 537.383C330.379 537.819 330.472 538.287 330.47 538.759C330.472 539.238 330.379 539.712 330.196 540.154C330.013 540.596 329.743 540.996 329.403 541.333C329.091 541.677 328.71 541.953 328.286 542.141C327.861 542.329 327.401 542.426 326.936 542.426C326.455 542.428 325.979 542.333 325.537 542.145C325.094 541.957 324.695 541.68 324.363 541.333ZM324.363 579.892V550.293C324.349 550.202 324.357 550.109 324.386 550.022C324.415 549.935 324.463 549.856 324.528 549.791C324.593 549.726 324.672 549.678 324.759 549.649C324.846 549.62 324.939 549.612 325.03 549.626H328.563C328.653 549.612 328.746 549.62 328.833 549.649C328.92 549.678 328.999 549.726 329.064 549.791C329.129 549.856 329.178 549.935 329.206 550.022C329.235 550.109 329.243 550.202 329.229 550.293V579.892C329.243 579.983 329.235 580.076 329.206 580.163C329.178 580.25 329.129 580.329 329.064 580.394C328.999 580.459 328.92 580.507 328.833 580.536C328.746 580.565 328.653 580.573 328.563 580.559H325.07C324.975 580.575 324.878 580.566 324.787 580.536C324.696 580.505 324.615 580.452 324.549 580.383C324.483 580.313 324.435 580.228 324.41 580.136C324.384 580.043 324.382 579.946 324.403 579.852L324.363 579.892Z" fill="#1D1D1B"/>
<path d="M343.603 580.519H340.069C339.979 580.533 339.886 580.525 339.799 580.496C339.712 580.467 339.633 580.418 339.568 580.354C339.503 580.289 339.455 580.21 339.426 580.123C339.397 580.036 339.389 579.943 339.403 579.852V550.252C339.389 550.162 339.397 550.069 339.426 549.982C339.455 549.895 339.503 549.816 339.568 549.751C339.633 549.686 339.712 549.638 339.799 549.609C339.886 549.58 339.979 549.572 340.069 549.586H343.269C343.36 549.572 343.453 549.58 343.54 549.609C343.627 549.638 343.706 549.686 343.771 549.751C343.836 549.816 343.884 549.895 343.913 549.982C343.942 550.069 343.95 550.162 343.936 550.252V552.452C343.936 552.626 343.936 552.746 344.096 552.786C344.256 552.826 344.336 552.786 344.469 552.586C345.454 551.449 346.655 550.52 348.003 549.853C349.423 549.199 350.974 548.88 352.536 548.919C353.913 548.808 355.298 548.993 356.597 549.464C357.895 549.934 359.078 550.678 360.064 551.645C361.051 552.613 361.817 553.781 362.313 555.07C362.808 556.359 363.021 557.74 362.936 559.119V579.852C362.95 579.943 362.942 580.036 362.913 580.123C362.884 580.21 362.835 580.289 362.771 580.354C362.706 580.418 362.627 580.467 362.54 580.496C362.453 580.525 362.36 580.533 362.269 580.519H358.736C358.645 580.533 358.553 580.525 358.466 580.496C358.379 580.467 358.3 580.418 358.235 580.354C358.17 580.289 358.121 580.21 358.093 580.123C358.064 580.036 358.056 579.943 358.069 579.852V559.919C358.192 558.106 357.593 556.318 356.403 554.946C355.761 554.35 355.004 553.893 354.178 553.601C353.353 553.31 352.476 553.191 351.603 553.252C350.189 553.242 348.801 553.635 347.603 554.386C346.344 555.205 345.312 556.328 344.603 557.652C344.383 558.086 344.269 558.566 344.269 559.052V579.852C344.283 579.943 344.275 580.036 344.246 580.123C344.218 580.21 344.169 580.289 344.104 580.354C344.039 580.418 343.96 580.467 343.873 580.496C343.786 580.525 343.693 580.533 343.603 580.519Z" fill="#1D1D1B"/>
<path d="M99.4965 665.132C96.8025 663.248 94.8022 660.531 93.8032 657.399V657.132C93.8066 656.996 93.8538 656.864 93.9378 656.756C94.0218 656.648 94.1381 656.569 94.2698 656.532L97.6698 655.199C97.7731 655.148 97.8881 655.125 98.0032 655.132C98.065 655.13 98.1266 655.141 98.184 655.164C98.2415 655.186 98.2934 655.221 98.3365 655.266C98.4287 655.359 98.4973 655.474 98.5365 655.599C99.1394 657.85 100.494 659.826 102.376 661.199C104.293 662.549 106.592 663.25 108.936 663.199C111.587 663.374 114.201 662.513 116.23 660.799C117.828 659.174 118.747 657 118.799 654.721C118.851 652.442 118.032 650.229 116.51 648.532C114.758 646.908 112.563 645.841 110.203 645.466L106.803 644.799C103.598 644.314 100.637 642.803 98.3632 640.492C96.2402 638.183 95.1059 635.134 95.2032 631.999C95.1863 629.705 95.8097 627.452 97.0032 625.492C98.2097 623.515 99.9219 621.895 101.963 620.799C104.452 619.524 107.234 618.929 110.028 619.074C112.821 619.219 115.526 620.099 117.87 621.626C120.334 623.364 122.197 625.823 123.203 628.666C123.234 628.752 123.234 628.846 123.203 628.932C123.196 629.068 123.147 629.198 123.064 629.305C122.98 629.413 122.866 629.492 122.736 629.532L119.27 630.986C119.168 631.042 119.053 631.069 118.936 631.066C118.813 631.065 118.694 631.017 118.603 630.932C118.509 630.84 118.44 630.725 118.403 630.599C117.691 628.62 116.4 626.9 114.696 625.666C113.084 624.486 111.135 623.855 109.136 623.866C106.779 623.741 104.468 624.556 102.71 626.132C101.927 626.876 101.31 627.778 100.901 628.778C100.492 629.778 100.3 630.853 100.336 631.932C100.276 633.84 100.944 635.699 102.203 637.132C103.695 638.63 105.641 639.591 107.736 639.866L111.136 640.532C114.548 641.15 117.715 642.722 120.27 645.066C121.488 646.256 122.44 647.692 123.06 649.278C123.681 650.864 123.957 652.565 123.87 654.266C123.899 656.721 123.268 659.138 122.043 661.266C120.773 663.385 118.922 665.097 116.71 666.199C114.23 667.442 111.483 668.06 108.71 667.999C105.417 668.014 102.199 667.013 99.4965 665.132Z" fill="#1D1D1B"/>
<path d="M137.763 665.532C135.399 664.206 133.468 662.224 132.203 659.826C130.9 657.189 130.223 654.287 130.223 651.346C130.223 648.404 130.9 645.503 132.203 642.866C133.418 640.517 135.265 638.554 137.536 637.199C139.881 635.888 142.523 635.199 145.21 635.199C147.896 635.199 150.538 635.888 152.883 637.199C155.132 638.505 156.977 640.406 158.216 642.692C159.532 645.117 160.198 647.841 160.15 650.599C160.155 651.111 160.133 651.623 160.083 652.132C160.06 652.289 159.978 652.431 159.855 652.53C159.731 652.629 159.574 652.677 159.416 652.666H136.003C135.47 652.666 135.27 652.959 135.403 653.532C135.608 656.184 136.768 658.672 138.67 660.532C140.647 662.325 143.242 663.281 145.91 663.199C147.555 663.2 149.182 662.857 150.686 662.191C152.19 661.525 153.538 660.551 154.643 659.332C155.136 658.839 155.51 658.746 155.776 659.066L157.976 661.466C158.296 661.732 158.296 662.026 157.976 662.332C156.424 663.984 154.556 665.308 152.483 666.226C150.409 667.123 148.17 667.577 145.91 667.559C143.065 667.599 140.258 666.901 137.763 665.532ZM155.003 647.999C154.655 645.64 153.489 643.479 151.71 641.892C149.883 640.397 147.592 639.586 145.231 639.598C142.87 639.61 140.588 640.445 138.776 641.959C136.993 643.517 135.821 645.657 135.47 647.999V648.346C135.47 648.612 135.696 648.746 136.136 648.746H154.403C154.936 648.781 155.136 648.532 155.003 647.999Z" fill="#1D1D1B"/>
<path d="M172.07 666.799H168.536C168.446 666.813 168.353 666.805 168.266 666.776C168.179 666.747 168.1 666.698 168.035 666.634C167.97 666.569 167.922 666.49 167.893 666.403C167.864 666.316 167.856 666.223 167.87 666.132V636.532C167.856 636.442 167.864 636.349 167.893 636.262C167.922 636.175 167.97 636.096 168.035 636.031C168.1 635.966 168.179 635.918 168.266 635.889C168.353 635.86 168.446 635.852 168.536 635.866H171.736C171.827 635.852 171.92 635.86 172.007 635.889C172.094 635.918 172.173 635.966 172.238 636.031C172.302 636.096 172.351 636.175 172.38 636.262C172.409 636.349 172.417 636.442 172.403 636.532V638.732C172.403 638.906 172.403 639.026 172.576 639.066C172.75 639.106 172.803 639.066 172.936 638.866C173.93 637.756 175.13 636.851 176.47 636.199C177.89 635.547 179.441 635.228 181.003 635.266C182.411 635.179 183.82 635.39 185.141 635.884C186.462 636.377 187.664 637.144 188.67 638.132C189.587 639.114 190.301 640.267 190.77 641.526C191.239 642.784 191.454 644.124 191.403 645.466V666.132C191.417 666.223 191.409 666.316 191.38 666.403C191.351 666.49 191.302 666.569 191.238 666.634C191.173 666.698 191.094 666.747 191.007 666.776C190.92 666.805 190.827 666.813 190.736 666.799H187.203C187.112 666.813 187.02 666.805 186.933 666.776C186.846 666.747 186.767 666.698 186.702 666.634C186.637 666.569 186.588 666.49 186.56 666.403C186.531 666.316 186.523 666.223 186.536 666.132V646.132C186.603 645.234 186.49 644.332 186.204 643.478C185.918 642.624 185.464 641.836 184.87 641.159C184.228 640.564 183.471 640.106 182.645 639.815C181.82 639.523 180.943 639.405 180.07 639.466C178.655 639.449 177.266 639.843 176.07 640.599C174.79 641.451 173.756 642.624 173.07 643.999C172.847 644.432 172.733 644.912 172.736 645.399V666.199C172.739 666.284 172.723 666.369 172.69 666.448C172.656 666.527 172.606 666.597 172.542 666.654C172.479 666.711 172.404 666.754 172.322 666.779C172.24 666.804 172.154 666.811 172.07 666.799Z" fill="#1D1D1B"/>
<path d="M206.47 665.426C204.156 664.07 202.264 662.099 201.003 659.732C199.69 657.127 199.006 654.25 199.006 651.332C199.006 648.415 199.69 645.538 201.003 642.932C202.263 640.562 204.155 638.586 206.47 637.226C208.819 635.869 211.49 635.169 214.203 635.199C216.084 635.085 217.966 635.398 219.709 636.113C221.453 636.829 223.011 637.93 224.27 639.332C224.299 639.373 224.342 639.402 224.391 639.414C224.44 639.427 224.491 639.421 224.536 639.399C224.581 639.372 224.618 639.332 224.641 639.285C224.665 639.238 224.675 639.185 224.67 639.132V636.466C224.656 636.375 224.664 636.282 224.693 636.195C224.722 636.108 224.77 636.029 224.835 635.964C224.9 635.9 224.979 635.851 225.066 635.822C225.153 635.793 225.246 635.786 225.336 635.799H228.603C228.694 635.786 228.786 635.793 228.873 635.822C228.96 635.851 229.039 635.9 229.104 635.964C229.169 636.029 229.218 636.108 229.246 636.195C229.275 636.282 229.283 636.375 229.27 636.466V666.066C229.283 666.156 229.275 666.249 229.246 666.336C229.218 666.423 229.169 666.502 229.104 666.567C229.039 666.632 228.96 666.68 228.873 666.709C228.786 666.738 228.694 666.746 228.603 666.732H225.336C225.246 666.746 225.153 666.738 225.066 666.709C224.979 666.68 224.9 666.632 224.835 666.567C224.77 666.502 224.722 666.423 224.693 666.336C224.664 666.249 224.656 666.156 224.67 666.066V663.399C224.67 663.266 224.67 663.172 224.536 663.132C224.403 663.092 224.363 663.132 224.27 663.199C222.962 664.537 221.394 665.595 219.663 666.305C217.932 667.016 216.074 667.366 214.203 667.332C211.501 667.405 208.829 666.747 206.47 665.426ZM220.536 661.732C222.084 660.939 223.343 659.68 224.136 658.132C224.321 657.76 224.413 657.348 224.403 656.932V645.732C224.413 645.317 224.321 644.905 224.136 644.532C223.274 643 221.987 641.749 220.43 640.932C218.743 640.024 216.851 639.565 214.936 639.599C213.45 639.535 211.967 639.79 210.587 640.346C209.207 640.903 207.962 641.748 206.936 642.826C204.97 645.222 203.895 648.226 203.895 651.326C203.895 654.425 204.97 657.429 206.936 659.826C207.96 660.908 209.204 661.757 210.584 662.316C211.964 662.875 213.449 663.131 214.936 663.066C216.886 663.103 218.813 662.644 220.536 661.732Z" fill="#1D1D1B"/>
<path d="M241.47 623.799L245.07 621.866C245.179 621.837 245.294 621.837 245.403 621.866C245.71 621.866 245.87 622.039 245.87 622.399V635.599C245.863 635.644 245.867 635.691 245.881 635.734C245.896 635.778 245.92 635.817 245.952 635.85C245.985 635.882 246.024 635.906 246.068 635.921C246.111 635.935 246.158 635.939 246.203 635.932H249.87C249.96 635.919 250.053 635.927 250.14 635.956C250.227 635.984 250.306 636.033 250.371 636.098C250.436 636.163 250.484 636.242 250.513 636.329C250.542 636.416 250.55 636.508 250.536 636.599V639.466C250.55 639.556 250.542 639.649 250.513 639.736C250.484 639.823 250.436 639.902 250.371 639.967C250.306 640.032 250.227 640.081 250.14 640.109C250.053 640.138 249.96 640.146 249.87 640.132H246.203C245.976 640.132 245.87 640.239 245.87 640.452V666.132C245.883 666.223 245.875 666.316 245.846 666.403C245.818 666.49 245.769 666.569 245.704 666.634C245.639 666.698 245.56 666.747 245.473 666.776C245.386 666.805 245.294 666.813 245.203 666.799H241.67C241.579 666.813 241.486 666.805 241.399 666.776C241.312 666.747 241.233 666.698 241.168 666.634C241.104 666.569 241.055 666.49 241.026 666.403C240.997 666.316 240.989 666.223 241.003 666.132V640.386C241.003 640.172 240.896 640.066 240.67 640.066H237.003C236.912 640.079 236.82 640.071 236.733 640.043C236.646 640.014 236.567 639.965 236.502 639.9C236.437 639.835 236.388 639.756 236.359 639.669C236.331 639.582 236.323 639.49 236.336 639.399V636.532C236.323 636.442 236.331 636.349 236.359 636.262C236.388 636.175 236.437 636.096 236.502 636.031C236.567 635.966 236.646 635.918 236.733 635.889C236.82 635.86 236.912 635.852 237.003 635.866H240.67C240.715 635.872 240.761 635.869 240.805 635.854C240.848 635.84 240.888 635.815 240.92 635.783C240.953 635.751 240.977 635.711 240.991 635.668C241.006 635.624 241.01 635.578 241.003 635.532V624.599C240.986 624.434 241.022 624.267 241.106 624.123C241.19 623.979 241.317 623.866 241.47 623.799Z" fill="#1D1D1B"/>
<path d="M258.91 665.532C257.106 664.212 255.782 662.339 255.136 660.199V659.932C255.136 659.666 255.296 659.492 255.603 659.399L258.803 658.266L259.07 658.186C259.336 658.186 259.536 658.372 259.67 658.732C260.015 660.08 260.827 661.262 261.963 662.066C263.02 662.838 264.294 663.258 265.603 663.266C267.143 663.382 268.67 662.905 269.87 661.932C270.348 661.485 270.727 660.941 270.98 660.337C271.233 659.732 271.354 659.081 271.336 658.426C271.367 657.798 271.255 657.172 271.008 656.594C270.761 656.017 270.385 655.503 269.91 655.092C268.744 654.199 267.365 653.624 265.91 653.426L263.243 652.892C261.143 652.54 259.233 651.465 257.843 649.852C256.991 648.836 256.382 647.64 256.06 646.354C255.739 645.068 255.714 643.725 255.987 642.428C256.261 641.131 256.826 639.913 257.639 638.866C258.453 637.819 259.494 636.971 260.683 636.386C262.287 635.596 264.055 635.199 265.843 635.226C268.07 635.157 270.258 635.822 272.07 637.119C273.846 638.472 275.106 640.392 275.643 642.559L275.71 642.826C275.71 643.092 275.536 643.292 275.176 643.426L272.043 644.226L271.776 644.292C271.51 644.292 271.336 644.106 271.243 643.759C270.959 642.538 270.29 641.44 269.336 640.626C268.347 639.839 267.106 639.436 265.843 639.492C264.475 639.428 263.133 639.88 262.083 640.759C261.221 641.555 260.707 642.658 260.649 643.83C260.592 645.002 260.997 646.149 261.776 647.026C262.749 647.837 263.925 648.367 265.176 648.559L267.843 649.092C270.124 649.475 272.229 650.556 273.87 652.186C275.432 653.983 276.249 656.309 276.152 658.689C276.056 661.069 275.053 663.321 273.35 664.986C271.199 666.787 268.445 667.707 265.643 667.559C263.235 667.654 260.865 666.94 258.91 665.532Z" fill="#1D1D1B"/>
<path d="M300.936 666.199L293.003 652.866C292.91 652.639 292.79 652.519 292.643 652.492C292.555 652.488 292.467 652.508 292.389 652.55C292.311 652.593 292.247 652.656 292.203 652.732L289.403 656.066C289.14 656.41 288.999 656.832 289.003 657.266V666.132C289.002 666.22 288.984 666.306 288.95 666.386C288.916 666.466 288.866 666.539 288.803 666.599C288.732 666.666 288.648 666.719 288.556 666.753C288.465 666.787 288.367 666.803 288.27 666.799H284.803C284.712 666.813 284.62 666.805 284.533 666.776C284.446 666.747 284.366 666.698 284.302 666.634C284.237 666.569 284.188 666.49 284.159 666.403C284.131 666.316 284.123 666.223 284.136 666.132V619.199C284.123 619.108 284.131 619.016 284.159 618.929C284.188 618.842 284.237 618.763 284.302 618.698C284.366 618.633 284.446 618.584 284.533 618.556C284.62 618.527 284.712 618.519 284.803 618.532H288.27C288.367 618.528 288.465 618.544 288.556 618.579C288.648 618.613 288.732 618.665 288.803 618.732C288.867 618.792 288.918 618.864 288.952 618.945C288.987 619.025 289.004 619.112 289.003 619.199V648.719C289.003 648.999 289.07 649.132 289.203 649.159C289.336 649.186 289.496 649.079 289.67 648.866L300.07 636.266C300.164 636.143 300.285 636.043 300.424 635.974C300.562 635.905 300.715 635.868 300.87 635.866H305.47C305.575 635.852 305.682 635.87 305.777 635.918C305.872 635.965 305.951 636.04 306.003 636.132C306.04 636.235 306.047 636.346 306.023 636.452C306 636.558 305.946 636.655 305.87 636.732L296.536 647.932C296.385 648.086 296.283 648.281 296.243 648.492C296.228 648.696 296.285 648.899 296.403 649.066L306.47 665.999C306.544 666.12 306.59 666.257 306.603 666.399C306.603 666.666 306.403 666.799 306.003 666.799H301.936C301.73 666.805 301.526 666.752 301.348 666.646C301.171 666.539 301.028 666.384 300.936 666.199Z" fill="#1D1D1B"/>
<path d="M317.603 665.426C315.289 664.07 313.397 662.099 312.136 659.732C310.823 657.127 310.139 654.25 310.139 651.332C310.139 648.415 310.823 645.538 312.136 642.932C313.396 640.562 315.288 638.587 317.603 637.226C319.951 635.867 322.623 635.167 325.336 635.199C329.701 635.199 333.056 636.577 335.403 639.332C335.432 639.373 335.475 639.402 335.524 639.414C335.573 639.427 335.624 639.421 335.669 639.399C335.715 639.372 335.751 639.332 335.775 639.285C335.798 639.238 335.808 639.185 335.803 639.132V636.466C335.789 636.375 335.797 636.283 335.826 636.195C335.855 636.108 335.903 636.029 335.968 635.965C336.033 635.9 336.112 635.851 336.199 635.822C336.286 635.794 336.379 635.786 336.469 635.799H339.736C339.827 635.786 339.919 635.794 340.006 635.822C340.093 635.851 340.173 635.9 340.237 635.965C340.302 636.029 340.351 636.108 340.38 636.195C340.408 636.283 340.416 636.375 340.403 636.466V666.066C340.416 666.156 340.408 666.249 340.38 666.336C340.351 666.423 340.302 666.502 340.237 666.567C340.173 666.632 340.093 666.68 340.006 666.709C339.919 666.738 339.827 666.746 339.736 666.732H336.469C336.379 666.746 336.286 666.738 336.199 666.709C336.112 666.68 336.033 666.632 335.968 666.567C335.903 666.502 335.855 666.423 335.826 666.336C335.797 666.249 335.789 666.156 335.803 666.066V663.399C335.803 663.266 335.803 663.172 335.669 663.132C335.536 663.092 335.496 663.132 335.403 663.199C334.094 664.536 332.526 665.592 330.795 666.303C329.065 667.014 327.207 667.364 325.336 667.332C322.633 667.407 319.961 666.748 317.603 665.426ZM331.669 661.732C333.217 660.939 334.476 659.68 335.269 658.132C335.451 657.759 335.542 657.348 335.536 656.932V645.732C335.542 645.317 335.451 644.906 335.269 644.532C334.409 643.003 333.127 641.753 331.576 640.932C329.885 640.024 327.989 639.565 326.069 639.599C324.583 639.534 323.1 639.788 321.72 640.345C320.34 640.902 319.095 641.748 318.069 642.826C316.103 645.222 315.029 648.226 315.029 651.326C315.029 654.425 316.103 657.429 318.069 659.826C319.092 660.908 320.336 661.758 321.717 662.317C323.097 662.876 324.582 663.132 326.069 663.066C328.019 663.101 329.945 662.642 331.669 661.732Z" fill="#1D1D1B"/>
<path d="M354.803 666.799H351.269C351.179 666.813 351.086 666.805 350.999 666.776C350.912 666.747 350.833 666.698 350.768 666.634C350.703 666.569 350.655 666.49 350.626 666.403C350.597 666.316 350.589 666.223 350.603 666.132V636.532C350.589 636.442 350.597 636.349 350.626 636.262C350.655 636.175 350.703 636.096 350.768 636.031C350.833 635.966 350.912 635.918 350.999 635.889C351.086 635.86 351.179 635.852 351.269 635.866H354.469C354.56 635.852 354.653 635.86 354.74 635.889C354.827 635.918 354.906 635.966 354.971 636.031C355.035 636.096 355.084 636.175 355.113 636.262C355.142 636.349 355.15 636.442 355.136 636.532V638.732C355.136 638.906 355.136 639.026 355.296 639.066C355.456 639.106 355.536 639.066 355.669 638.866C356.66 637.753 357.861 636.847 359.203 636.199C360.623 635.547 362.174 635.228 363.736 635.266C365.144 635.179 366.554 635.39 367.874 635.884C369.195 636.377 370.397 637.144 371.403 638.132C372.32 639.114 373.034 640.267 373.503 641.526C373.972 642.784 374.187 644.124 374.136 645.466V666.132C374.15 666.223 374.142 666.316 374.113 666.403C374.084 666.49 374.035 666.569 373.971 666.634C373.906 666.698 373.827 666.747 373.74 666.776C373.653 666.805 373.56 666.813 373.469 666.799H369.936C369.845 666.813 369.753 666.805 369.666 666.776C369.579 666.747 369.5 666.698 369.435 666.634C369.37 666.569 369.321 666.49 369.293 666.403C369.264 666.316 369.256 666.223 369.269 666.132V646.132C369.333 645.235 369.219 644.333 368.933 643.479C368.647 642.626 368.195 641.837 367.603 641.159C366.961 640.564 366.204 640.106 365.378 639.815C364.553 639.523 363.676 639.405 362.803 639.466C361.388 639.449 359.999 639.843 358.803 640.599C357.541 641.414 356.508 642.539 355.803 643.866C355.586 644.301 355.472 644.78 355.469 645.266V666.066C355.496 666.161 355.497 666.262 355.474 666.358C355.451 666.454 355.404 666.543 355.338 666.616C355.271 666.689 355.187 666.744 355.094 666.776C355 666.808 354.9 666.816 354.803 666.799Z" fill="#1D1D1B"/>
<path d="M388.936 662.666H405.003C405.443 662.666 405.669 662.906 405.669 663.399V666.199C405.683 666.29 405.675 666.382 405.646 666.469C405.617 666.556 405.569 666.635 405.504 666.7C405.439 666.765 405.36 666.814 405.273 666.843C405.186 666.871 405.093 666.879 405.003 666.866H382.003C381.469 666.866 381.203 666.639 381.203 666.199C381.193 665.961 381.263 665.726 381.403 665.532L397.336 640.466C397.469 640.199 397.403 640.066 397.136 640.066H381.936C381.845 640.079 381.753 640.071 381.666 640.043C381.579 640.014 381.5 639.965 381.435 639.9C381.37 639.836 381.321 639.756 381.293 639.669C381.264 639.582 381.256 639.49 381.269 639.399V636.532C381.256 636.442 381.264 636.349 381.293 636.262C381.321 636.175 381.37 636.096 381.435 636.031C381.5 635.966 381.579 635.918 381.666 635.889C381.753 635.86 381.845 635.852 381.936 635.866H404.069C404.563 635.866 404.803 636.092 404.803 636.532C404.796 636.768 404.727 636.999 404.603 637.199L388.669 662.199C388.536 662.452 388.629 662.666 388.936 662.666Z" fill="#1D1D1B"/>
<path d="M420.936 663.399V666.399C420.95 666.49 420.942 666.582 420.913 666.669C420.884 666.756 420.835 666.835 420.771 666.9C420.706 666.965 420.627 667.014 420.54 667.042C420.453 667.071 420.36 667.079 420.269 667.066H419.069C417.318 667.173 415.587 666.638 414.203 665.559C413.59 664.964 413.117 664.24 412.817 663.44C412.518 662.64 412.399 661.784 412.469 660.932V619.199C412.456 619.108 412.464 619.016 412.493 618.929C412.521 618.842 412.57 618.763 412.635 618.698C412.7 618.633 412.779 618.584 412.866 618.556C412.953 618.527 413.045 618.519 413.136 618.532H416.669C416.76 618.519 416.853 618.527 416.94 618.556C417.027 618.584 417.106 618.633 417.171 618.698C417.235 618.763 417.284 618.842 417.313 618.929C417.342 619.016 417.35 619.108 417.336 619.199V660.332C417.336 661.932 418.003 662.732 419.336 662.732H420.269C420.36 662.719 420.453 662.727 420.54 662.756C420.627 662.784 420.706 662.833 420.771 662.898C420.835 662.963 420.884 663.042 420.913 663.129C420.942 663.216 420.95 663.308 420.936 663.399Z" fill="#1D1D1B"/>
<path d="M433.336 665.532C430.965 664.21 429.028 662.228 427.763 659.826C426.456 657.19 425.776 654.288 425.776 651.346C425.776 648.404 426.456 645.502 427.763 642.866C428.988 640.502 430.861 638.537 433.163 637.199C435.505 635.888 438.145 635.199 440.829 635.199C443.514 635.199 446.154 635.888 448.496 637.199C450.742 638.509 452.586 640.409 453.829 642.692C455.147 645.139 455.804 647.887 455.736 650.666C455.741 651.178 455.719 651.689 455.669 652.199C455.643 652.354 455.561 652.495 455.438 652.593C455.315 652.691 455.16 652.741 455.003 652.732H431.469C430.936 652.732 430.736 653.026 430.869 653.599C431.097 656.267 432.298 658.758 434.243 660.599C436.213 662.393 438.805 663.35 441.469 663.266C443.114 663.266 444.741 662.922 446.245 662.257C447.749 661.591 449.097 660.617 450.203 659.399C450.683 658.906 451.069 658.812 451.336 659.132L453.536 661.532C453.607 661.58 453.666 661.644 453.707 661.72C453.747 661.795 453.769 661.88 453.769 661.966C453.769 662.051 453.747 662.136 453.707 662.212C453.666 662.287 453.607 662.352 453.536 662.399C451.981 664.048 450.114 665.372 448.043 666.292C445.705 667.285 443.176 667.743 440.639 667.635C438.101 667.527 435.62 666.854 433.376 665.666L433.336 665.532ZM450.536 647.999C450.189 645.637 449.017 643.474 447.229 641.892C445.453 640.344 443.158 639.525 440.803 639.599C438.415 639.545 436.094 640.387 434.296 641.959C432.505 643.531 431.336 645.693 431.003 648.052L430.936 648.399C430.936 648.666 431.163 648.799 431.603 648.799H449.936C450.469 648.799 450.669 648.532 450.536 647.999Z" fill="#1D1D1B"/>
<path d="M463.363 627.559C463.018 627.228 462.743 626.83 462.555 626.39C462.368 625.951 462.27 625.477 462.269 624.999C462.266 624.524 462.361 624.054 462.55 623.617C462.738 623.181 463.015 622.789 463.363 622.466C463.698 622.124 464.098 621.854 464.541 621.67C464.983 621.487 465.457 621.395 465.936 621.399C466.399 621.397 466.857 621.49 467.281 621.674C467.706 621.858 468.087 622.127 468.403 622.466C468.744 622.793 469.015 623.186 469.199 623.622C469.382 624.057 469.474 624.526 469.469 624.999C469.47 625.475 469.377 625.947 469.193 626.386C469.01 626.826 468.741 627.225 468.403 627.559C468.092 627.906 467.711 628.183 467.287 628.374C466.862 628.564 466.402 628.664 465.936 628.666C465.454 628.666 464.978 628.567 464.535 628.377C464.093 628.187 463.694 627.909 463.363 627.559ZM463.363 666.132V636.532C463.349 636.442 463.357 636.349 463.386 636.262C463.415 636.175 463.463 636.096 463.528 636.031C463.593 635.966 463.672 635.918 463.759 635.889C463.846 635.86 463.939 635.852 464.029 635.866H467.563C467.653 635.852 467.746 635.86 467.833 635.889C467.92 635.918 467.999 635.966 468.064 636.031C468.129 636.096 468.177 636.175 468.206 636.262C468.235 636.349 468.243 636.442 468.229 636.532V666.132C468.243 666.223 468.235 666.316 468.206 666.403C468.177 666.49 468.129 666.569 468.064 666.634C467.999 666.698 467.92 666.747 467.833 666.776C467.746 666.805 467.653 666.813 467.563 666.799H464.029C463.942 666.806 463.854 666.793 463.772 666.761C463.69 666.73 463.616 666.68 463.556 666.616C463.496 666.552 463.451 666.475 463.424 666.392C463.398 666.308 463.39 666.219 463.403 666.132H463.363Z" fill="#1D1D1B"/>
</g>
<defs>
<clipPath id="clip0_1_472">
<rect width="1133.86" height="755.906" fill="white"/>
</clipPath>
</defs>
</svg>
