<svg xmlns="http://www.w3.org/2000/svg" width="221" height="55" viewBox="0 0 221 55"><g fill="none" fill-rule="evenodd" transform="translate(.991 .894)"><path fill="#000" fill-rule="nonzero" d="M78.4403762,9.13990544 C78.4403762,12.3521613 77.3230467,13.7339037 74.5591262,13.7339037 C71.8422512,13.7339037 70.6661149,12.2931125 70.6661149,9.13990544 C70.6661149,5.98669836 71.8069671,4.56952666 74.5591262,4.56952666 C77.3230467,4.56952666 78.4403762,5.98669836 78.4403762,9.13990544 Z M76.3703762,9.13990544 C76.3703762,6.89605023 75.911683,6.35280108 74.5591262,6.35280108 C73.2183308,6.35280108 72.7478762,6.89605023 72.7478762,9.13990544 C72.7478762,11.3837607 73.2300921,11.9506293 74.5708876,11.9506293 C75.8999217,11.9506293 76.3703762,11.3719509 76.3703762,9.13990544 Z M87.448274,7.74635326 C87.448274,9.612296 86.4603194,10.6869845 84.0021944,10.6869845 L82.826058,10.6869845 L82.826058,13.568567 L80.8383876,13.568567 L80.8383876,4.71124381 L84.0021944,4.71124381 C86.448558,4.71124381 87.448274,5.67964448 87.448274,7.74635326 Z M85.4017967,7.7345435 C85.4017967,6.67166471 85.025433,6.37642059 84.0021944,6.37642059 L82.826058,6.37642059 L82.826058,9.09266636 L84.0021944,9.09266636 C84.9783876,9.09266636 85.4017967,8.84466133 85.4017967,7.7345435 Z M91.681058,11.8325317 L95.7387285,11.8325317 L95.691683,13.568567 L89.6933876,13.568567 L89.6933876,4.71124381 L95.5152626,4.71124381 L95.5505467,6.47089871 L91.681058,6.47089871 L91.681058,8.23055357 L94.9389558,8.23055357 L94.9389558,9.81306199 L91.681058,9.81306199 L91.681058,11.8325317 Z M105.134751,13.568567 L103.74691,13.568567 L100.324353,8.73837345 L99.7950921,7.94711926 L99.7715694,7.95892902 L99.7833308,8.91551993 L99.7833308,13.568567 L98.0191262,13.568567 L98.0191262,4.71124381 L99.7127626,4.71124381 L102.853047,9.2816226 L103.382308,10.0728768 L103.405831,10.061067 L103.382308,9.11628592 L103.382308,4.71124381 L105.134751,4.71124381 L105.134751,13.568567 Z M122.044978,9.10447612 C122.044978,12.3049223 120.715944,13.568567 118.104922,13.568567 L114.776456,13.568567 L114.776456,4.71124381 L118.081399,4.71124381 C120.880603,4.71124381 122.044978,6.0457472 122.044978,9.10447612 Z M119.963217,9.09266636 C119.963217,6.99052835 119.457478,6.49451823 118.057876,6.49451823 L116.764126,6.49451823 L116.764126,11.7971024 L118.069638,11.7971024 C119.422194,11.7971024 119.963217,11.3601411 119.963217,9.09266636 Z M129.653274,13.568567 L129.159297,11.8443415 L125.960206,11.8443415 L125.466228,13.568567 L123.372706,13.568567 L126.418899,4.71124381 L128.782933,4.71124381 L131.86441,13.568567 L129.653274,13.568567 Z M127.571513,6.21108388 L127.324524,7.14405527 L126.442422,10.1791647 L128.688842,10.1791647 L127.842024,7.14405527 L127.606797,6.21108388 L127.571513,6.21108388 Z M139.072819,6.50632799 L136.697024,6.50632799 L136.697024,13.568567 L134.697592,13.568567 L134.697592,6.50632799 L132.333558,6.50632799 L132.380603,4.71124381 L139.025774,4.71124381 L139.072819,6.50632799 Z M145.822535,13.568567 L145.328558,11.8443415 L142.129467,11.8443415 L141.63549,13.568567 L139.541967,13.568567 L142.58816,4.71124381 L144.952194,4.71124381 L148.033672,13.568567 L145.822535,13.568567 Z M143.740774,6.21108388 L143.493785,7.14405527 L142.611683,10.1791647 L144.858103,10.1791647 L144.011285,7.14405527 L143.776058,6.21108388 L143.740774,6.21108388 Z M71.124808,29.9710175 L71.124808,21.1136942 L73.1477626,21.1136942 L73.1477626,29.9710175 L71.124808,29.9710175 Z M83.1083308,29.9710175 L81.7204899,29.9710175 L78.297933,25.1408239 L77.7686717,24.3495696 L77.745149,24.3613795 L77.7569103,25.3179704 L77.7569103,29.9710175 L75.9927058,29.9710175 L75.9927058,21.1136942 L77.6863421,21.1136942 L80.8266262,25.684073 L81.3558876,26.4753272 L81.3794103,26.4635175 L81.3558876,25.5187363 L81.3558876,21.1136942 L83.1083308,21.1136942 L83.1083308,29.9710175 Z M91.681058,22.9087784 L87.8115694,22.9087784 L87.8115694,24.8219602 L91.034183,24.8219602 L91.0106603,26.5225663 L87.8115694,26.5225663 L87.8115694,29.9710175 L85.8356603,29.9710175 L85.8356603,21.1136942 L91.645774,21.1136942 L91.681058,22.9087784 Z M101.171172,25.5423559 C101.171172,28.7546118 100.053842,30.1363542 97.2899217,30.1363542 C94.5730467,30.1363542 93.3969103,28.6955629 93.3969103,25.5423559 C93.3969103,22.3891488 94.5377626,20.9719771 97.2899217,20.9719771 C100.053842,20.9719771 101.171172,22.3891488 101.171172,25.5423559 Z M99.1011717,25.5423559 C99.1011717,23.2985007 98.6424785,22.7552515 97.2899217,22.7552515 C95.9491262,22.7552515 95.4786717,23.2985007 95.4786717,25.5423559 C95.4786717,27.7862111 95.9608876,28.3530798 97.301683,28.3530798 C98.6307171,28.3530798 99.1011717,27.7744013 99.1011717,25.5423559 Z M110.084978,23.8653693 C110.084978,25.1053946 109.555717,25.9793172 108.603047,26.2745613 L110.661285,29.9710175 L108.344297,29.9710175 L106.803558,26.6642835 L105.556853,26.6642835 L105.556853,29.9710175 L103.569183,29.9710175 L103.569183,21.1136942 L106.803558,21.1136942 C108.991172,21.1136942 110.084978,21.975807 110.084978,23.8653693 Z M108.014978,23.9480377 C108.014978,23.0504956 107.68566,22.7670613 106.815319,22.7670613 L105.556853,22.7670613 L105.556853,25.1762532 L106.780035,25.1762532 C107.662138,25.1762532 108.014978,24.9046286 108.014978,23.9480377 Z M112.612365,21.1136942 L114.799978,21.1136942 L116.846456,26.286371 L117.175774,27.1721033 L117.211058,27.1721033 L117.540376,26.286371 L119.598615,21.1136942 L121.786228,21.1136942 L121.786228,29.9710175 L119.974978,29.9710175 L119.974978,25.4596875 L119.998501,24.5030966 L119.963217,24.4912869 L119.633899,25.3888289 L117.822649,29.9710175 L116.505376,29.9710175 L114.705888,25.4006387 L114.376569,24.5030966 L114.353047,24.5149064 L114.364808,25.4714973 L114.364808,29.9710175 L112.612365,29.9710175 L112.612365,21.1136942 Z M130.017876,29.9710175 L129.523899,28.2467919 L126.324808,28.2467919 L125.830831,29.9710175 L123.737308,29.9710175 L126.783501,21.1136942 L129.147535,21.1136942 L132.229013,29.9710175 L130.017876,29.9710175 Z M127.936115,22.6135343 L127.689126,23.5465057 L126.807024,26.5816151 L129.053444,26.5816151 L128.206626,23.5465057 L127.971399,22.6135343 L127.936115,22.6135343 Z M139.437422,22.9087784 L137.061626,22.9087784 L137.061626,29.9710175 L135.062194,29.9710175 L135.062194,22.9087784 L132.69816,22.9087784 L132.745206,21.1136942 L139.390376,21.1136942 L139.437422,22.9087784 Z M141.588444,29.9710175 L141.588444,21.1136942 L143.611399,21.1136942 L143.611399,29.9710175 L141.588444,29.9710175 Z M153.901285,25.5423559 C153.901285,28.7546118 152.783956,30.1363542 150.020035,30.1363542 C147.30316,30.1363542 146.127024,28.6955629 146.127024,25.5423559 C146.127024,22.3891488 147.267876,20.9719771 150.020035,20.9719771 C152.783956,20.9719771 153.901285,22.3891488 153.901285,25.5423559 Z M151.831285,25.5423559 C151.831285,23.2985007 151.372592,22.7552515 150.020035,22.7552515 C148.67924,22.7552515 148.208785,23.2985007 148.208785,25.5423559 C148.208785,27.7862111 148.691001,28.3530798 150.031797,28.3530798 C151.360831,28.3530798 151.831285,27.7744013 151.831285,25.5423559 Z M163.414922,29.9710175 L162.027081,29.9710175 L158.604524,25.1408239 L158.075263,24.3495696 L158.05174,24.3613795 L158.063501,25.3179704 L158.063501,29.9710175 L156.299297,29.9710175 L156.299297,21.1136942 L157.992933,21.1136942 L161.133217,25.684073 L161.662478,26.4753272 L161.686001,26.4635175 L161.662478,25.5187363 L161.662478,21.1136942 L163.414922,21.1136942 L163.414922,29.9710175 Z M171.752422,27.3138205 C171.752422,29.0616656 170.541001,30.1363542 168.482763,30.1363542 C167.459524,30.1363542 166.518615,29.8883491 165.754126,29.4750074 L166.012876,27.7625916 C166.789126,28.1759333 167.588899,28.4121286 168.45924,28.4121286 C169.423672,28.4121286 169.847081,28.0578356 169.847081,27.4437279 C169.847081,26.0501757 165.78941,26.6406639 165.78941,23.6764131 C165.78941,22.176573 166.753842,20.9601673 168.988501,20.9601673 C169.847081,20.9601673 170.776228,21.1373138 171.458388,21.4207481 L171.211399,23.0977347 C170.482194,22.8615393 169.75299,22.7198222 169.082592,22.7198222 C167.988785,22.7198222 167.694751,23.0977347 167.694751,23.5701252 C167.694751,24.9518676 171.752422,24.3141404 171.752422,27.3138205 Z M179.595944,27.3138205 C179.595944,29.0616656 178.384524,30.1363542 176.326285,30.1363542 C175.303047,30.1363542 174.362138,29.8883491 173.597649,29.4750074 L173.856399,27.7625916 C174.632649,28.1759333 175.432422,28.4121286 176.302763,28.4121286 C177.267194,28.4121286 177.690603,28.0578356 177.690603,27.4437279 C177.690603,26.0501757 173.632933,26.6406639 173.632933,23.6764131 C173.632933,22.176573 174.597365,20.9601673 176.832024,20.9601673 C177.690603,20.9601673 178.619751,21.1373138 179.30191,21.4207481 L179.054922,23.0977347 C178.325717,22.8615393 177.596513,22.7198222 176.926115,22.7198222 C175.832308,22.7198222 175.538274,23.0977347 175.538274,23.5701252 C175.538274,24.9518676 179.595944,24.3141404 179.595944,27.3138205 Z M187.956967,22.9087784 L185.581172,22.9087784 L185.581172,29.9710175 L183.58174,29.9710175 L183.58174,22.9087784 L181.217706,22.9087784 L181.264751,21.1136942 L187.909922,21.1136942 L187.956967,22.9087784 Z M191.966286,28.2349821 L196.023956,28.2349821 L195.976911,29.9710175 L189.978615,29.9710175 L189.978615,21.1136942 L195.80049,21.1136942 L195.835774,22.8733491 L191.966286,22.8733491 L191.966286,24.633004 L195.224183,24.633004 L195.224183,26.2155124 L191.966286,26.2155124 L191.966286,28.2349821 Z M200.303786,28.1759333 L203.938047,28.1759333 L203.891002,29.9710175 L198.304354,29.9710175 L198.304354,21.1136942 L200.303786,21.1136942 L200.303786,28.1759333 Z M208.029695,28.1759333 L211.663956,28.1759333 L211.616911,29.9710175 L206.030263,29.9710175 L206.030263,21.1136942 L208.029695,21.1136942 L208.029695,28.1759333 Z M215.743843,28.2349821 L219.801513,28.2349821 L219.754468,29.9710175 L213.756172,29.9710175 L213.756172,21.1136942 L219.578047,21.1136942 L219.613331,22.8733491 L215.743843,22.8733491 L215.743843,24.633004 L219.00174,24.633004 L219.00174,26.2155124 L215.743843,26.2155124 L215.743843,28.2349821 Z M77.3583308,43.8934173 C77.3583308,45.4641161 76.6291262,46.3734681 74.7002626,46.3734681 L71.4658876,46.3734681 L71.4658876,37.5161447 L74.5238421,37.5161447 C76.1586717,37.5161447 76.9819671,38.2129208 76.9819671,39.6891413 C76.9819671,40.8464982 76.429183,41.460606 75.6882171,41.6731817 L75.6882171,41.6968012 C76.7232171,41.909377 77.3583308,42.5825336 77.3583308,43.8934173 Z M76.5938421,43.8343687 C76.5938421,42.6297726 75.9587285,42.0747137 74.6649785,42.0747137 L72.2068535,42.0747137 L72.2068535,45.6885015 L74.712024,45.6885015 C75.8881603,45.6885015 76.5938421,45.2043015 76.5938421,43.8343687 Z M76.2410012,39.8190487 C76.2410012,38.6735016 75.6882171,38.2129208 74.5003194,38.2129208 L72.2186149,38.2129208 L72.2186149,41.4369864 L74.5944103,41.4369864 C75.6999785,41.4369864 76.2410012,40.8937373 76.2410012,39.8190487 Z M81.3206035,45.6412627 L86.0016262,45.6412627 L85.9663421,46.3734681 L80.5561149,46.3734681 L80.5561149,37.5161447 L85.7546376,37.5161447 L85.7899217,38.2483501 L81.3206035,38.2483501 L81.3206035,41.4015571 L85.1900921,41.4015571 L85.1900921,42.062904 L81.3206035,42.062904 L81.3206035,45.6412627 Z M94.4096944,39.9135268 C94.4096944,41.3543181 93.751058,42.110143 92.5278762,42.2518601 L94.9860012,46.3734681 L94.0450921,46.3734681 L91.7869103,42.3935773 L89.740433,42.3935773 L89.740433,46.3734681 L88.964183,46.3734681 L88.964183,37.5161447 L91.8221944,37.5161447 C93.5981603,37.5161447 94.4096944,38.2955891 94.4096944,39.9135268 Z M93.6099217,39.9489561 C93.6099217,38.7089309 93.0571376,38.2129208 91.8221944,38.2129208 L89.740433,38.2129208 L89.740433,41.7558501 L91.7516262,41.7558501 C93.0336149,41.7558501 93.6099217,41.2362204 93.6099217,39.9489561 Z M98.4542967,45.6176428 L102.829524,45.6176428 L102.79424,46.3734681 L97.6780467,46.3734681 L97.6780467,37.5161447 L98.4542967,37.5161447 L98.4542967,45.6176428 Z M105.662706,46.3734681 L105.662706,37.5161447 L106.438956,37.5161447 L106.438956,46.3734681 L105.662706,46.3734681 Z M116.634751,46.3734681 L116.058444,46.3734681 L111.495035,39.5238046 L110.977535,38.7207406 L110.954013,38.7325504 L110.965774,39.6891413 L110.965774,46.3734681 L110.260092,46.3734681 L110.260092,37.5161447 L111.024581,37.5161447 L115.435092,44.2004712 L115.952592,45.0035354 L115.976115,44.9917257 L115.952592,44.0469445 L115.940831,37.5161447 L116.634751,37.5161447 L116.634751,46.3734681 Z"/><ellipse cx="22.496" cy="30.34" stroke="#000" stroke-width="1.307" rx="22.404" ry="22.496" transform="rotate(-90 22.496 30.34)"/><ellipse cx="47.593" cy="5.628" stroke="#000" stroke-width="1.307" rx="5.628" ry="5.651" transform="rotate(-90 47.593 5.628)"/></g></svg>