<?xml version="1.0" encoding="UTF-8"?>
<svg width="221px" height="53px" viewBox="0 0 221 53" version="1.1" xmlns="http://www.w3.org/2000/svg" xmlns:xlink="http://www.w3.org/1999/xlink">
    <!-- Generator: Sketch 55.1 (78136) - https://sketchapp.com -->
    <title>Odis_Berlin_logo_colored</title>
    <desc>Created with Sketch.</desc>
    <g id="Page-1" stroke="none" stroke-width="1" fill="none" fill-rule="evenodd">
        <g id="Odis_Berlin_logo_colored" fill-rule="nonzero">
            <path d="M79.5602462,9.16306492 C79.5602462,12.3753208 78.4429167,13.7570632 75.6789962,13.7570632 C72.9621212,13.7570632 71.7859848,12.316272 71.7859848,9.16306492 C71.7859848,6.00985783 72.9268371,4.59268613 75.6789962,4.59268613 C78.4429167,4.59268613 79.5602462,6.00985783 79.5602462,9.16306492 Z M77.4902462,9.16306492 C77.4902462,6.9192097 77.031553,6.37596055 75.6789962,6.37596055 C74.3382008,6.37596055 73.8677462,6.9192097 73.8677462,9.16306492 C73.8677462,11.4069201 74.3499621,11.9737888 75.6907576,11.9737888 C77.0197917,11.9737888 77.4902462,11.3951104 77.4902462,9.16306492 Z M88.5681439,7.76951273 C88.5681439,9.63545547 87.5801894,10.710144 85.1220644,10.710144 L83.945928,10.710144 L83.945928,13.5917265 L81.9582576,13.5917265 L81.9582576,4.73440329 L85.1220644,4.73440329 C87.568428,4.73440329 88.5681439,5.70280396 88.5681439,7.76951273 Z M86.5216667,7.75770298 C86.5216667,6.69482419 86.145303,6.39958007 85.1220644,6.39958007 L83.945928,6.39958007 L83.945928,9.11582584 L85.1220644,9.11582584 C86.0982576,9.11582584 86.5216667,8.8678208 86.5216667,7.75770298 Z M92.800928,11.8556912 L96.8585985,11.8556912 L96.811553,13.5917265 L90.8132576,13.5917265 L90.8132576,4.73440329 L96.6351326,4.73440329 L96.6704167,6.49405819 L92.800928,6.49405819 L92.800928,8.25371305 L96.0588258,8.25371305 L96.0588258,9.83622147 L92.800928,9.83622147 L92.800928,11.8556912 Z M106.254621,13.5917265 L104.86678,13.5917265 L101.444223,8.76153292 L100.914962,7.97027873 L100.891439,7.98208849 L100.903201,8.9386794 L100.903201,13.5917265 L99.1389962,13.5917265 L99.1389962,4.73440329 L100.832633,4.73440329 L103.972917,9.30478208 L104.502178,10.0960363 L104.525701,10.0842265 L104.502178,9.1394454 L104.502178,4.73440329 L106.254621,4.73440329 L106.254621,13.5917265 Z M123.164848,9.1276356 C123.164848,12.3280818 121.835814,13.5917265 119.224792,13.5917265 L115.896326,13.5917265 L115.896326,4.73440329 L119.201269,4.73440329 C122.000473,4.73440329 123.164848,6.06890667 123.164848,9.1276356 Z M121.083087,9.11582584 C121.083087,7.01368782 120.577348,6.51767771 119.177746,6.51767771 L117.883996,6.51767771 L117.883996,11.8202619 L119.189508,11.8202619 C120.542064,11.8202619 121.083087,11.3833006 121.083087,9.11582584 Z M130.773144,13.5917265 L130.279167,11.8675009 L127.080076,11.8675009 L126.586098,13.5917265 L124.492576,13.5917265 L127.538769,4.73440329 L129.902803,4.73440329 L132.98428,13.5917265 L130.773144,13.5917265 Z M128.691383,6.23424335 L128.444394,7.16721474 L127.562292,10.2023242 L129.808712,10.2023242 L128.961894,7.16721474 L128.726667,6.23424335 L128.691383,6.23424335 Z M140.192689,6.52948747 L137.816894,6.52948747 L137.816894,13.5917265 L135.817462,13.5917265 L135.817462,6.52948747 L133.453428,6.52948747 L133.500473,4.73440329 L140.145644,4.73440329 L140.192689,6.52948747 Z M146.942405,13.5917265 L146.448428,11.8675009 L143.249337,11.8675009 L142.75536,13.5917265 L140.661837,13.5917265 L143.70803,4.73440329 L146.072064,4.73440329 L149.153542,13.5917265 L146.942405,13.5917265 Z M144.860644,6.23424335 L144.613655,7.16721474 L143.731553,10.2023242 L145.977973,10.2023242 L145.131155,7.16721474 L144.895928,6.23424335 L144.860644,6.23424335 Z M72.244678,29.9941769 L72.244678,21.1368537 L74.2676326,21.1368537 L74.2676326,29.9941769 L72.244678,29.9941769 Z M84.2282008,29.9941769 L82.8403598,29.9941769 L79.417803,25.1639834 L78.8885417,24.3727291 L78.8650189,24.3845389 L78.8767803,25.3411298 L78.8767803,29.9941769 L77.1125758,29.9941769 L77.1125758,21.1368537 L78.8062121,21.1368537 L81.9464962,25.7072325 L82.4757576,26.4984867 L82.4992803,26.4866769 L82.4757576,25.5418958 L82.4757576,21.1368537 L84.2282008,21.1368537 L84.2282008,29.9941769 Z M92.800928,22.9319379 L88.9314394,22.9319379 L88.9314394,24.8451197 L92.154053,24.8451197 L92.1305303,26.5457258 L88.9314394,26.5457258 L88.9314394,29.9941769 L86.9555303,29.9941769 L86.9555303,21.1368537 L92.7656439,21.1368537 L92.800928,22.9319379 Z M102.291042,25.5655154 C102.291042,28.7777712 101.173712,30.1595137 98.4097917,30.1595137 C95.6929167,30.1595137 94.5167803,28.7187224 94.5167803,25.5655154 C94.5167803,22.4123083 95.6576326,20.9951366 98.4097917,20.9951366 C101.173712,20.9951366 102.291042,22.4123083 102.291042,25.5655154 Z M100.221042,25.5655154 C100.221042,23.3216601 99.7623485,22.7784109 98.4097917,22.7784109 C97.0689962,22.7784109 96.5985417,23.3216601 96.5985417,25.5655154 C96.5985417,27.8093706 97.0807576,28.3762392 98.421553,28.3762392 C99.7505871,28.3762392 100.221042,27.7975608 100.221042,25.5655154 Z M111.204848,23.8885288 C111.204848,25.1285541 110.675587,26.0024766 109.722917,26.2977207 L111.781155,29.9941769 L109.464167,29.9941769 L107.923428,26.6874429 L106.676723,26.6874429 L106.676723,29.9941769 L104.689053,29.9941769 L104.689053,21.1368537 L107.923428,21.1368537 C110.111042,21.1368537 111.204848,21.9989665 111.204848,23.8885288 Z M109.134848,23.9711972 C109.134848,23.0736551 108.80553,22.7902207 107.935189,22.7902207 L106.676723,22.7902207 L106.676723,25.1994126 L107.899905,25.1994126 C108.782008,25.1994126 109.134848,24.9277881 109.134848,23.9711972 Z M113.732235,21.1368537 L115.919848,21.1368537 L117.966326,26.3095305 L118.295644,27.1952628 L118.330928,27.1952628 L118.660246,26.3095305 L120.718485,21.1368537 L122.906098,21.1368537 L122.906098,29.9941769 L121.094848,29.9941769 L121.094848,25.482847 L121.118371,24.5262561 L121.083087,24.5144463 L120.753769,25.4119884 L118.942519,29.9941769 L117.625246,29.9941769 L115.825758,25.4237982 L115.496439,24.5262561 L115.472917,24.5380658 L115.484678,25.4946568 L115.484678,29.9941769 L113.732235,29.9941769 L113.732235,21.1368537 Z M131.137746,29.9941769 L130.643769,28.2699514 L127.444678,28.2699514 L126.950701,29.9941769 L124.857178,29.9941769 L127.903371,21.1368537 L130.267405,21.1368537 L133.348883,29.9941769 L131.137746,29.9941769 Z M129.055985,22.6366938 L128.808996,23.5696652 L127.926894,26.6047746 L130.173314,26.6047746 L129.326496,23.5696652 L129.091269,22.6366938 L129.055985,22.6366938 Z M140.557292,22.9319379 L138.181496,22.9319379 L138.181496,29.9941769 L136.182064,29.9941769 L136.182064,22.9319379 L133.81803,22.9319379 L133.865076,21.1368537 L140.510246,21.1368537 L140.557292,22.9319379 Z M142.708314,29.9941769 L142.708314,21.1368537 L144.731269,21.1368537 L144.731269,29.9941769 L142.708314,29.9941769 Z M155.021155,25.5655154 C155.021155,28.7777712 153.903826,30.1595137 151.139905,30.1595137 C148.42303,30.1595137 147.246894,28.7187224 147.246894,25.5655154 C147.246894,22.4123083 148.387746,20.9951366 151.139905,20.9951366 C153.903826,20.9951366 155.021155,22.4123083 155.021155,25.5655154 Z M152.951155,25.5655154 C152.951155,23.3216601 152.492462,22.7784109 151.139905,22.7784109 C149.79911,22.7784109 149.328655,23.3216601 149.328655,25.5655154 C149.328655,27.8093706 149.810871,28.3762392 151.151667,28.3762392 C152.480701,28.3762392 152.951155,27.7975608 152.951155,25.5655154 Z M164.534792,29.9941769 L163.146951,29.9941769 L159.724394,25.1639834 L159.195133,24.3727291 L159.17161,24.3845389 L159.183371,25.3411298 L159.183371,29.9941769 L157.419167,29.9941769 L157.419167,21.1368537 L159.112803,21.1368537 L162.253087,25.7072325 L162.782348,26.4984867 L162.805871,26.4866769 L162.782348,25.5418958 L162.782348,21.1368537 L164.534792,21.1368537 L164.534792,29.9941769 Z M172.872292,27.33698 C172.872292,29.0848251 171.660871,30.1595137 169.602633,30.1595137 C168.579394,30.1595137 167.638485,29.9115086 166.873996,29.4981669 L167.132746,27.785751 C167.908996,28.1990928 168.708769,28.4352881 169.57911,28.4352881 C170.543542,28.4352881 170.966951,28.0809951 170.966951,27.4668874 C170.966951,26.0733352 166.90928,26.6638234 166.90928,23.6995726 C166.90928,22.1997325 167.873712,20.9833268 170.108371,20.9833268 C170.966951,20.9833268 171.896098,21.1604732 172.578258,21.4439076 L172.331269,23.1208941 C171.602064,22.8846988 170.87286,22.7429817 170.202462,22.7429817 C169.108655,22.7429817 168.814621,23.1208941 168.814621,23.5932847 C168.814621,24.9750271 172.872292,24.3372998 172.872292,27.33698 Z M180.715814,27.33698 C180.715814,29.0848251 179.504394,30.1595137 177.446155,30.1595137 C176.422917,30.1595137 175.482008,29.9115086 174.717519,29.4981669 L174.976269,27.785751 C175.752519,28.1990928 176.552292,28.4352881 177.422633,28.4352881 C178.387064,28.4352881 178.810473,28.0809951 178.810473,27.4668874 C178.810473,26.0733352 174.752803,26.6638234 174.752803,23.6995726 C174.752803,22.1997325 175.717235,20.9833268 177.951894,20.9833268 C178.810473,20.9833268 179.739621,21.1604732 180.42178,21.4439076 L180.174792,23.1208941 C179.445587,22.8846988 178.716383,22.7429817 178.045985,22.7429817 C176.952178,22.7429817 176.658144,23.1208941 176.658144,23.5932847 C176.658144,24.9750271 180.715814,24.3372998 180.715814,27.33698 Z M189.076837,22.9319379 L186.701042,22.9319379 L186.701042,29.9941769 L184.70161,29.9941769 L184.70161,22.9319379 L182.337576,22.9319379 L182.384621,21.1368537 L189.029792,21.1368537 L189.076837,22.9319379 Z M193.086156,28.2581416 L197.143826,28.2581416 L197.096781,29.9941769 L191.098485,29.9941769 L191.098485,21.1368537 L196.92036,21.1368537 L196.955644,22.8965086 L193.086156,22.8965086 L193.086156,24.6561635 L196.344053,24.6561635 L196.344053,26.2386719 L193.086156,26.2386719 L193.086156,28.2581416 Z M201.423656,28.1990928 L205.057917,28.1990928 L205.010872,29.9941769 L199.424224,29.9941769 L199.424224,21.1368537 L201.423656,21.1368537 L201.423656,28.1990928 Z M209.149565,28.1990928 L212.783826,28.1990928 L212.736781,29.9941769 L207.150133,29.9941769 L207.150133,21.1368537 L209.149565,21.1368537 L209.149565,28.1990928 Z M216.863713,28.2581416 L220.921383,28.2581416 L220.874338,29.9941769 L214.876042,29.9941769 L214.876042,21.1368537 L220.697917,21.1368537 L220.733201,22.8965086 L216.863713,22.8965086 L216.863713,24.6561635 L220.12161,24.6561635 L220.12161,26.2386719 L216.863713,26.2386719 L216.863713,28.2581416 Z M78.4782008,43.9165768 C78.4782008,45.4872755 77.7489962,46.3966276 75.8201326,46.3966276 L72.5857576,46.3966276 L72.5857576,37.5393042 L75.6437121,37.5393042 C77.2785417,37.5393042 78.1018371,38.2360802 78.1018371,39.7123008 C78.1018371,40.8696577 77.549053,41.4837654 76.8080871,41.6963412 L76.8080871,41.7199607 C77.8430871,41.9325365 78.4782008,42.6056931 78.4782008,43.9165768 Z M77.7137121,43.8575282 C77.7137121,42.6529321 77.0785985,42.0978732 75.7848485,42.0978732 L73.3267235,42.0978732 L73.3267235,45.711661 L75.8318939,45.711661 C77.0080303,45.711661 77.7137121,45.2274609 77.7137121,43.8575282 Z M77.3608712,39.8422082 C77.3608712,38.6966611 76.8080871,38.2360802 75.6201894,38.2360802 L73.3384848,38.2360802 L73.3384848,41.4601459 L75.7142803,41.4601459 C76.8198485,41.4601459 77.3608712,40.9168968 77.3608712,39.8422082 Z M82.4404735,45.6644222 L87.1214962,45.6644222 L87.0862121,46.3966276 L81.6759848,46.3966276 L81.6759848,37.5393042 L86.8745076,37.5393042 L86.9097917,38.2715096 L82.4404735,38.2715096 L82.4404735,41.4247166 L86.3099621,41.4247166 L86.3099621,42.0860634 L82.4404735,42.0860634 L82.4404735,45.6644222 Z M95.5295644,39.9366863 C95.5295644,41.3774776 94.870928,42.1333025 93.6477462,42.2750196 L96.1058712,46.3966276 L95.1649621,46.3966276 L92.9067803,42.4167368 L90.860303,42.4167368 L90.860303,46.3966276 L90.084053,46.3966276 L90.084053,37.5393042 L92.9420644,37.5393042 C94.7180303,37.5393042 95.5295644,38.3187486 95.5295644,39.9366863 Z M94.7297917,39.9721156 C94.7297917,38.7320903 94.1770076,38.2360802 92.9420644,38.2360802 L90.860303,38.2360802 L90.860303,41.7790096 L92.8714962,41.7790096 C94.1534848,41.7790096 94.7297917,41.2593799 94.7297917,39.9721156 Z M99.5741667,45.6408023 L103.949394,45.6408023 L103.91411,46.3966276 L98.7979167,46.3966276 L98.7979167,37.5393042 L99.5741667,37.5393042 L99.5741667,45.6408023 Z M106.782576,46.3966276 L106.782576,37.5393042 L107.558826,37.5393042 L107.558826,46.3966276 L106.782576,46.3966276 Z M117.754621,46.3966276 L117.178314,46.3966276 L112.614905,39.5469641 L112.097405,38.7439001 L112.073883,38.7557099 L112.085644,39.7123008 L112.085644,46.3966276 L111.379962,46.3966276 L111.379962,37.5393042 L112.144451,37.5393042 L116.554962,44.2236307 L117.072462,45.0266949 L117.095985,45.0148852 L117.072462,44.070104 L117.060701,37.5393042 L117.754621,37.5393042 L117.754621,46.3966276 Z" id="Open-Data-Informatio" fill="#000000"></path>
            <ellipse id="Oval-Copy-14" fill="#53B6E7" transform="translate(23.403825, 30.496022) rotate(-90.000000) translate(-23.403825, -30.496022) " cx="23.4038245" cy="30.4960223" rx="22.4038247" ry="22.4960215"></ellipse>
            <ellipse id="Oval-Copy-16" fill="#E60332" transform="translate(48.712543, 5.650867) rotate(-90.000000) translate(-48.712543, -5.650867) " cx="48.7125429" cy="5.6508668" rx="5.62770748" ry="5.65086678"></ellipse>
            <ellipse id="Oval-Copy-16-Copy" fill="#16469D" transform="translate(23.627707, 30.650867) rotate(-90.000000) translate(-23.627707, -30.650867) " cx="23.6277068" cy="30.6508665" rx="5.62770748" ry="5.65086678"></ellipse>
        </g>
    </g>
</svg>