<svg id="Ebene_1" data-name="Ebene 1" xmlns="http://www.w3.org/2000/svg" width="300mm" height="200mm" viewBox="0 0 850.39 566.93"><defs><style>.cls-1{fill:#e40422;}</style></defs><path d="M0,0V566.93H850.39V0ZM5.67,5.67H566.93V277.8H5.67ZM844.72,561.26H5.67V283.46H844.72Zm0-283.46H572.6V5.67H844.72Z"/><path class="cls-1" d="M485.55,96v62.44c0,.81-.54,1.08-.95.27L449,95.47a2.38,2.38,0,0,0-2-1.08H431.7A1.56,1.56,0,0,0,430.08,96v91.16a1.56,1.56,0,0,0,1.62,1.62h13.22a1.56,1.56,0,0,0,1.62-1.62v-62.3c0-.81.54-1.08.95-.27l35.63,63.11a2.38,2.38,0,0,0,2,1.08H500.4a1.57,1.57,0,0,0,1.62-1.62V96a1.57,1.57,0,0,0-1.62-1.62H487.17A1.56,1.56,0,0,0,485.55,96m-95.36,92.78h13.36a1.56,1.56,0,0,0,1.62-1.62V96a1.56,1.56,0,0,0-1.62-1.62H390.19A1.57,1.57,0,0,0,388.57,96v91.16a1.57,1.57,0,0,0,1.62,1.62m-53.28-16.45V96a1.57,1.57,0,0,0-1.62-1.62H321.93A1.56,1.56,0,0,0,320.31,96v91.16a1.56,1.56,0,0,0,1.62,1.62h46a1.56,1.56,0,0,0,1.62-1.62V174.76a1.56,1.56,0,0,0-1.62-1.62H337.72a.77.77,0,0,1-.81-.8M249.61,110H261.9c10.93,0,19.7,5.8,19.7,17.8s-8.77,17.8-19.84,17.8H249.61a.78.78,0,0,1-.8-.81v-34a.71.71,0,0,1,.8-.8m31.32,78.75h17c1.35,0,1.76-.95.95-2l-20.25-27.37a.78.78,0,0,1,.27-1.21c12-4.86,20-15.51,20-30.34,0-21-15.93-33.45-36.17-33.45H233.82A1.57,1.57,0,0,0,232.2,96v91.16a1.57,1.57,0,0,0,1.62,1.62h13.37a1.57,1.57,0,0,0,1.62-1.62V162.09a.77.77,0,0,1,.8-.81h10.26a1.66,1.66,0,0,1,1.08.54L279,187.71a2.16,2.16,0,0,0,1.89,1.08m-73.26-80.37V96a1.57,1.57,0,0,0-1.62-1.62H156.92A1.57,1.57,0,0,0,155.3,96v91.16a1.57,1.57,0,0,0,1.62,1.62h49.13a1.57,1.57,0,0,0,1.62-1.62V174.76a1.57,1.57,0,0,0-1.62-1.62H172.58a.77.77,0,0,1-.81-.8V149.68a.78.78,0,0,1,.81-.81h33.47a1.56,1.56,0,0,0,1.62-1.62V135a1.57,1.57,0,0,0-1.62-1.62H172.58a.71.71,0,0,1-.81-.8V110.84a.77.77,0,0,1,.81-.8h33.47a1.57,1.57,0,0,0,1.62-1.62M102.45,173.14H88.14a.77.77,0,0,1-.81-.8V149.68a.72.72,0,0,1,.81-.81h14.31c8.77,0,13.63,5,13.63,12.14s-4.86,12.13-13.63,12.13M101.1,110c8.5,0,13.22,4.58,13.22,11.59s-4.72,11.73-13.22,11.73h-13a.71.71,0,0,1-.81-.8V110.84a.71.71,0,0,1,.81-.8Zm19.7,29.66a22.57,22.57,0,0,0,10.8-19.82c0-14.43-10-25.49-28.34-25.49H72.48A1.56,1.56,0,0,0,70.87,96v91.16a1.56,1.56,0,0,0,1.61,1.62h32c18.9,0,28.88-11.47,28.88-26.57,0-9.84-4.72-17.26-12.55-21.44-.54-.4-.54-.81,0-1.08"/><path d="M750.31,222.16s-4.95-32.87-7.3-46.73l1-.21a3.06,3.06,0,0,0,2-4.53C740.45,161,738.44,149,738.44,137A64.34,64.34,0,0,1,742,116c.13-.38.26-.75.4-1.13l.28-.81a62,62,0,0,0,5-18.43,52.39,52.39,0,0,0-4.1-25.28c-.15-.27-.3-.54-.46-.8a6.56,6.56,0,0,0,.86-8c-1.83-3.16-5.59-4.42-8.4-2.8-.29.17-1,.66-1.3.89-.51-.38-.81-.57-.81-.57s-.79-.52-1.47-.87c0,0-.26-.13-.26-.14a22.88,22.88,0,0,0-9.37-1.95,23.68,23.68,0,0,0-4.8.49,23.27,23.27,0,0,0-9.1,4.08,13.57,13.57,0,0,1-2.88.55l-3.8.18c-1.79.07-3.83,0-3.83,0A1.62,1.62,0,0,0,696.33,63c0,.08.59,5.3.59,5.32a4.27,4.27,0,0,0,1.79,3.25l.13.09a1.42,1.42,0,0,1,.6.62,5.87,5.87,0,0,0,1.84,2.62c.26.16.67.08.74-.21.73-2.85,2.43.22,5.66-1.53.83-.45,1.27,1.57.92,2.45l-.3.76a5.1,5.1,0,0,1-4,3.18c-1.43.21-2.25.35-2.23.55.17,1.61,0,3,1.62,4a3.94,3.94,0,0,0,.71.31c2.51.66,9.84,3.47.52,14.46a24.44,24.44,0,0,0-1.56,2,5.25,5.25,0,0,0-.51.89l-.2.39-28-10.47a6.38,6.38,0,0,1-2.44-2l-2.76-4.74a7.27,7.27,0,0,0-6.18-3.51,24.92,24.92,0,0,0-3.9,0c-.83,0-1.31.24-1.49.73a5.07,5.07,0,0,0,.61,3.51l2.4,4.41c.21.31,3.24,7.09,3.24,7.09a5.05,5.05,0,0,0,1.51,2.14L694.36,121l-30.29,15.11a3.72,3.72,0,0,1-2.85.29l-2.71-.82c-5-2.21-8.69-.67-10.88,1.16l-.85.81a1.44,1.44,0,0,0,.41,2.4s4.78,2.81,5.84,3.53l7.44,4.41a5.45,5.45,0,0,0,3.83.62l29.41-5.93a101.78,101.78,0,0,0,3.54,20.62,53,53,0,0,0-15,28.19c-1.42,7.94-1,15.13,1.21,23.59-4.11.23-8.07.83-11.36,3.12s-3.78,6.06-3.8,8l23,.05h1.94a3.29,3.29,0,0,0,3-2.44,15.48,15.48,0,0,0,.43-2.38,51.59,51.59,0,0,1,5.39-17.6,58.19,58.19,0,0,1,9.15-12.65,91.22,91.22,0,0,0,26,24.1,25.58,25.58,0,0,0-9.56,2.57,9.83,9.83,0,0,0-4.76,8.46h23.79a3.68,3.68,0,0,0,3.49-2.49,3.9,3.9,0,0,0,.12-.46c0-.11,0-.23,0-.34A3.14,3.14,0,0,0,750.31,222.16Z"/><path d="M74.07,368a11.15,11.15,0,0,1-4.27-5.8l0-.2a.48.48,0,0,1,.35-.45l2.55-1.05a.58.58,0,0,1,.25,0,.37.37,0,0,1,.25.1.87.87,0,0,1,.15.25,7.69,7.69,0,0,0,2.87,4.2,8.19,8.19,0,0,0,4.93,1.5,7.71,7.71,0,0,0,5.47-1.8,6.7,6.7,0,0,0,.2-9.2,9.09,9.09,0,0,0-4.72-2.3l-2.55-.5a11.18,11.18,0,0,1-6.33-3.23,8.9,8.9,0,0,1-2.32-6.37,9.19,9.19,0,0,1,1.35-4.87,9.72,9.72,0,0,1,3.72-3.53,11.95,11.95,0,0,1,11.93.63,11,11,0,0,1,4,5.27.3.3,0,0,1,.05.2.49.49,0,0,1-.35.45l-2.6,1.1a.49.49,0,0,1-.25.05.32.32,0,0,1-.25-.1.53.53,0,0,1-.15-.25,7.91,7.91,0,0,0-2.78-3.7A7,7,0,0,0,81.35,337a6.71,6.71,0,0,0-4.83,1.7,5.77,5.77,0,0,0-1.77,4.35,5.56,5.56,0,0,0,1.4,3.9,7,7,0,0,0,4.15,2l2.55.5a13.8,13.8,0,0,1,6.85,3.4,9,9,0,0,1,2.7,6.9A10.17,10.17,0,0,1,91,365.07a9.56,9.56,0,0,1-4,3.7,12.76,12.76,0,0,1-6,1.35A11.94,11.94,0,0,1,74.07,368Z"/><path d="M102.77,368.32a10.59,10.59,0,0,1-4.17-4.27,14.38,14.38,0,0,1,0-12.73,10.71,10.71,0,0,1,4.05-4.25,11.3,11.3,0,0,1,5.78-1.5,11.13,11.13,0,0,1,5.72,1.5,10.71,10.71,0,0,1,4,4.12,12.06,12.06,0,0,1,1.45,5.93,10.81,10.81,0,0,1,0,1.15.48.48,0,0,1-.5.4H101.4c-.4,0-.55.22-.45.65a8.23,8.23,0,0,0,2.52,5.25,7.73,7.73,0,0,0,5.43,1.95,8.81,8.81,0,0,0,6.55-2.9c.37-.37.65-.43.85-.2l1.65,1.8a.39.39,0,0,1,0,.65,12.78,12.78,0,0,1-4.13,2.93,12.11,12.11,0,0,1-4.92,1A12.34,12.34,0,0,1,102.77,368.32Zm12.93-13.15a7.62,7.62,0,0,0-2.48-4.57,7.06,7.06,0,0,0-4.82-1.73,7.18,7.18,0,0,0-4.88,1.78,7.42,7.42,0,0,0-2.47,4.57l0,.25c0,.2.16.3.5.3h13.75Q115.85,355.77,115.7,355.17Z"/><path d="M128.5,369.27h-2.65a.44.44,0,0,1-.5-.5v-22.2a.44.44,0,0,1,.5-.5h2.4a.44.44,0,0,1,.5.5v1.65c0,.14,0,.22.12.25s.18,0,.28-.15a8.5,8.5,0,0,1,2.65-2.05,7.81,7.81,0,0,1,3.4-.7,7.59,7.59,0,0,1,5.75,2.15,7.69,7.69,0,0,1,2.05,5.5v15.55a.44.44,0,0,1-.5.5h-2.65a.44.44,0,0,1-.5-.5V353.82a5.12,5.12,0,0,0-1.25-3.72,4.82,4.82,0,0,0-3.6-1.28,5.49,5.49,0,0,0-3,.85,6.77,6.77,0,0,0-2.25,2.45,2.26,2.26,0,0,0-.25,1.05v15.6A.44.44,0,0,1,128.5,369.27Z"/><path d="M154.3,368.24a10.88,10.88,0,0,1-4.1-4.27,14,14,0,0,1,0-12.6,10.94,10.94,0,0,1,4.1-4.27,11.22,11.22,0,0,1,5.8-1.53,9.38,9.38,0,0,1,7.55,3.1.16.16,0,0,0,.2.05c.07,0,.1-.1.1-.2v-1.95a.44.44,0,0,1,.5-.5h2.45a.44.44,0,0,1,.5.5v22.2a.44.44,0,0,1-.5.5h-2.45a.44.44,0,0,1-.5-.5v-1.95c0-.1,0-.17-.1-.2a.17.17,0,0,0-.2.05,10.28,10.28,0,0,1-7.55,3.1A11.22,11.22,0,0,1,154.3,368.24Zm10.55-2.77a6.23,6.23,0,0,0,2.7-2.7,2,2,0,0,0,.2-.9v-8.4a2,2,0,0,0-.2-.9,6.89,6.89,0,0,0-2.78-2.7,8.51,8.51,0,0,0-4.12-1,7.81,7.81,0,0,0-6,2.43,10.09,10.09,0,0,0,0,12.75,7.81,7.81,0,0,0,6,2.42A8.66,8.66,0,0,0,164.85,365.47Z"/><path d="M180.55,337l2.7-1.45a.57.57,0,0,1,.24-.05c.24,0,.35.14.35.4v9.9c0,.17.09.25.26.25h2.75a.44.44,0,0,1,.5.5v2.15a.44.44,0,0,1-.5.5H184.1c-.17,0-.26.08-.26.25v19.3a.44.44,0,0,1-.5.5H180.7a.44.44,0,0,1-.5-.5v-19.3c0-.17-.09-.25-.26-.25H177.2a.44.44,0,0,1-.5-.5v-2.15a.44.44,0,0,1,.5-.5h2.74c.17,0,.26-.08.26-.25v-8.2A.58.58,0,0,1,180.55,337Z"/><path d="M193.62,368.32a7.76,7.76,0,0,1-2.82-4l-.05-.2a.4.4,0,0,1,.34-.4l2.41-.85.2-.05c.2,0,.35.13.44.4a4.46,4.46,0,0,0,1.73,2.5,4.65,4.65,0,0,0,2.73.9,4.55,4.55,0,0,0,3.2-1,3.46,3.46,0,0,0,1.1-2.63,3.07,3.07,0,0,0-1.08-2.5,6.41,6.41,0,0,0-3-1.25l-2-.4a6.83,6.83,0,0,1-4.05-2.27,6.4,6.4,0,0,1-1.49-4.28,6.32,6.32,0,0,1,.95-3.4,6.56,6.56,0,0,1,2.67-2.43,8.48,8.48,0,0,1,3.88-.87,7.63,7.63,0,0,1,4.67,1.43,7.33,7.33,0,0,1,2.67,4.07l.06.2c0,.2-.14.35-.41.45l-2.35.6-.19.05c-.2,0-.34-.13-.4-.4a4.43,4.43,0,0,0-1.43-2.35,3.93,3.93,0,0,0-2.62-.85,4.14,4.14,0,0,0-2.83,1,3.05,3.05,0,0,0-1.07,2.4,3,3,0,0,0,.85,2.3,5.09,5.09,0,0,0,2.55,1.15l1.95.4a8.42,8.42,0,0,1,4.52,2.32A6.45,6.45,0,0,1,206.5,363a6.33,6.33,0,0,1-2.13,4.92,8.23,8.23,0,0,1-5.77,1.93A8.13,8.13,0,0,1,193.62,368.32Z"/><path d="M226.34,346.07h2.81c.36,0,.5.18.39.55l-7.35,22.25a.6.6,0,0,1-.64.4H217.7a.63.63,0,0,1-.66-.4l-7.35-22.25-.05-.2c0-.23.15-.35.46-.35h2.79a.58.58,0,0,1,.6.4l5.95,18.45c0,.1.09.15.18.15a.18.18,0,0,0,.17-.15l6-18.45A.58.58,0,0,1,226.34,346.07Z"/><path d="M238.42,368.32a10.59,10.59,0,0,1-4.17-4.27,14.38,14.38,0,0,1,0-12.73,10.57,10.57,0,0,1,4.05-4.25,11.77,11.77,0,0,1,11.5,0,10.71,10.71,0,0,1,4,4.12,12.16,12.16,0,0,1,1.44,5.93,11.37,11.37,0,0,1,0,1.15.48.48,0,0,1-.5.4H237c-.4,0-.55.22-.44.65a8.13,8.13,0,0,0,2.52,5.25,7.73,7.73,0,0,0,5.43,1.95,8.81,8.81,0,0,0,6.55-2.9c.36-.37.64-.43.85-.2l1.64,1.8c.24.2.24.42,0,.65a12.74,12.74,0,0,1-4.12,2.93,12.11,12.11,0,0,1-4.92,1A12.29,12.29,0,0,1,238.42,368.32Zm12.92-13.15a7.55,7.55,0,0,0-2.47-4.57,7.09,7.09,0,0,0-4.82-1.73,7.18,7.18,0,0,0-4.88,1.78,7.43,7.43,0,0,0-2.48,4.57l-.05.25c0,.2.17.3.5.3h13.75Q251.51,355.77,251.34,355.17Z"/><path d="M271.79,345.62c.31,0,.46.17.46.5v2.65c0,.3-.12.45-.35.45a3.08,3.08,0,0,1-.73-.08,4.36,4.36,0,0,0-.68-.07A6.3,6.3,0,0,0,265,352a2.09,2.09,0,0,0-.35,1.25v15.5a.44.44,0,0,1-.5.5h-2.66a.44.44,0,0,1-.5-.5v-22.2a.44.44,0,0,1,.5-.5h2.4a.44.44,0,0,1,.5.5v1.8c0,.14,0,.22.11.25s.15,0,.24-.1a7.83,7.83,0,0,1,6.31-2.95A4.31,4.31,0,0,1,271.79,345.62Z"/><path d="M300.65,346.07h2.7a.47.47,0,0,1,.37.15.48.48,0,0,1,.08.4l-5.61,22.2c0,.3-.21.45-.55.45h-3.5a.62.62,0,0,1-.64-.55l-4.11-16a.18.18,0,0,0-.17-.15q-.12,0-.18.15l-4.09,16a.65.65,0,0,1-.66.55h-3.5a.52.52,0,0,1-.55-.45l-5.59-22.2,0-.15c0-.27.16-.4.5-.4h2.7c.36,0,.56.15.59.45l4.16,17.55c0,.14.08.2.15.2s.11-.06.14-.2l4.5-17.55a.57.57,0,0,1,.55-.45h2.65a.55.55,0,0,1,.55.45l4.51,17.55c0,.14.08.2.15.2s.11-.06.15-.2L300,346.52A.55.55,0,0,1,300.65,346.07Z"/><path d="M313.15,368.24a10.81,10.81,0,0,1-4.1-4.27,14,14,0,0,1,0-12.6,10.87,10.87,0,0,1,4.1-4.27,11.2,11.2,0,0,1,5.8-1.53,9.39,9.39,0,0,1,7.55,3.1.16.16,0,0,0,.2.05.21.21,0,0,0,.1-.2v-1.95a.44.44,0,0,1,.5-.5h2.45a.44.44,0,0,1,.5.5v22.2a.44.44,0,0,1-.5.5H327.3a.44.44,0,0,1-.5-.5v-1.95a.21.21,0,0,0-.1-.2.17.17,0,0,0-.2.05,10.28,10.28,0,0,1-7.55,3.1A11.2,11.2,0,0,1,313.15,368.24Zm10.54-2.77a6.12,6.12,0,0,0,2.7-2.7,1.87,1.87,0,0,0,.2-.9v-8.4a1.92,1.92,0,0,0-.2-.9,6.87,6.87,0,0,0-2.77-2.7,8.53,8.53,0,0,0-4.13-1,7.81,7.81,0,0,0-6,2.43,10.09,10.09,0,0,0,0,12.75,7.8,7.8,0,0,0,6,2.42A8.63,8.63,0,0,0,323.69,365.47Z"/><path d="M344.1,366.72V369a.44.44,0,0,1-.5.5h-.9a5.48,5.48,0,0,1-3.66-1.12,4.38,4.38,0,0,1-1.29-3.48v-31.3a.44.44,0,0,1,.49-.5h2.65a.45.45,0,0,1,.51.5v30.85q0,1.8,1.5,1.8h.7A.44.44,0,0,1,344.1,366.72Z"/><path d="M351.19,337l2.7-1.45a.67.67,0,0,1,.26-.05c.23,0,.35.14.35.4v9.9c0,.17.08.25.24.25h2.75a.44.44,0,0,1,.5.5v2.15a.44.44,0,0,1-.5.5h-2.75c-.16,0-.24.08-.24.25v19.3a.44.44,0,0,1-.5.5h-2.66a.44.44,0,0,1-.5-.5v-19.3c0-.17-.08-.25-.24-.25h-2.76a.44.44,0,0,1-.5-.5v-2.15a.44.44,0,0,1,.5-.5h2.76c.16,0,.24-.08.24-.25v-8.2A.59.59,0,0,1,351.19,337Z"/><path d="M377.5,346.07h2.65a.44.44,0,0,1,.49.5v22.2c0,.34-.16.5-.49.5h-2.41a.44.44,0,0,1-.5-.5v-1.65a.25.25,0,0,0-.12-.25c-.08,0-.19,0-.32.15a7.62,7.62,0,0,1-6.05,2.75,7.5,7.5,0,0,1-5.73-2.15,7.68,7.68,0,0,1-2-5.5V346.57a.44.44,0,0,1,.5-.5h2.65a.44.44,0,0,1,.5.5v14.95a5.1,5.1,0,0,0,1.25,3.73,4.8,4.8,0,0,0,3.59,1.27,5.44,5.44,0,0,0,3-.85,6.61,6.61,0,0,0,2.25-2.45,2.27,2.27,0,0,0,.26-1.05v-15.6A.44.44,0,0,1,377.5,346.07Z"/><path d="M391.39,369.27h-2.65a.44.44,0,0,1-.5-.5v-22.2a.44.44,0,0,1,.5-.5h2.41a.44.44,0,0,1,.5.5v1.65c0,.14,0,.22.12.25s.17,0,.27-.15a8.65,8.65,0,0,1,2.66-2.05,7.77,7.77,0,0,1,3.39-.7,7.23,7.23,0,0,1,7.8,7.65v15.55a.44.44,0,0,1-.5.5h-2.65a.44.44,0,0,1-.5-.5V353.82A5.12,5.12,0,0,0,401,350.1a4.8,4.8,0,0,0-3.59-1.28,5.5,5.5,0,0,0-3,.85,6.75,6.75,0,0,0-2.24,2.45,2.27,2.27,0,0,0-.26,1.05v15.6A.44.44,0,0,1,391.39,369.27Z"/><path d="M417.74,378.54a11.58,11.58,0,0,1-3.9-2.77.48.48,0,0,1,0-.7l1.7-1.85a.58.58,0,0,1,.35-.2.56.56,0,0,1,.35.2,9.52,9.52,0,0,0,12.25,1.38,6.06,6.06,0,0,0,1.95-4.93v-3.45a.23.23,0,0,0-.15-.25c-.1,0-.21,0-.35.15a9.91,9.91,0,0,1-7.19,2.65,11.22,11.22,0,0,1-5.66-1.45,10.23,10.23,0,0,1-4-4.1,12.37,12.37,0,0,1-1.46-6.1,11.87,11.87,0,0,1,1.5-6,10.59,10.59,0,0,1,4.08-4.08,11.42,11.42,0,0,1,5.72-1.45,9.51,9.51,0,0,1,7.25,2.8c.14.14.24.18.33.15s.12-.13.12-.3v-1.65a.51.51,0,0,1,.5-.5h2.45a.44.44,0,0,1,.5.5V370A8.62,8.62,0,0,1,431,377a12.22,12.22,0,0,1-8,2.53A12.71,12.71,0,0,1,417.74,378.54Zm9.75-14.07a7.13,7.13,0,0,0,2.75-2.55,1.61,1.61,0,0,0,.26-.9v-7.75a1.5,1.5,0,0,0-.26-.9,7.13,7.13,0,0,0-2.75-2.55,8.38,8.38,0,0,0-4.05-.95,7.75,7.75,0,0,0-5.82,2.3,9.12,9.12,0,0,0,0,11.95,7.75,7.75,0,0,0,5.82,2.3A8.38,8.38,0,0,0,427.49,364.47Z"/><path d="M72.2,433.48v-19.3a.23.23,0,0,0-.25-.26H70a.53.53,0,0,1-.35-.12.39.39,0,0,1-.15-.32v-2.2a.44.44,0,0,1,.5-.5h2a.22.22,0,0,0,.25-.25v-7.41a6.24,6.24,0,0,1,1.4-4.32,5.05,5.05,0,0,1,4-1.57,7,7,0,0,1,2.75.64c.3.18.41.37.35.61l-.7,2.35c-.1.3-.32.36-.65.2a3.25,3.25,0,0,0-1.45-.4,1.78,1.78,0,0,0-1.5.7,3.13,3.13,0,0,0-.55,2v7.2a.22.22,0,0,0,.25.25h3.1a.44.44,0,0,1,.5.5v2.2a.39.39,0,0,1-.15.32.55.55,0,0,1-.35.12H76.1c-.17,0-.25.09-.25.26v19.3a.51.51,0,0,1-.13.35.39.39,0,0,1-.32.15H72.7A.44.44,0,0,1,72.2,433.48Z"/><path d="M99,410.78h2.65a.44.44,0,0,1,.5.5v22.2a.44.44,0,0,1-.5.5H99.2a.44.44,0,0,1-.5-.5v-1.66a.23.23,0,0,0-.13-.24c-.08,0-.19,0-.32.15a7.62,7.62,0,0,1-6,2.75,7.5,7.5,0,0,1-5.73-2.15,7.71,7.71,0,0,1-2-5.5V411.28a.44.44,0,0,1,.5-.5H87.6a.44.44,0,0,1,.5.5v15A5.07,5.07,0,0,0,89.35,430a4.81,4.81,0,0,0,3.6,1.28,5.49,5.49,0,0,0,3-.85,6.77,6.77,0,0,0,2.25-2.45,2.39,2.39,0,0,0,.25-1.05v-15.6A.44.44,0,0,1,99,410.78ZM86.5,404.55a2.65,2.65,0,0,1-.8-1.92,2.73,2.73,0,0,1,2.7-2.7,2.73,2.73,0,0,1,2.7,2.7,2.69,2.69,0,0,1-.8,1.92,2.58,2.58,0,0,1-1.9.83A2.55,2.55,0,0,1,86.5,404.55Zm9.85,0a2.65,2.65,0,0,1-.8-1.92,2.73,2.73,0,0,1,2.7-2.7,2.73,2.73,0,0,1,2.7,2.7,2.69,2.69,0,0,1-.8,1.92,2.58,2.58,0,0,1-1.9.83A2.55,2.55,0,0,1,96.35,404.55Z"/><path d="M120.49,410.33c.31,0,.46.17.46.5v2.65c0,.3-.12.44-.36.44a3.65,3.65,0,0,1-.72-.07,3.47,3.47,0,0,0-.67-.07,6.28,6.28,0,0,0-5.5,3,2,2,0,0,0-.35,1.24v15.51a.44.44,0,0,1-.5.5h-2.66a.44.44,0,0,1-.5-.5v-22.2a.44.44,0,0,1,.5-.5h2.41a.44.44,0,0,1,.5.5v1.79c0,.14,0,.22.1.26s.15,0,.25-.1a7.79,7.79,0,0,1,6.29-3A3.53,3.53,0,0,1,120.49,410.33Z"/><path d="M142.09,433.52l-7.9-34-.05-.2c0-.24.17-.35.51-.35h2.85a.51.51,0,0,1,.54.45l6.45,28.4c0,.13.09.2.15.2s.12-.07.15-.2l6.56-28.4a.51.51,0,0,1,.22-.33A.66.66,0,0,1,152,399h2.64a.66.66,0,0,1,.38.12.54.54,0,0,1,.22.33l6.56,28.4c0,.13.08.2.14.2s.12-.07.15-.2l6.46-28.4A.51.51,0,0,1,169,399h2.86c.4,0,.54.18.44.55l-7.89,34c0,.31-.24.46-.6.46h-3.61a.58.58,0,0,1-.37-.13.51.51,0,0,1-.22-.33l-6.21-26.74c0-.13-.09-.2-.17-.2s-.14.07-.18.2l-6.19,26.74a.56.56,0,0,1-.23.33.6.6,0,0,1-.37.13h-3.61A.55.55,0,0,1,142.09,433.52Z"/><path d="M177.77,404.55a2.64,2.64,0,0,1-.83-1.92,2.56,2.56,0,0,1,.83-1.9,2.69,2.69,0,0,1,1.92-.8,2.73,2.73,0,0,1,2.65,2.7,2.65,2.65,0,0,1-.8,1.92,2.5,2.5,0,0,1-1.85.83A2.64,2.64,0,0,1,177.77,404.55Zm0,28.93v-22.2a.44.44,0,0,1,.5-.5h2.65a.44.44,0,0,1,.5.5v22.2a.44.44,0,0,1-.5.5h-2.65A.44.44,0,0,1,177.79,433.48Z"/><path d="M199.84,410.33c.3,0,.45.17.45.5v2.65c0,.3-.11.44-.35.44a3.65,3.65,0,0,1-.72-.07,3.56,3.56,0,0,0-.68-.07,6.29,6.29,0,0,0-5.5,3,2.11,2.11,0,0,0-.35,1.24v15.51a.44.44,0,0,1-.5.5h-2.65a.44.44,0,0,1-.5-.5v-22.2a.44.44,0,0,1,.5-.5h2.4a.44.44,0,0,1,.5.5v1.79c0,.14,0,.22.1.26s.15,0,.25-.1a7.81,7.81,0,0,1,6.3-3A3.59,3.59,0,0,1,199.84,410.33Z"/><path d="M206.44,401.73l2.7-1.45a.62.62,0,0,1,.25,0c.24,0,.35.13.35.4v9.9a.22.22,0,0,0,.25.25h2.76c.33,0,.49.16.49.5v2.14c0,.34-.16.5-.49.5H210a.23.23,0,0,0-.25.26v19.3a.44.44,0,0,1-.5.5h-2.65a.44.44,0,0,1-.5-.5v-19.3c0-.17-.08-.26-.25-.26h-2.75a.44.44,0,0,1-.5-.5v-2.14a.44.44,0,0,1,.5-.5h2.75a.22.22,0,0,0,.25-.25v-8.2A.59.59,0,0,1,206.44,401.73Z"/><path d="M219.52,433a7.8,7.8,0,0,1-2.83-4l0-.2a.39.39,0,0,1,.34-.4l2.4-.85.2-.05c.2,0,.35.13.45.4a4.45,4.45,0,0,0,1.73,2.5,4.63,4.63,0,0,0,2.72.89,4.49,4.49,0,0,0,3.2-1,3.39,3.39,0,0,0,1.11-2.62,3.1,3.1,0,0,0-1.08-2.5,6.25,6.25,0,0,0-3-1.25l-2-.4a6.79,6.79,0,0,1-4.05-2.28,6.71,6.71,0,0,1-.55-7.67,6.65,6.65,0,0,1,2.68-2.43,8.44,8.44,0,0,1,3.87-.87,7.65,7.65,0,0,1,4.68,1.42,7.4,7.4,0,0,1,2.67,4.07l.05.21c0,.2-.13.35-.4.45l-2.35.6-.19.05c-.21,0-.34-.13-.41-.4a4.48,4.48,0,0,0-1.42-2.35,4,4,0,0,0-2.63-.85,4.12,4.12,0,0,0-2.82.94,3.08,3.08,0,0,0-1.08,2.41,3,3,0,0,0,.85,2.3,5.31,5.31,0,0,0,2.55,1.15l1.95.39a8.43,8.43,0,0,1,4.53,2.33,6.43,6.43,0,0,1,1.72,4.68,6.35,6.35,0,0,1-2.12,4.92,8.25,8.25,0,0,1-5.78,1.92A8.12,8.12,0,0,1,219.52,433Z"/><path d="M238.27,416.08a10.61,10.61,0,0,1,4.12-4.28,11.89,11.89,0,0,1,6-1.52,11.72,11.72,0,0,1,5.47,1.27,9.38,9.38,0,0,1,3.88,3.63.49.49,0,0,1,.05.25.51.51,0,0,1-.25.45l-2.15,1.2-.25.1q-.19,0-.45-.3a6.34,6.34,0,0,0-2.6-2.4,7.91,7.91,0,0,0-3.7-.85,7.33,7.33,0,0,0-5.75,2.42,10.38,10.38,0,0,0,0,12.65,7.31,7.31,0,0,0,5.75,2.43,7.76,7.76,0,0,0,3.62-.85,7.27,7.27,0,0,0,2.68-2.4c.2-.3.43-.37.7-.2l2.15,1.2a.5.5,0,0,1,.2.7,8,8,0,0,1-3.72,3.65,12.58,12.58,0,0,1-5.63,1.25,11.8,11.8,0,0,1-6-1.53,10.59,10.59,0,0,1-4.12-4.27,14.15,14.15,0,0,1,0-12.6Z"/><path d="M266.59,434h-2.65a.44.44,0,0,1-.5-.5v-35.2a.44.44,0,0,1,.5-.5h2.65a.44.44,0,0,1,.5.5v14.4c0,.16,0,.26.1.27s.15,0,.25-.17A7.63,7.63,0,0,1,270,411a8,8,0,0,1,3.3-.67,7.23,7.23,0,0,1,7.8,7.65v15.55a.44.44,0,0,1-.5.5h-2.65a.44.44,0,0,1-.5-.5v-15a5.08,5.08,0,0,0-1.25-3.73,4.8,4.8,0,0,0-3.6-1.27,5.64,5.64,0,0,0-3,.85,6.3,6.3,0,0,0-2.22,2.45,2.26,2.26,0,0,0-.25,1.05v15.6A.44.44,0,0,1,266.59,434Z"/><path d="M292.39,433a10.94,10.94,0,0,1-4.1-4.27,14,14,0,0,1,0-12.6,11,11,0,0,1,4.1-4.28,11.34,11.34,0,0,1,5.8-1.52,9.38,9.38,0,0,1,7.55,3.1c.07.06.13.08.2,0s.1-.09.1-.19v-2a.44.44,0,0,1,.5-.5H309a.44.44,0,0,1,.5.5v22.2a.44.44,0,0,1-.5.5h-2.45a.44.44,0,0,1-.5-.5v-2a.22.22,0,0,0-.1-.21.18.18,0,0,0-.2.06,10.3,10.3,0,0,1-7.55,3.1A11.25,11.25,0,0,1,292.39,433Zm10.55-2.77a6.23,6.23,0,0,0,2.7-2.7,1.92,1.92,0,0,0,.2-.9v-8.4a1.87,1.87,0,0,0-.2-.9,6.83,6.83,0,0,0-2.78-2.7,8.38,8.38,0,0,0-4.12-1,7.79,7.79,0,0,0-6,2.42,10.05,10.05,0,0,0,0,12.75,7.79,7.79,0,0,0,6,2.43A8.75,8.75,0,0,0,302.94,430.18Z"/><path d="M318,433.48v-19.3c0-.17-.08-.26-.25-.26h-2a.55.55,0,0,1-.35-.12.39.39,0,0,1-.15-.32v-2.2a.44.44,0,0,1,.5-.5h2a.22.22,0,0,0,.25-.25v-7.41a6.29,6.29,0,0,1,1.4-4.32,5.05,5.05,0,0,1,4-1.57,7,7,0,0,1,2.75.64c.3.18.41.37.35.61l-.7,2.35c-.1.3-.32.36-.65.2a3.25,3.25,0,0,0-1.45-.4,1.8,1.8,0,0,0-1.5.7,3.13,3.13,0,0,0-.55,2v7.2a.22.22,0,0,0,.25.25H325a.44.44,0,0,1,.5.5v2.2a.39.39,0,0,1-.15.32.55.55,0,0,1-.35.12h-3.1c-.17,0-.25.09-.25.26v19.3a.55.55,0,0,1-.12.35.43.43,0,0,1-.33.15h-2.7A.44.44,0,0,1,318,433.48Z"/><path d="M332,401.73l2.7-1.45a.58.58,0,0,1,.25,0c.23,0,.35.13.35.4v9.9a.22.22,0,0,0,.25.25h2.75a.44.44,0,0,1,.5.5v2.14a.44.44,0,0,1-.5.5h-2.75c-.17,0-.25.09-.25.26v19.3a.44.44,0,0,1-.5.5h-2.65a.44.44,0,0,1-.5-.5v-19.3a.23.23,0,0,0-.25-.26h-2.75a.44.44,0,0,1-.5-.5v-2.14a.44.44,0,0,1,.5-.5h2.75a.22.22,0,0,0,.25-.25v-8.2A.59.59,0,0,1,332,401.73Z"/><path d="M348.17,429.08a3.51,3.51,0,0,1,.92,2.55,7,7,0,0,1-.42,2.47,17.51,17.51,0,0,1-1.33,2.62l-3.75,6.46c-.17.33-.4.4-.7.2l-1.7-1.1a.42.42,0,0,1-.15-.66l3.85-6.59a.68.68,0,0,0,.1-.35c0-.1-.1-.2-.3-.31a2.85,2.85,0,0,1-1.53-1.12,3.3,3.3,0,0,1-.57-1.93,3,3,0,0,1,1-2.24,3.27,3.27,0,0,1,4.63,0Z"/><path d="M368.79,399h17a.44.44,0,0,1,.5.5V402a.44.44,0,0,1-.5.5H372.23a.21.21,0,0,0-.24.24v11.36a.22.22,0,0,0,.24.25h13.61a.44.44,0,0,1,.5.5v2.55a.44.44,0,0,1-.5.5H372.23c-.16,0-.24.08-.24.25v12a.22.22,0,0,0,.24.25h13.61a.44.44,0,0,1,.5.5v2.55a.44.44,0,0,1-.5.5h-17a.44.44,0,0,1-.5-.5v-34A.44.44,0,0,1,368.79,399Z"/><path d="M396.29,434h-2.65a.44.44,0,0,1-.5-.5v-22.2a.44.44,0,0,1,.5-.5H396a.44.44,0,0,1,.5.5v1.64c0,.14,0,.22.12.26s.18,0,.28-.15a8.35,8.35,0,0,1,2.65-2,7.7,7.7,0,0,1,3.4-.7,7.54,7.54,0,0,1,5.75,2.15,7.66,7.66,0,0,1,2.05,5.5v15.55a.44.44,0,0,1-.5.5h-2.65a.44.44,0,0,1-.5-.5v-15a5.12,5.12,0,0,0-1.25-3.73,4.84,4.84,0,0,0-3.6-1.27,5.49,5.49,0,0,0-3,.85,6.69,6.69,0,0,0-2.25,2.45,2.26,2.26,0,0,0-.25,1.05v15.6A.44.44,0,0,1,396.29,434Z"/><path d="M422.16,433a10.46,10.46,0,0,1-4.17-4.27A14.36,14.36,0,0,1,418,416a10.51,10.51,0,0,1,4.05-4.25,11.27,11.27,0,0,1,5.78-1.5,11.16,11.16,0,0,1,5.72,1.5,10.64,10.64,0,0,1,4,4.12,12.14,12.14,0,0,1,1.45,5.93,10.81,10.81,0,0,1-.05,1.15.49.49,0,0,1-.5.4H420.79c-.4,0-.55.21-.45.65a8.18,8.18,0,0,0,2.52,5.25,7.73,7.73,0,0,0,5.43,2,8.84,8.84,0,0,0,6.55-2.9c.37-.37.65-.43.85-.21l1.65,1.81c.23.2.23.41,0,.65a12.75,12.75,0,0,1-4.13,2.92,12,12,0,0,1-4.92,1A12.34,12.34,0,0,1,422.16,433Zm12.93-13.14a7.65,7.65,0,0,0-2.47-4.58,7.63,7.63,0,0,0-9.71.05,7.47,7.47,0,0,0-2.47,4.58l-.05.24c0,.21.16.31.49.31h13.76Q435.24,420.48,435.09,419.88Z"/><path d="M455.54,410.33c.3,0,.45.17.45.5v2.65c0,.3-.12.44-.35.44a3.51,3.51,0,0,1-.72-.07,3.56,3.56,0,0,0-.68-.07,6.29,6.29,0,0,0-5.5,3,2,2,0,0,0-.35,1.24v15.51a.44.44,0,0,1-.5.5h-2.65a.44.44,0,0,1-.5-.5v-22.2a.44.44,0,0,1,.5-.5h2.4a.44.44,0,0,1,.5.5v1.79c0,.14,0,.22.1.26s.15,0,.25-.1a7.8,7.8,0,0,1,6.3-3A3.64,3.64,0,0,1,455.54,410.33Z"/><path d="M464.39,443.25a11.62,11.62,0,0,1-3.9-2.77.49.49,0,0,1,0-.71l1.7-1.85a.42.42,0,0,1,.7,0,9.48,9.48,0,0,0,12.25,1.38,6,6,0,0,0,1.95-4.93v-3.44a.23.23,0,0,0-.15-.25.36.36,0,0,0-.35.14,9.92,9.92,0,0,1-7.2,2.66,11.19,11.19,0,0,1-5.65-1.45,10.38,10.38,0,0,1-4-4.1,12.48,12.48,0,0,1-1.45-6.1,11.94,11.94,0,0,1,1.5-6,10.73,10.73,0,0,1,4.08-4.08,11.49,11.49,0,0,1,5.72-1.44,9.54,9.54,0,0,1,7.25,2.79c.13.14.24.19.32.16s.13-.14.13-.31v-1.64a.47.47,0,0,1,.15-.35.49.49,0,0,1,.35-.15h2.45a.44.44,0,0,1,.5.5v23.4a8.64,8.64,0,0,1-3.08,7.07,12.25,12.25,0,0,1-8,2.53A12.81,12.81,0,0,1,464.39,443.25Zm9.75-14.07a7.43,7.43,0,0,0,2.75-2.55,1.74,1.74,0,0,0,.25-.9V418a1.53,1.53,0,0,0-.25-.89,7.27,7.27,0,0,0-2.75-2.55,8.41,8.41,0,0,0-4.05-.95,7.72,7.72,0,0,0-5.83,2.3,8.19,8.19,0,0,0-2.22,5.95,8.3,8.3,0,0,0,2.22,6,7.76,7.76,0,0,0,5.83,2.3A8.41,8.41,0,0,0,474.14,429.18Z"/><path d="M488.26,404.55a2.67,2.67,0,0,1-.82-1.92,2.59,2.59,0,0,1,.82-1.9,2.71,2.71,0,0,1,1.93-.8,2.55,2.55,0,0,1,1.85.8,2.61,2.61,0,0,1,.8,1.9,2.69,2.69,0,0,1-.8,1.92,2.5,2.5,0,0,1-1.85.83A2.66,2.66,0,0,1,488.26,404.55Zm0,28.93v-22.2a.44.44,0,0,1,.5-.5h2.65a.44.44,0,0,1,.5.5v22.2a.44.44,0,0,1-.5.5h-2.65A.44.44,0,0,1,488.29,433.48Z"/><path d="M503.57,433a10.42,10.42,0,0,1-4.18-4.27,14.32,14.32,0,0,1,0-12.72,10.51,10.51,0,0,1,4.05-4.25,11.77,11.77,0,0,1,11.5,0,10.68,10.68,0,0,1,4,4.12,12,12,0,0,1,1.45,5.93,10.81,10.81,0,0,1,0,1.15.49.49,0,0,1-.5.4H502.19c-.4,0-.55.21-.45.65a8.19,8.19,0,0,0,2.53,5.25,7.69,7.69,0,0,0,5.42,2,8.84,8.84,0,0,0,6.55-2.9c.37-.37.65-.43.85-.21l1.65,1.81c.23.2.23.41,0,.65a12.82,12.82,0,0,1-4.12,2.92,12,12,0,0,1-4.93,1A12.28,12.28,0,0,1,503.57,433Zm12.92-13.14A7.56,7.56,0,0,0,514,415.3a7,7,0,0,0-4.82-1.72,7.17,7.17,0,0,0-4.88,1.77,7.47,7.47,0,0,0-2.47,4.58l0,.24c0,.21.17.31.5.31H516Q516.64,420.48,516.49,419.88Z"/><path d="M85.55,475.48H88.2a.44.44,0,0,1,.5.5v22.2a.44.44,0,0,1-.5.5H85.8a.44.44,0,0,1-.5-.5v-1.65a.25.25,0,0,0-.13-.25c-.08,0-.19,0-.32.15a7.57,7.57,0,0,1-6,2.75A7.5,7.5,0,0,1,73.07,497a7.72,7.72,0,0,1-2-5.51V476a.44.44,0,0,1,.5-.5H74.2a.44.44,0,0,1,.5.5v15A5.07,5.07,0,0,0,76,494.66a4.8,4.8,0,0,0,3.6,1.27,5.49,5.49,0,0,0,3-.85,6.74,6.74,0,0,0,2.25-2.44,2.46,2.46,0,0,0,.25-1.06V476A.44.44,0,0,1,85.55,475.48Z"/><path d="M99.45,498.68H96.8a.44.44,0,0,1-.5-.5V476a.44.44,0,0,1,.5-.5h2.4a.44.44,0,0,1,.5.5v1.65c0,.14,0,.22.12.25s.18,0,.28-.15a8.5,8.5,0,0,1,2.65-2.05,7.8,7.8,0,0,1,3.39-.7,7.56,7.56,0,0,1,5.75,2.15,7.66,7.66,0,0,1,2.06,5.5v15.55a.44.44,0,0,1-.5.5h-2.66a.44.44,0,0,1-.5-.5V483.23a5.11,5.11,0,0,0-1.24-3.72,4.84,4.84,0,0,0-3.6-1.28,5.57,5.57,0,0,0-3,.85,6.77,6.77,0,0,0-2.25,2.45,2.26,2.26,0,0,0-.25,1.05v15.6A.44.44,0,0,1,99.45,498.68Z"/><path d="M139.2,462.48h2.65a.44.44,0,0,1,.5.5v35.2a.44.44,0,0,1-.5.5H139.4a.44.44,0,0,1-.5-.5v-1.75c0-.16-.05-.26-.13-.27s-.19,0-.32.17q-2.55,2.85-7.4,2.85a11.29,11.29,0,0,1-5.8-1.52,10.9,10.9,0,0,1-4.1-4.28,14,14,0,0,1,0-12.6,10.87,10.87,0,0,1,4.1-4.27,11.2,11.2,0,0,1,5.8-1.53,10,10,0,0,1,7.19,2.65c.14.14.25.18.33.15s.13-.13.13-.3V463A.44.44,0,0,1,139.2,462.48Zm-3.5,32.4a7.18,7.18,0,0,0,2.79-2.7,1.68,1.68,0,0,0,.21-.8v-8.6a1.67,1.67,0,0,0-.21-.79,7.18,7.18,0,0,0-2.79-2.7,8.27,8.27,0,0,0-4.1-1,7.81,7.81,0,0,0-6,2.42,10.09,10.09,0,0,0,0,12.75,7.81,7.81,0,0,0,6,2.42A8.27,8.27,0,0,0,135.7,494.88Z"/><path d="M179.77,464.88a8.33,8.33,0,0,1,3.45,3.3,9.62,9.62,0,0,1,1.18,4.75,8.54,8.54,0,0,1-1.16,4.38,8.2,8.2,0,0,1-3.09,3.07c-.34.2-.34.39,0,.55a9,9,0,0,1,5,8.16,9.18,9.18,0,0,1-2.79,6.89q-2.81,2.7-7.91,2.7h-10.1c-.33,0-.49-.16-.49-.5v-34a.44.44,0,0,1,.49-.5h10A11.61,11.61,0,0,1,179.77,464.88Zm-12.23,2.6v11.35a.22.22,0,0,0,.25.25h6.11a7.05,7.05,0,0,0,4.94-1.55,5.56,5.56,0,0,0,1.7-4.35,5.64,5.64,0,0,0-1.7-4.37,7,7,0,0,0-4.94-1.58h-6.11A.22.22,0,0,0,167.54,467.48Zm0,15.4v12a.22.22,0,0,0,.25.25h6.31a7.82,7.82,0,0,0,5.37-1.64,6.74,6.74,0,0,0,0-9.21,7.82,7.82,0,0,0-5.37-1.65h-6.31A.22.22,0,0,0,167.54,482.88Z"/><path d="M196,497.73a10.52,10.52,0,0,1-4.17-4.27,14.38,14.38,0,0,1,0-12.73,10.57,10.57,0,0,1,4.05-4.25,11.77,11.77,0,0,1,11.5,0,10.66,10.66,0,0,1,4,4.13,12.09,12.09,0,0,1,1.44,5.92,11.37,11.37,0,0,1,0,1.15.48.48,0,0,1-.5.41H194.64c-.4,0-.55.21-.44.64a8.16,8.16,0,0,0,2.52,5.26,7.77,7.77,0,0,0,5.43,1.94,8.81,8.81,0,0,0,6.55-2.9c.36-.37.64-.43.85-.2l1.64,1.8a.38.38,0,0,1,0,.65,12.74,12.74,0,0,1-4.12,2.93,12.11,12.11,0,0,1-4.92,1A12.29,12.29,0,0,1,196,497.73Zm12.92-13.15a7.55,7.55,0,0,0-2.47-4.57,7.08,7.08,0,0,0-4.82-1.72,7.17,7.17,0,0,0-4.88,1.77,7.46,7.46,0,0,0-2.48,4.57l0,.25c0,.2.17.3.5.3h13.75Q209.11,485.18,208.94,484.58Z"/><path d="M219.89,466.43l2.7-1.45a.66.66,0,0,1,.25,0c.23,0,.35.13.35.39v9.91c0,.16.08.24.25.24h2.75a.44.44,0,0,1,.5.5v2.15a.44.44,0,0,1-.5.5h-2.75a.22.22,0,0,0-.25.25v19.3a.44.44,0,0,1-.5.5H220a.44.44,0,0,1-.5-.5v-19.3a.22.22,0,0,0-.25-.25h-2.75a.44.44,0,0,1-.5-.5V476a.44.44,0,0,1,.5-.5h2.75c.17,0,.25-.08.25-.24V467A.59.59,0,0,1,219.89,466.43Z"/><path d="M242.79,475c.3,0,.45.17.45.5v2.65c0,.3-.11.45-.35.45a3.65,3.65,0,0,1-.72-.07,3.56,3.56,0,0,0-.67-.08,6.33,6.33,0,0,0-5.51,2.95,2.17,2.17,0,0,0-.35,1.25v15.5a.44.44,0,0,1-.5.5h-2.65a.44.44,0,0,1-.5-.5V476a.44.44,0,0,1,.5-.5h2.41a.44.44,0,0,1,.5.5v1.8c0,.14,0,.22.09.25s.15,0,.26-.09a7.76,7.76,0,0,1,6.29-3A4.36,4.36,0,0,1,242.79,475Z"/><path d="M247.87,469.26a2.63,2.63,0,0,1-.82-1.93,2.52,2.52,0,0,1,.82-1.89,2.66,2.66,0,0,1,1.93-.81,2.75,2.75,0,0,1,2.65,2.7,2.69,2.69,0,0,1-.8,1.93,2.53,2.53,0,0,1-1.85.82A2.63,2.63,0,0,1,247.87,469.26Zm0,28.92V476a.44.44,0,0,1,.5-.5H251a.44.44,0,0,1,.5.5v22.2a.44.44,0,0,1-.5.5H248.4A.44.44,0,0,1,247.9,498.18Z"/><path d="M263.17,497.73a10.48,10.48,0,0,1-4.18-4.27,14.34,14.34,0,0,1,0-12.73,10.57,10.57,0,0,1,4-4.25,11.77,11.77,0,0,1,11.5,0,10.57,10.57,0,0,1,4,4.13,12,12,0,0,1,1.46,5.92,8.34,8.34,0,0,1-.06,1.15.47.47,0,0,1-.5.41H261.8c-.4,0-.55.21-.46.64a8.22,8.22,0,0,0,2.53,5.26,7.73,7.73,0,0,0,5.42,1.94,8.79,8.79,0,0,0,6.55-2.9c.37-.37.66-.43.85-.2l1.66,1.8a.39.39,0,0,1,0,.65,12.78,12.78,0,0,1-4.13,2.93,12.13,12.13,0,0,1-4.93,1A12.31,12.31,0,0,1,263.17,497.73Zm12.93-13.15a7.67,7.67,0,0,0-2.48-4.57,7.61,7.61,0,0,0-9.7.05,7.45,7.45,0,0,0-2.47,4.57l-.05.25c0,.2.16.3.49.3h13.76Q276.24,485.18,276.1,484.58Z"/><path d="M289.52,477.78c.08,0,.19,0,.32-.15a10,10,0,0,1,7.21-2.65,11.25,11.25,0,0,1,5.8,1.53,10.92,10.92,0,0,1,4.09,4.27,14,14,0,0,1,0,12.6,11,11,0,0,1-4.09,4.28,11.34,11.34,0,0,1-5.8,1.52c-3.24,0-5.7-.95-7.4-2.85-.14-.13-.24-.19-.33-.17s-.13.11-.13.27v1.75a.44.44,0,0,1-.5.5h-2.44a.44.44,0,0,1-.5-.5V463a.44.44,0,0,1,.5-.5h2.64a.44.44,0,0,1,.5.5v14.5C289.39,477.65,289.43,477.75,289.52,477.78Zm13,15.68a10.09,10.09,0,0,0,0-12.75,7.81,7.81,0,0,0-6-2.42,8.27,8.27,0,0,0-4.1,1,7.2,7.2,0,0,0-2.8,2.7,1.78,1.78,0,0,0-.2.79v8.6a1.79,1.79,0,0,0,.2.8,7.2,7.2,0,0,0,2.8,2.7,8.27,8.27,0,0,0,4.1,1A7.81,7.81,0,0,0,302.47,493.46Z"/><path d="M318.42,497.73a10.48,10.48,0,0,1-4.18-4.27,14.43,14.43,0,0,1,0-12.73,10.57,10.57,0,0,1,4-4.25,11.77,11.77,0,0,1,11.5,0,10.57,10.57,0,0,1,4,4.13,12,12,0,0,1,1.46,5.92,8.34,8.34,0,0,1-.06,1.15.47.47,0,0,1-.5.41H317.05c-.4,0-.55.21-.46.64a8.22,8.22,0,0,0,2.53,5.26,7.73,7.73,0,0,0,5.42,1.94,8.79,8.79,0,0,0,6.55-2.9c.37-.37.66-.43.85-.2l1.66,1.8a.39.39,0,0,1,0,.65,12.78,12.78,0,0,1-4.13,2.93,12.13,12.13,0,0,1-4.93,1A12.31,12.31,0,0,1,318.42,497.73Zm12.93-13.15a7.62,7.62,0,0,0-2.48-4.57,7.61,7.61,0,0,0-9.7.05,7.45,7.45,0,0,0-2.47,4.57l-.05.25c0,.2.16.3.5.3H330.9Q331.49,485.18,331.35,484.58Z"/></svg>