
<svg width="105px" height="32px" viewBox="0 0 105 32" version="1.1" xmlns="http://www.w3.org/2000/svg" xmlns:xlink="http://www.w3.org/1999/xlink">
    <defs>
        <polygon id="path-1" points="0.399267853 0.607306731 59.8246321 0.607306731 59.8246321 27.9548576 0.399267853 27.9548576"></polygon>
        <polygon id="path-3" points="0 0.0618040075 11.0956061 0.0618040075 11.0956061 10.0350945 0 10.0350945"></polygon>
        <polygon id="path-5" points="0 0.0527187109 35.4029379 0.0527187109 35.4029379 24.8273081 0 24.8273081"></polygon>
        <polygon id="path-7" points="0 0.138558605 35.4029379 0.138558605 35.4029379 17.2360858 0 17.2360858"></polygon>
        <polygon id="path-9" points="0 0.0527187109 30.8729745 0.0527187109 30.8729745 20.7876768 0 20.7876768"></polygon>
        <polygon id="path-11" points="0 0.138558605 21.9812989 0.138558605 21.9812989 13.1964545 0 13.1964545"></polygon>
    </defs>
    <g id="Page-1" stroke="none" stroke-width="1" fill="none" fill-rule="evenodd">
        <g id="Group-21-Copy" transform="translate(0.500000, -1.108190)">
            <g id="Group-3" transform="translate(44.446248, 0.995887)">
                <mask id="mask-2" fill="white">
                    <use xlink:href="#path-1"></use>
                </mask>
                <g id="Clip-2"></g>
                <path d="M49.7128949,5.3931722 C49.5494509,5.43964158 49.3651757,5.45406311 49.1648767,5.45406311 C48.2819584,5.45406311 47.9759015,5.07910329 47.9759015,3.58086636 C47.9759015,2.10346054 48.2899704,1.70446483 49.3203087,1.70446483 C49.7497499,1.70446483 50.2176485,1.79740359 50.5797892,1.9432213 L50.6999686,0.869618372 C50.3025753,0.707776736 49.7497499,0.606826013 49.2514059,0.606826013 C47.4759551,0.606826013 46.7084091,1.53621362 46.7084091,3.5952879 C46.7084091,5.60789279 47.3926306,6.57573782 49.1985269,6.57573782 C49.7817978,6.57573782 50.403526,6.44594403 50.7945098,6.26006651 L50.7945098,3.34851946 L49.7128949,3.34851946 L49.7128949,5.3931722 Z M45.0659568,3.58727593 C45.0659568,5.76172246 44.3913496,6.56772585 42.7537046,6.56772585 C41.1481073,6.56772585 40.4414523,5.71525308 40.4414523,3.58727593 C40.4414523,1.45929879 41.1192643,0.614837975 42.7537046,0.614837975 C44.3913496,0.614837975 45.0659568,1.45929879 45.0659568,3.58727593 L45.0659568,3.58727593 Z M43.8000668,3.58727593 C43.8000668,2.05859355 43.5372745,1.73491028 42.7537046,1.73491028 C41.9781466,1.73491028 41.7089447,2.06660552 41.7089447,3.58727593 C41.7089447,5.11595831 41.9781466,5.45566551 42.7601141,5.45566551 C43.5372745,5.45566551 43.8000668,5.10794635 43.8000668,3.58727593 L43.8000668,3.58727593 Z M13.7167513,6.56772585 C14.1718308,6.56772585 14.6717772,6.4523536 15.009882,6.28410239 L14.8881002,5.26177602 C14.6028744,5.3931722 14.2727815,5.478099 13.8962193,5.478099 C12.9508078,5.478099 12.6207149,5.0550674 12.6207149,3.54881851 C12.6207149,2.13550839 12.9347838,1.72689832 13.8737858,1.72689832 C14.2487456,1.72689832 14.6092839,1.80541555 14.8704739,1.90476388 L14.9954605,0.835968131 C14.7006203,0.707776736 14.1958667,0.606826013 13.788859,0.606826013 C12.1047446,0.606826013 11.3548249,1.57306865 11.3548249,3.54881851 C11.3548249,5.6479526 12.1127565,6.56772585 13.7167513,6.56772585 L13.7167513,6.56772585 Z M52.8439697,6.46677513 L54.0794143,6.46677513 L54.0794143,0.707776736 L53.4624932,0.707776736 L52.8439697,0.707776736 L52.8439697,6.46677513 Z M31.5962461,6.56772585 C29.9906489,6.56772585 29.2871986,5.71525308 29.2871986,3.58727593 C29.2871986,1.45929879 29.9634082,0.614837975 31.5962461,0.614837975 C33.2338911,0.614837975 33.9101007,1.45929879 33.9101007,3.58727593 C33.9101007,5.76172246 33.2338911,6.56772585 31.5962461,6.56772585 L31.5962461,6.56772585 Z M32.6442107,3.58727593 C32.6442107,2.05859355 32.3830208,1.73491028 31.5962461,1.73491028 C30.8222905,1.73491028 30.5530886,2.06660552 30.5530886,3.58727593 C30.5530886,5.11595831 30.8222905,5.45406311 31.604258,5.45406311 C32.3830208,5.45406311 32.6442107,5.10794635 32.6442107,3.58727593 L32.6442107,3.58727593 Z M9.71397505,5.37714828 L7.33922947,5.37714828 L7.33922947,4.01030753 L9.2364621,4.01030753 L9.2364621,2.99759552 L7.33922947,2.99759552 L7.33922947,1.81182512 L9.59860279,1.81182512 L9.57456691,0.707776736 L6.13583275,0.707776736 L6.13583275,6.46677513 L9.68352959,6.46677513 L9.71397505,5.37714828 Z M18.0239822,4.07921041 L19.807445,4.07921041 L19.807445,6.46677513 L21.0124441,6.46677513 L21.0124441,0.707776736 L19.807445,0.707776736 L19.807445,2.95753571 L18.0239822,2.95753571 L18.0239822,0.707776736 L16.8189831,0.707776736 L16.8189831,6.46677513 L18.0239822,6.46677513 L18.0239822,4.07921041 Z M39.1835742,5.34670282 L37.0620067,5.34670282 L37.0620067,0.706174344 L35.8522004,0.706174344 L35.8522004,6.46677513 L39.1515264,6.46677513 L39.1835742,5.34670282 Z M57.4524503,5.37714828 L57.4524503,4.01030753 L59.349683,4.01030753 L59.349683,2.99759552 L57.4524503,2.99759552 L57.4524503,1.81182512 L59.7086189,1.81182512 L59.6861854,0.707776736 L56.2442464,0.707776736 L56.2442464,6.46677513 L59.7951481,6.46677513 L59.8255935,5.37714828 L57.4524503,5.37714828 Z M1.79975884,6.46677513 L3.01757708,6.46677513 L3.01757708,1.83586101 L4.41486328,1.83586101 L4.39563457,0.707776736 L0.428110917,0.707776736 L0.399267853,1.83586101 L1.79975884,1.83586101 L1.79975884,6.46677513 Z M27.3979779,6.46677513 L27.3979779,0.707776736 L26.3403989,0.707776736 L26.3403989,3.57926397 L26.3548204,4.19298027 L26.3403989,4.20099223 L24.2044098,0.707776736 L23.1676619,0.707776736 L23.1676619,6.46677513 L24.2332529,6.46677513 L24.2332529,3.44145822 L24.2268433,2.81972996 L24.2412648,2.811718 L24.5633457,3.34851946 L26.5390956,6.46677513 L27.3979779,6.46677513 Z M23.6628012,11.6104548 L19.7016871,11.6104548 L19.6696392,12.7385391 L21.0685278,12.7385391 L21.0685278,17.3710556 L22.2895508,17.3710556 L22.2895508,12.7385391 L23.6884394,12.7385391 L23.6628012,11.6104548 Z M29.4618594,15.4145345 L29.4618594,11.6104548 L28.2568602,11.6104548 L28.2568602,15.3985105 C28.2568602,16.0667082 27.9940679,16.3423197 27.3499061,16.3423197 C26.704142,16.3423197 26.4349401,16.0586962 26.4349401,15.3985105 L26.4349401,11.6104548 L25.2235314,11.6104548 L25.2235314,15.4145345 C25.2235314,16.7957967 25.9510175,17.4704039 27.3499061,17.4704039 C28.7487947,17.4704039 29.4618594,16.7957967 29.4618594,15.4145345 L29.4618594,15.4145345 Z M18.027187,14.0236578 L16.1459783,14.0236578 L16.1459783,12.7385391 L18.3973396,12.7385391 L18.3797133,11.6104548 L14.9409792,11.6104548 L14.9409792,17.3710556 L16.1459783,17.3710556 L16.1459783,15.0908512 L18.0127654,15.0908512 L18.027187,14.0236578 Z M34.7016826,14.4835445 L34.7177065,15.0972608 L34.7016826,15.1052727 L32.5656935,11.6104548 L31.5273432,11.6104548 L31.5273432,17.3710556 L32.5945366,17.3710556 L32.5945366,14.3457387 L32.5865246,13.7224081 L32.6025485,13.7159985 L32.9262318,14.2527999 L34.9019817,17.3710556 L35.760864,17.3710556 L35.760864,11.6104548 L34.7016826,11.6104548 L34.7016826,14.4835445 Z M2.5064139,16.3887891 C1.99044354,16.3887891 1.52254495,16.2429713 1.07547746,16.0058173 L0.915238216,17.0649987 C1.36070331,17.3261886 1.92955262,17.4704039 2.52884739,17.4704039 C3.77390631,17.4704039 4.49338051,16.7957967 4.49338051,15.6661101 C4.49338051,13.7768894 2.09780383,14.1149942 2.09780383,13.1936186 C2.09780383,12.8699353 2.28207896,12.6247692 2.93585507,12.6247692 C3.32844122,12.6247692 3.74346085,12.7000817 4.17290203,12.8458994 L4.31070777,11.8043443 C3.91171206,11.6184668 3.38292256,11.5191185 2.85894023,11.5191185 C1.52895452,11.5191185 0.93767171,12.2706405 0.93767171,13.2464975 C0.93767171,15.1293086 3.33645318,14.7992158 3.33645318,15.7446273 C3.33645318,16.1660565 3.08007039,16.3887891 2.5064139,16.3887891 L2.5064139,16.3887891 Z M7.2046285,17.3710556 L8.42404914,17.3710556 L8.42404914,12.7385391 L9.82293773,12.7385391 L9.80210663,11.6104548 L5.83618537,11.6104548 L5.8073423,12.7385391 L7.2046285,12.7385391 L7.2046285,17.3710556 Z M12.7408943,11.6104548 L12.1239733,11.6104548 L11.5038474,11.6104548 L11.5038474,17.3710556 L12.7408943,17.3710556 L12.7408943,11.6104548 Z M40.6946303,16.2974527 C40.5327887,16.3439221 40.3485135,16.3583436 40.1482145,16.3583436 C39.2636939,16.3583436 38.9576369,15.9817814 38.9576369,14.4835445 C38.9576369,13.007741 39.2717058,12.6087453 40.3036465,12.6087453 C40.7330877,12.6087453 41.2009863,12.7000817 41.5615246,12.8458994 L41.6833064,11.7722965 C41.2843107,11.6104548 40.7330877,11.5111065 40.2331413,11.5111065 C38.4592929,11.5111065 37.6917469,12.4404941 37.6917469,14.4995684 C37.6917469,16.5121733 38.3727637,17.4784159 40.1802623,17.4784159 C40.7651356,17.4784159 41.3852614,17.3470197 41.7762452,17.164347 L41.7762452,14.2527999 L40.6946303,14.2527999 L40.6946303,16.2974527 Z M29.8496383,22.1942568 L29.8496383,25.9486623 L29.8640599,26.563981 L29.8496383,26.5719929 L29.533967,26.0351915 L27.2505578,22.1942568 L26.5855649,22.1942568 L26.5855649,27.9548576 L27.2377387,27.9548576 L27.2377387,24.0834775 L27.2297267,23.4617492 L27.2457506,23.4537373 L27.55341,23.9921411 L29.9569986,27.9548576 L30.4857881,27.9548576 L30.4857881,22.1942568 L29.8496383,22.1942568 Z M23.2878413,27.9548576 L24.0313514,27.9548576 L24.0313514,22.1942568 L23.657994,22.1942568 L23.2878413,22.1942568 L23.2878413,27.9548576 Z M3.86364029,24.9055048 C4.47094702,25.0577321 4.82988292,25.4967876 4.82988292,26.3188149 C4.82988292,27.3555628 4.34115323,27.9548576 3.11051584,27.9548576 L1.15719947,27.9548576 L1.15719947,22.1942568 L3.04161297,22.1942568 C4.0927824,22.1942568 4.6231743,22.6621554 4.6231743,23.6235909 C4.6231743,24.3286435 4.31711734,24.7276393 3.86364029,24.8894809 L3.86364029,24.9055048 Z M1.86545693,24.6747603 L3.04962493,24.6747603 C3.6489197,24.6747603 3.91812163,24.3831249 3.91812163,23.7517823 C3.91812163,23.0835846 3.64251013,22.8528401 3.01757708,22.8528401 L1.86545693,22.8528401 L1.86545693,24.6747603 Z M3.1201302,27.3106959 C3.74826803,27.3106959 4.10079437,27.0479035 4.10079437,26.2643336 C4.10079437,25.5576785 3.78031588,25.2660431 3.08487757,25.2660431 L1.86545693,25.2660431 L1.86545693,27.3106959 L3.1201302,27.3106959 Z M14.8881002,25.3493675 L16.2629529,27.9548576 L15.4024682,27.9548576 L14.2183002,25.4871733 L13.2119977,25.4871733 L13.2119977,27.9548576 L12.4829092,27.9548576 L12.4829092,22.1942568 L14.2118906,22.1942568 C15.3704203,22.1942568 15.9152338,22.6926009 15.9152338,23.8222875 C15.9152338,24.7276393 15.5546955,25.2275857 14.8881002,25.3493675 L14.8881002,25.3493675 Z M15.1637117,23.8511306 C15.1637117,23.0980062 14.8720763,22.8464305 14.2183002,22.8464305 L13.2119977,22.8464305 L13.2119977,24.8894809 L14.1894571,24.8894809 C14.8640643,24.8894809 15.1637117,24.6282909 15.1637117,23.8511306 L15.1637117,23.8511306 Z M7.05560601,22.1942568 L7.05560601,27.9548576 L10.3517272,27.9548576 L10.3725583,27.2722384 L7.78629696,27.2722384 L7.78629696,25.2724527 L9.89504539,25.2724527 L9.89504539,24.6363029 L7.78629696,24.6363029 L7.78629696,22.884888 L10.2507765,22.884888 L10.2347526,22.1942568 L7.05560601,22.1942568 Z M18.9469602,22.1942568 L18.9469602,27.2562145 L21.326513,27.2562145 L21.3040795,27.9548576 L18.2114621,27.9548576 L18.2114621,22.1942568 L18.9469602,22.1942568 Z" id="Fill-1" fill="#000000" mask="url(#mask-2)"></path>
            </g>
            <g id="Group-6" transform="translate(0.000000, 23.008641)">
                <mask id="mask-4" fill="white">
                    <use xlink:href="#path-3"></use>
                </mask>
                <g id="Clip-5"></g>
                <polygon id="Fill-4" fill="#E40134" mask="url(#mask-4)" points="3.29836458 10.0350945 -0.000961435458 0.156345161 0.156073023 0.0618040075 11.0956061 1.89013377 11.009077 1.97986775"></polygon>
            </g>
            <polygon id="Fill-7" fill="#71CBF4" points="7.63764328 7.21365024 39.028511 21.0471041 35.4038993 29.0270184 0.000640956972 23.1654669"></polygon>
            <g id="Group-11" transform="translate(0.000000, 4.200672)">
                <mask id="mask-6" fill="white">
                    <use xlink:href="#path-5"></use>
                </mask>
                <g id="Clip-10"></g>
                <polygon id="Fill-9" fill="#63B9E9" mask="url(#mask-6)" points="-0.000320478486 18.9641542 30.8729745 0.0527187109 35.4029379 24.8273081"></polygon>
            </g>
            <g id="Group-14" transform="translate(0.000000, 11.791894)">
                <mask id="mask-8" fill="white">
                    <use xlink:href="#path-7"></use>
                </mask>
                <g id="Clip-13"></g>
                <polygon id="Fill-12" fill="#3192D0" mask="url(#mask-8)" points="-0.000320478486 11.3729319 18.3406633 0.138558605 33.4976933 6.81733025 35.4029379 17.2360858"></polygon>
            </g>
            <g id="Group-17" transform="translate(0.000000, 4.200672)">
                <mask id="mask-10" fill="white">
                    <use xlink:href="#path-9"></use>
                </mask>
                <g id="Clip-16"></g>
                <polygon id="Fill-15" fill="#3A5BA7" mask="url(#mask-10)" points="-0.000320478486 18.9641542 30.8729745 0.0527187109 11.0097179 20.7876768"></polygon>
            </g>
            <g id="Group-20" transform="translate(0.000000, 11.791894)">
                <mask id="mask-12" fill="white">
                    <use xlink:href="#path-11"></use>
                </mask>
                <g id="Clip-19"></g>
                <polygon id="Fill-18" fill="#213A8F" mask="url(#mask-12)" points="-0.000320478486 11.3729319 18.3406633 0.138558605 21.9812989 1.74255343 11.0097179 13.1964545"></polygon>
            </g>
        </g>
    </g>
</svg>